<svg xmlns="http://www.w3.org/2000/svg" width="24" height="24" viewBox="-2 -2 24 24" stroke="none" fill="currentColor">
    <path d="M14 5H6a1 1 0 0 0-1 1v8a1 1 0 0 0 1 1h8a1 1 0 0 0 1-1V6a1 1 0 0 0-1-1zm0 9H6V6h8v8z" />
    <path d="M8 8h4v4H8zM8.5 0A1.5 1.5 0 0 0 8 2.9V5h1V2.9A1.5 1.5 0 0 0 8.5 0zm0 2a.5.5 0 1 1 0-1 .5.5 0 0 1 0 1zM14.5 1c-.65 0-1.2.42-1.4 1H12a1 1 0 0 0-1 1v2h1V3h1.1a1.5 1.5 0 1 0 1.4-2zm0 2a.5.5 0 1 1 0-1 .5.5 0 0 1 0 1zM20 8.5a1.5 1.5 0 0 0-2.9-.5H15v1h2.1a1.5 1.5 0 0 0 2.9-.5zm-2 0a.5.5 0 1 1 1 0 .5.5 0 0 1-1 0zM19 14.5c0-.65-.42-1.2-1-1.4V12a1 1 0 0 0-1-1h-2v1h2v1.1a1.5 1.5 0 1 0 2 1.4zm-2 0a.5.5 0 1 1 1 0 .5.5 0 0 1-1 0zM11.5 20a1.5 1.5 0 0 0 .5-2.9V15h-1v2.1a1.5 1.5 0 0 0 .5 2.9zm0-2a.5.5 0 1 1 0 1 .5.5 0 0 1 0-1zM5.5 19c.65 0 1.2-.42 1.4-1H8a1 1 0 0 0 1-1v-2H8v2H6.9a1.5 1.5 0 1 0-1.4 2zm0-2a.5.5 0 1 1 0 1 .5.5 0 0 1 0-1zM0 11.5a1.5 1.5 0 0 0 2.9.5H5v-1H2.9a1.5 1.5 0 0 0-2.9.5zm2 0a.5.5 0 1 1-1 0 .5.5 0 0 1 1 0zM1 5.5c0 .65.42 1.2 1 1.4V8a1 1 0 0 0 1 1h2V8H3V6.9a1.5 1.5 0 1 0-2-1.4zm2 0a.5.5 0 1 1-1 0 .5.5 0 0 1 1 0z" />
</svg>