<svg xmlns="http://www.w3.org/2000/svg" width="24" height="24" viewBox="-256 -256 1536 1536" stroke="none" fill="currentColor">
  <path d="M314.946 679.555c3.243 28.896 15.835 54.944 36.914 76.024 24.704 24.703 56.229 37.761 91.165 37.761 19.581 0 38.089-4.104 54.926-12.059a195.11 195.11 0 0 0 10.858-10.083c29.959-29.96 44.224-61.638 44.224-106.784 0-45.146-14.265-76.823-44.224-106.783a195.463 195.463 0 0 0-10.842-10.076c-16.84-7.959-35.352-12.065-54.936-12.065-23.353 0-45.177 5.841-64.462 17.085a539.45 539.45 0 0 0-35.451 56.353c-12.645 23.121-21.787 46.871-28.172 70.627zM996.275 437.961s-60.278-87.969-191.848-108.053c-46.96-7.168-90.106-1.964-126.155 7.683 10.312-37.984 17.33-82.968 12.647-128.425C668.655 91.933 572.302 19.857 572.302 19.857L545.756 0l-20.378 25.792s-63.47 80.339-54.715 213.28h.012c11.078 72.069 44.583 128.311 72.578 164.396a468.284 468.284 0 0 0-12.112 7.062c38.125 13.266 73.266 34.967 102.033 63.739 10.667 10.667 20.354 22.214 29.011 34.458 32.731 18.32 71.893 34.893 114.121 41.67 119.006 8.838 213.561-65.578 213.561-65.578l26.05-20.504-19.642-26.354zM635.494 852.188c-.771.792-1.533 1.593-2.315 2.375-50.057 50.049-119.365 78.754-190.154 78.754-32.228 0-64.078-5.853-94.665-17.395a273.834 273.834 0 0 1-29.958-13.406c11.032 43.813 23.71 71.848 23.71 71.848l4.408 10.306 9.893 5.396s48.529 26.48 118.305 33.911c17.336 1.366 86.142 2.336 103.657-.437 92.628-17.737 121.228-33.786 121.228-33.786l44.17-24.785-39.654-33.248c-.002-.001-34.067-28.567-68.625-79.533z" />
  <path d="M604.89 502.553c-42.598-42.605-101.595-67.04-161.865-67.04-60.263 0-119.26 24.435-161.863 67.038-42.604 42.604-67.038 101.602-67.038 161.863 0 40.656 10.803 80.569 31.242 115.423l3.443 5.871L75.582 929.064a23.835 23.835 0 0 0-8.593 16.242 23.837 23.837 0 0 0 5.414 17.559l7.641 9.222a23.946 23.946 0 0 0 18.498 8.689c5.562 0 10.99-1.957 15.284-5.512l173.13-143.281 5.123 4.471c42.018 36.668 95.625 56.862 150.946 56.862 60.26 0 119.261-24.436 161.872-67.04 42.599-42.606 67.03-101.603 67.03-161.862 0-60.263-24.434-119.259-67.037-161.861zm-42.415 281.311c-32.369 32.367-73.674 49.476-119.45 49.476-45.775 0-87.08-17.108-119.448-49.476-32.368-32.368-49.477-73.673-49.477-119.45 0-45.776 17.109-87.081 49.477-119.449 32.369-32.367 73.675-49.476 119.455-49.476 45.772 0 87.075 17.109 119.444 49.478 32.366 32.362 49.475 73.666 49.475 119.447-.001 45.776-17.109 87.081-49.476 119.45z" />
</svg>