<svg xmlns="http://www.w3.org/2000/svg" width="24" height="24" viewBox="0 0 24 24" stroke="none" fill="currentColor">
  <path d="M12.553 9.086v1.594l1.129-1.128c0-.2.075-.398.226-.551a.78.78 0 1 1 .551 1.332l-1.126 1.128h1.594a.78.78 0 1 1 0 1.103h-1.594l1.126 1.128c.2 0 .4.076.55.229a.773.773 0 0 1 0 1.102.778.778 0 0 1-1.33-.551l-1.128-1.128v1.596a.78.78 0 1 1-1.104 0v-1.596l-1.126 1.128a.781.781 0 0 1-1.332.551.778.778 0 0 1 .551-1.331l1.129-1.128H9.076a.781.781 0 1 1 0-1.103h1.594l-1.129-1.128a.78.78 0 1 1 .781-.782l1.126 1.128V9.086a.779.779 0 0 1 .553-1.331.779.779 0 0 1 .552 1.331z" />
  <path d="M18.499 7.65l-5.904-3.404a1.187 1.187 0 0 0-1.192-.004L5.5 7.647a1.19 1.19 0 0 0-.603 1.028v6.84c.012.419.246.806.6 1.002l5.91 3.407a1.19 1.19 0 0 0 1.187 0l5.896-3.4c.368-.205.603-.593.611-1.032L19.1 8.653a1.187 1.187 0 0 0-.601-1.003zm-.422 8.129l-5.908 3.407a.335.335 0 0 1-.334 0l-5.912-3.407a.34.34 0 0 1-.174-.288V8.675c0-.12.071-.229.173-.288l5.906-3.407a.33.33 0 0 1 .333 0l5.913 3.408a.343.343 0 0 1 .176.288l.001 6.816a.334.334 0 0 1-.174.287z" />
</svg>