<svg xmlns="http://www.w3.org/2000/svg" viewBox="0 0 24 24">
	<path d="M21 10.5a.5.5 0 0 1-.5-.5c0-2.481-2.019-4.5-4.5-4.5a.5.5 0 0 1 0-1c3.032 0 5.5 2.467 5.5 5.5a.5.5 0 0 1-.5.5z"/>
	<path d="M19 10.5a.5.5 0 0 1-.5-.5c0-1.379-1.121-2.5-2.5-2.5a.5.5 0 0 1 0-1c1.93 0 3.5 1.57 3.5 3.5a.5.5 0 0 1-.5.5zM8 16.5a.5.5 0 0 1-.354-.853L8.293 15l-.646-.646a.5.5 0 0 1 .707-.707l1 1a.5.5 0 0 1 0 .707l-1 1A.502.502 0 0 1 8 16.5z"/>
	<path d="M16 9H6a1 1 0 0 0-1 1v8a1 1 0 0 0 1 1h10a1 1 0 0 0 1-1v-8a1 1 0 0 0-1-1zm-1 9H6v-7h10v7h-1z"/>
</svg>