<svg xmlns="http://www.w3.org/2000/svg" viewBox="-2 -2 24 24">
    <path d="M18 15h1v1h-1zM18 17h1v1h-1zM16 13h1v1h-1zM16 19h1v1h-1zM14 19h1v1h-1zM12 19h1v1h-1zM10 17h1v1h-1zM15 10h1v2h-1zM5 10h1v2H5zM8 14h2v1H8zM11 14h2v1h-2zM10 15h1v1h-1zM13 0H1a1 1 0 0 0-1 1v8a1 1 0 0 0 1 1h12a1 1 0 0 0 1-1V1a1 1 0 0 0-1-1zM6 14v-1H5v1a1 1 0 0 0 1 1h1v-1H6zM15 14h-1v1h1a1 1 0 0 0 1-1v-1h-1v1zM15 8v1h1V8a1 1 0 0 0-1-1h-1v1h1zM18 13v1h1a1 1 0 0 0-1-1zM11 20v-1h-1a1 1 0 0 0 1 1zM19 19h-1v1a1 1 0 0 0 1-1z"/>
</svg>