<svg xmlns="http://www.w3.org/2000/svg" viewBox="-4 -5 24 24">
    <path d="M10 13.5c-1.1 0-1.5-.9-1.5-1.5a.5.5 0 0 1 1 0c0 .23.1.5.5.5.35 0 .5-.16.9-.8.18-.31.4-.67.72-1.03.5-.57 1-1 1.45-1.36.9-.74 1.43-1.2 1.43-2.31 0-1.73-.77-2.5-2.5-2.5S9.5 5.27 9.5 7a.5.5 0 0 1-1 0c0-2.29 1.21-3.5 3.5-3.5s3.5 1.21 3.5 3.5c0 1.59-.87 2.31-1.79 3.08a11 11 0 0 0-1.33 1.25c-.27.3-.46.6-.64.9-.4.62-.8 1.27-1.74 1.27z"/><path d="M13 7.5a.5.5 0 0 1-.5-.5c0-.23-.1-.5-.5-.5s-.5.28-.5.5c0 .28-.24.54-.5.5a.5.5 0 0 1-.5-.5c0-.6.4-1.5 1.5-1.5s1.5.9 1.5 1.5a.5.5 0 0 1-.5.5z"/><path d="M12 0H1a1 1 0 0 0-1 1v8a1 1 0 0 0 1 1h8a.5.5 0 0 0 0-1H1V2l5 3h1l5-3v1h1V1a1 1 0 0 0-1-1zM7 4H6L1 1h11L7 4z"/>
</svg>