<svg xmlns="http://www.w3.org/2000/svg" viewBox="0 0 24 24">
  <path d="M18.897 11.863l.08 1.404 2.971-4.51v-.364h-2.443v.344c0 .022-.012.042-.017.064l1.47-.023a9.408 9.408 0 00-.67.94 85.416 85.416 0 01-1.391 2.145z"/>
  <path d="M15.592 13.08c-.271.69-.449 1.14-.532 1.347h-.02c-.28-.625-.676-1.545-1.19-2.756l-1.421-3.278H10.83v.449l.752-.032-.103 2.487.451 1.147c.018-.685.041-1.486.069-2.413l.011-.459c.279.752.563 1.469.855 2.146.292.679.703 1.606 1.231 2.783l.585 1.306h.313L17.348 10c.025-.077.054-.143.078-.198.022-.056.041-.101.057-.136l.271 4.448c.006.069.01.171.01.304 0 .319-.048.555-.145.705-.099.15-.283.229-.555.234v.346h2.338v-.461l-.762.032a7.13 7.13 0 00-.021-.65l-.271-4.75-.013-.208c0-.341.058-.583.177-.726.122-.143.305-.21.556-.203v-.343h-1.544a101.35 101.35 0 01-1.025 2.484c-.341.8-.645 1.535-.907 2.202zM4.694 8.737v-.344H2v.459l.647-.022c.055.292.244.687.563 1.181l1.817 2.872-.011 1.19v.324c0 .319-.042.557-.129.709-.088.153-.28.236-.58.25v.346h2.454v-.461l-.867.041c.021-.18.031-.454.031-.823a17.586 17.586 0 01-.006-.804c.004-.384.009-.745.017-1.087l1.316-2.484c.256-.474.496-.81.715-1.013.22-.203.493-.314.819-.334v-.344h-2.13v.459l.824-.033c-.13.147-.298.411-.5.795l-.218.406c-.501.941-.874 1.65-1.118 2.13h-.02a29.445 29.445 0 01-1.159-1.764l-.325-.512c-.174-.27-.26-.498-.26-.678 0-.305.271-.459.814-.459zM21.201 14.835c-.296.287-.688.433-1.175.44l-.188.003v.425h2.1L22 13.561h-.354c0 .565-.149.991-.445 1.274zM12.398 15.283a1.985 1.985 0 00-.073-.536 4.938 4.938 0 00-.199-.612l-2.33-5.941h-.25l-2.15 5.859-.105.293c-.09.257-.17.449-.235.58.001.002.005.002.007.004.085.08.134.194.134.314v.459h1.139v-.461l-.816.043c.105-.252.193-.491.263-.722.138-.458.261-.829.365-1.116l2.715-.063.366.98c.068.195.105.358.105.491 0 .328-.206.496-.616.501v.346h2.39v-.461l-.71.042zm-4.095-2.285l.178-.512.563-1.587.438-1.18h.021l.471 1.285.742 1.995H8.303z"/>
</svg>
