<svg version="1.1" xmlns="http://www.w3.org/2000/svg" viewBox="0 0 801.2653639316559 552.6954345703125" width="801" height="553">
  <defs>
    <style class="style-fonts">
      @font-face {
        font-family: "Virgil";
        src: url("https://excalidraw.com/Virgil.woff2");
      }
      @font-face {
        font-family: "Cascadia";
        src: url("https://excalidraw.com/Cascadia.woff2");
      }
      @font-face {
        font-family: "Assistant";
        src: url("https://excalidraw.com/Assistant-Regular.woff2");
      }
    </style>
  </defs>
  <g transform="translate(92.234130859375 10) rotate(0 39.871986389160156 17.5)"><text x="0" y="24.668" font-family="Excalifont, Segoe UI Emoji" font-size="28px" fill="currentColor" text-anchor="start" style="white-space: pre;" direction="ltr" dominant-baseline="alphabetic">Event</text></g><g transform="translate(52.984130859375 48.10546875) rotate(0 81.04792022705078 10)"><text x="0" y="14.096" font-family="Excalifont, Segoe UI Emoji" font-size="16px" fill="currentColor" text-anchor="start" style="white-space: pre;" direction="ltr" dominant-baseline="alphabetic">(e.g. push to branch)</text></g><g stroke-linecap="round" transform="translate(10 201.4678955078125) rotate(0 131.603515625 149.65234375)"><path d="M32 0 C75.54 -2.13, 117.63 0.89, 231.21 0 M32 0 C100.53 -0.56, 170.64 -1.08, 231.21 0 M231.21 0 C253.67 1.15, 264.55 9.97, 263.21 32 M231.21 0 C253.17 -0.51, 264.61 10.35, 263.21 32 M263.21 32 C262.67 124.85, 264.8 214.03, 263.21 267.3 M263.21 32 C262.92 97.46, 262.59 161.87, 263.21 267.3 M263.21 267.3 C262.09 289.29, 252.58 299.22, 231.21 299.3 M263.21 267.3 C262.84 288.42, 251.5 298.29, 231.21 299.3 M231.21 299.3 C163.43 298.9, 94.62 299.63, 32 299.3 M231.21 299.3 C171.6 297.15, 112.61 296.7, 32 299.3 M32 299.3 C10.27 298.53, -1.36 289.05, 0 267.3 M32 299.3 C8.85 301.51, -2.08 286.77, 0 267.3 M0 267.3 C-1.06 197.22, 0.18 128.1, 0 32 M0 267.3 C-1.7 217.15, -1.23 168.22, 0 32 M0 32 C1.96 10.69, 8.91 -1.16, 32 0 M0 32 C-1.52 8.87, 10.21 0.22, 32 0" stroke="currentColor" stroke-width="2" fill="none"></path></g><g transform="translate(26.984375 211.0030517578125) rotate(0 59.44995880126953 12.5)"><text x="0" y="17.619999999999997" font-family="Excalifont, Segoe UI Emoji" font-size="20px" fill="currentColor" text-anchor="start" style="white-space: pre;" direction="ltr" dominant-baseline="alphabetic">workflow.yml</text></g><g stroke-linecap="round"><g transform="translate(157.3515625 202.5811767578125) rotate(0 0 20.51251220703125)"><path d="M-0.05 0.24 C-0.09 7, 0.05 34.11, 0 40.96 M-0.73 -0.11 C-0.87 6.7, -0.68 34.87, -0.42 41.62" stroke="currentColor" stroke-width="1" fill="none"></path></g></g><mask></mask><g stroke-linecap="round"><g transform="translate(156.42578125 244.3468017578125) rotate(0 -72.958984375 0)"><path d="M-0.11 1.17 C-24.21 1.2, -120.87 0.82, -145.15 0.81 M-1.62 0.73 C-25.78 0.38, -121.54 -0.65, -145.69 -0.89" stroke="currentColor" stroke-width="1" fill="none"></path></g></g><mask></mask><g transform="translate(23.109375 259.707763671875) rotate(0 120.86078453063965 112.5)"><text x="0" y="17.619999999999997" font-family="Excalifont, Segoe UI Emoji" font-size="20px" fill="currentColor" text-anchor="start" style="white-space: pre;" direction="ltr" dominant-baseline="alphabetic">jobs:</text><text x="0" y="42.62" font-family="Excalifont, Segoe UI Emoji" font-size="20px" fill="currentColor" text-anchor="start" style="white-space: pre;" direction="ltr" dominant-baseline="alphabetic">  my_job_1:</text><text x="0" y="67.62" font-family="Excalifont, Segoe UI Emoji" font-size="20px" fill="currentColor" text-anchor="start" style="white-space: pre;" direction="ltr" dominant-baseline="alphabetic">    steps:</text><text x="0" y="92.62" font-family="Excalifont, Segoe UI Emoji" font-size="20px" fill="currentColor" text-anchor="start" style="white-space: pre;" direction="ltr" dominant-baseline="alphabetic">      - uses: foo/bar@v1</text><text x="0" y="117.62" font-family="Excalifont, Segoe UI Emoji" font-size="20px" fill="currentColor" text-anchor="start" style="white-space: pre;" direction="ltr" dominant-baseline="alphabetic">      - uses: bar/baz@v1</text><text x="0" y="142.62" font-family="Excalifont, Segoe UI Emoji" font-size="20px" fill="currentColor" text-anchor="start" style="white-space: pre;" direction="ltr" dominant-baseline="alphabetic">  </text><text x="0" y="167.62" font-family="Excalifont, Segoe UI Emoji" font-size="20px" fill="currentColor" text-anchor="start" style="white-space: pre;" direction="ltr" dominant-baseline="alphabetic">  my_job_2:</text><text x="0" y="192.62" font-family="Excalifont, Segoe UI Emoji" font-size="20px" fill="currentColor" text-anchor="start" style="white-space: pre;" direction="ltr" dominant-baseline="alphabetic">    steps:</text><text x="0" y="217.62" font-family="Excalifont, Segoe UI Emoji" font-size="20px" fill="currentColor" text-anchor="start" style="white-space: pre;" direction="ltr" dominant-baseline="alphabetic">      - uses: ...</text></g><g transform="translate(766.14453125 100.4415283203125) rotate(0 -22.814453125 54.294921875)" stroke="none"><path fill="currentColor" d="M 0.26,1.74 Q 0.26,1.74 -1.34,2.03 -2.95,2.31 -4.29,2.50 -5.64,2.68 -8.33,2.75 -11.02,2.83 -14.46,2.95 -17.89,3.07 -21.13,3.22 -24.38,3.36 -26.52,3.40 -28.65,3.45 -30.91,3.46 -33.17,3.47 -35.34,3.46 -37.52,3.46 -39.15,3.55 -40.77,3.64 -42.41,3.70 -44.04,3.77 -46.11,3.95 -48.17,4.13 -49.64,4.27 -51.12,4.40 -50.70,5.52 -50.29,6.64 -50.44,8.01 -50.59,9.38 -50.66,11.18 -50.73,12.97 -50.60,15.63 -50.47,18.28 -50.01,21.40 -49.55,24.52 -49.02,28.12 -48.48,31.71 -48.18,33.84 -47.88,35.97 -47.41,38.97 -46.94,41.97 -46.49,45.03 -46.04,48.09 -45.65,50.92 -45.26,53.76 -44.99,55.32 -44.73,56.89 -44.69,59.32 -44.65,61.75 -44.61,63.70 -44.56,65.66 -44.58,68.02 -44.60,70.38 -44.53,72.09 -44.47,73.79 -44.28,75.20 -44.10,76.60 -43.96,77.74 -43.82,78.88 -43.72,79.98 -43.62,81.07 -43.47,82.30 -43.32,83.53 -43.01,85.18 -42.71,86.83 -42.58,88.68 -42.46,90.54 -42.37,91.72 -42.29,92.91 -42.28,95.03 -42.28,97.15 -42.27,98.24 -42.25,99.32 -42.19,100.64 -42.13,101.96 -42.06,103.48 -41.99,105.01 -39.62,104.66 -37.26,104.31 -34.18,104.30 -31.11,104.29 -28.88,104.35 -26.65,104.40 -24.06,104.47 -21.47,104.54 -19.04,104.60 -16.60,104.67 -14.97,104.61 -13.34,104.56 -12.17,104.55 -11.00,104.55 -9.93,104.46 -8.87,104.38 -7.45,104.36 -6.02,104.35 -4.27,104.54 -2.51,104.72 -0.39,104.85 1.72,104.97 2.81,104.97 3.90,104.96 5.25,105.18 6.60,105.40 5.61,106.05 4.63,106.70 4.67,104.68 4.70,102.66 4.77,100.25 4.84,97.84 4.89,95.95 4.95,94.06 4.68,90.25 4.40,86.44 4.23,84.05 4.06,81.65 3.92,78.80 3.78,75.95 3.62,72.44 3.47,68.93 3.43,64.12 3.39,59.32 3.39,56.55 3.39,53.78 3.40,50.43 3.41,47.08 3.42,44.84 3.44,42.59 3.44,40.49 3.45,38.40 3.34,37.01 3.23,35.62 3.13,34.43 3.03,33.24 2.77,30.70 2.52,28.16 2.36,27.01 2.20,25.85 2.02,23.83 1.85,21.82 1.63,20.17 1.41,18.53 1.31,17.28 1.21,16.03 1.14,14.84 1.07,13.65 0.86,12.10 0.65,10.54 0.42,9.48 0.19,8.42 0.06,7.33 -0.07,6.23 -0.29,5.18 -0.51,4.14 -1.38,2.99 -2.25,1.84 -2.48,1.44 -2.72,1.03 -2.81,0.57 -2.91,0.11 -2.85,-0.35 -2.79,-0.82 -2.58,-1.24 -2.38,-1.67 -2.05,-2.01 -1.72,-2.34 -1.30,-2.56 -0.88,-2.77 -0.41,-2.84 0.04,-2.91 0.51,-2.82 0.97,-2.74 1.38,-2.51 1.80,-2.28 2.11,-1.94 2.43,-1.59 2.62,-1.16 2.81,-0.73 2.86,-0.26 2.90,0.20 2.79,0.66 2.68,1.12 2.43,1.52 2.18,1.92 1.82,2.22 1.46,2.52 1.01,2.68 0.57,2.85 0.10,2.87 -0.36,2.89 -0.81,2.75 -1.26,2.62 -1.65,2.35 -2.03,2.08 -2.31,1.70 -2.59,1.32 -2.73,0.87 -2.88,0.42 -2.87,-0.04 -2.86,-0.51 -2.70,-0.96 -2.55,-1.40 -2.25,-1.77 -1.96,-2.14 -1.57,-2.40 -1.17,-2.66 -0.72,-2.78 -0.26,-2.90 0.20,-2.86 0.67,-2.83 1.10,-2.65 1.54,-2.47 1.89,-2.15 2.25,-1.84 2.25,-1.84 2.25,-1.84 4.11,0.36 5.98,2.58 6.22,4.21 6.46,5.85 6.57,6.95 6.68,8.05 6.75,9.19 6.81,10.33 6.84,11.98 6.87,13.64 6.81,14.81 6.75,15.98 6.69,17.13 6.63,18.28 6.66,20.01 6.68,21.74 6.63,23.61 6.59,25.47 6.64,26.76 6.69,28.05 6.68,29.46 6.67,30.87 6.68,32.05 6.68,33.24 6.58,34.43 6.48,35.62 6.38,37.00 6.27,38.39 6.28,40.49 6.29,42.58 6.32,44.82 6.35,47.07 6.40,50.40 6.44,53.73 6.52,56.49 6.61,59.25 6.76,63.98 6.90,68.71 7.20,72.17 7.50,75.63 7.84,78.38 8.18,81.14 8.61,83.51 9.05,85.89 9.69,89.83 10.33,93.77 10.60,95.81 10.87,97.85 10.93,100.27 10.98,102.70 11.00,104.82 11.01,106.94 10.70,108.13 10.39,109.33 9.55,110.25 8.70,111.17 7.49,111.40 6.29,111.63 4.97,111.16 3.64,110.69 2.41,110.55 1.18,110.41 0.09,110.29 -0.98,110.17 -2.11,110.07 -3.24,109.97 -4.89,109.63 -6.54,109.29 -8.28,109.02 -10.02,108.75 -11.67,108.48 -13.32,108.20 -14.95,108.16 -16.58,108.12 -19.00,108.21 -21.43,108.31 -23.97,108.44 -26.50,108.58 -28.66,108.79 -30.82,109.00 -33.86,109.37 -36.90,109.73 -39.09,110.09 -41.27,110.46 -43.01,110.54 -44.74,110.63 -46.08,109.57 -47.42,108.52 -47.79,106.76 -48.17,105.01 -48.10,103.48 -48.02,101.96 -47.96,100.64 -47.90,99.32 -47.89,98.24 -47.88,97.15 -47.87,95.04 -47.87,92.93 -47.80,91.76 -47.73,90.60 -47.67,88.87 -47.61,87.14 -47.67,85.52 -47.72,83.90 -47.73,81.47 -47.73,79.04 -47.68,77.95 -47.64,76.86 -47.67,75.33 -47.70,73.80 -47.64,72.10 -47.58,70.40 -47.63,68.05 -47.68,65.71 -47.70,63.77 -47.71,61.84 -47.83,59.55 -47.94,57.25 -48.02,55.71 -48.11,54.17 -48.54,51.36 -48.98,48.55 -49.48,45.52 -49.99,42.49 -50.55,39.50 -51.11,36.52 -51.53,34.41 -51.95,32.31 -52.64,28.76 -53.33,25.21 -54.03,21.97 -54.73,18.72 -55.16,15.92 -55.59,13.11 -55.77,10.97 -55.95,8.82 -55.82,7.54 -55.69,6.27 -55.30,4.19 -54.91,2.12 -54.21,1.24 -53.50,0.36 -52.31,0.05 -51.12,-0.26 -49.64,-0.13 -48.17,0.00 -46.11,0.18 -44.05,0.36 -42.42,0.42 -40.79,0.48 -39.16,0.55 -37.54,0.63 -35.38,0.59 -33.22,0.56 -30.99,0.50 -28.77,0.44 -26.67,0.32 -24.57,0.20 -21.32,-0.03 -18.08,-0.27 -14.66,-0.53 -11.24,-0.79 -8.60,-1.04 -5.96,-1.29 -4.73,-1.31 -3.50,-1.33 -1.88,-1.54 -0.26,-1.74 -0.05,-1.74 0.16,-1.75 0.36,-1.71 0.57,-1.66 0.76,-1.57 0.95,-1.48 1.12,-1.34 1.28,-1.20 1.41,-1.03 1.53,-0.86 1.61,-0.66 1.69,-0.47 1.73,-0.26 1.76,-0.05 1.74,0.15 1.72,0.37 1.65,0.57 1.58,0.77 1.46,0.95 1.35,1.12 1.19,1.27 1.04,1.42 0.85,1.52 0.67,1.62 0.46,1.68 0.26,1.74 0.26,1.74 L 0.26,1.74 Z"></path></g><g transform="translate(754.30859375 121.2305908203125) rotate(0 -13.642578125 1.537109375)" stroke="none"><path fill="currentColor" d="M 0.33,2.62 Q 0.33,2.62 -0.93,2.79 -2.21,2.96 -3.74,3.32 -5.28,3.67 -7.37,4.05 -9.47,4.43 -11.22,4.65 -12.97,4.87 -14.49,4.95 -16.01,5.03 -17.76,5.33 -19.52,5.63 -20.75,5.84 -21.99,6.06 -24.64,6.23 -27.28,6.40 -27.81,6.31 -28.34,6.22 -28.82,5.97 -29.29,5.72 -29.66,5.33 -30.03,4.94 -30.26,4.45 -30.49,3.96 -30.55,3.43 -30.60,2.89 -30.49,2.36 -30.37,1.84 -30.10,1.38 -29.82,0.92 -29.41,0.57 -29.00,0.22 -28.50,0.02 -28.00,-0.17 -27.46,-0.20 -26.92,-0.23 -26.40,-0.09 -25.88,0.05 -25.44,0.35 -24.99,0.65 -24.67,1.08 -24.34,1.51 -24.17,2.02 -24.00,2.53 -24.00,3.07 -23.99,3.61 -24.17,4.12 -24.34,4.63 -24.66,5.06 -24.99,5.48 -25.44,5.79 -25.88,6.09 -26.40,6.23 -26.92,6.38 -27.46,6.35 -27.99,6.32 -28.49,6.12 -29.00,5.92 -29.41,5.57 -29.82,5.23 -30.09,4.76 -30.37,4.30 -30.49,3.78 -30.60,3.25 -30.55,2.72 -30.49,2.18 -30.26,1.69 -30.04,1.20 -29.67,0.81 -29.30,0.42 -28.82,0.17 -28.34,-0.08 -27.81,-0.16 -27.28,-0.25 -27.28,-0.25 -27.28,-0.25 -25.83,-0.28 -24.37,-0.31 -22.82,-0.37 -21.27,-0.43 -19.60,-0.65 -17.94,-0.87 -16.40,-0.94 -14.86,-1.00 -13.51,-1.01 -12.16,-1.03 -10.26,-1.20 -8.36,-1.37 -7.28,-1.60 -6.20,-1.83 -4.54,-2.07 -2.89,-2.30 -1.61,-2.46 -0.33,-2.62 -0.01,-2.63 0.30,-2.63 0.61,-2.55 0.92,-2.48 1.20,-2.33 1.49,-2.19 1.73,-1.98 1.97,-1.77 2.15,-1.50 2.33,-1.24 2.45,-0.94 2.56,-0.65 2.61,-0.33 2.65,-0.01 2.61,0.29 2.57,0.61 2.46,0.91 2.35,1.21 2.17,1.48 1.99,1.74 1.75,1.95 1.52,2.17 1.23,2.32 0.95,2.47 0.64,2.55 0.33,2.62 0.33,2.62 L 0.33,2.62 Z"></path></g><g transform="translate(757.04296875 134.6290283203125) rotate(0 -13.29296875 1.8359375)" stroke="none"><path fill="currentColor" d="M 0.59,2.60 Q 0.59,2.60 -0.42,2.85 -1.45,3.11 -2.87,3.46 -4.30,3.80 -6.20,4.21 -8.11,4.62 -9.81,4.91 -11.52,5.19 -12.66,5.38 -13.80,5.58 -15.07,5.81 -16.33,6.05 -17.67,6.24 -19.01,6.43 -20.05,6.63 -21.10,6.83 -23.84,6.92 -26.58,7.01 -27.12,6.93 -27.65,6.84 -28.13,6.58 -28.61,6.33 -28.98,5.94 -29.35,5.54 -29.58,5.05 -29.81,4.56 -29.86,4.02 -29.92,3.49 -29.81,2.96 -29.69,2.43 -29.41,1.96 -29.13,1.50 -28.72,1.15 -28.31,0.80 -27.80,0.60 -27.30,0.40 -26.76,0.37 -26.22,0.34 -25.70,0.48 -25.18,0.63 -24.73,0.93 -24.28,1.24 -23.95,1.67 -23.62,2.10 -23.45,2.61 -23.28,3.13 -23.28,3.67 -23.28,4.21 -23.45,4.72 -23.62,5.23 -23.95,5.67 -24.28,6.10 -24.73,6.40 -25.18,6.70 -25.70,6.85 -26.22,6.99 -26.76,6.96 -27.30,6.94 -27.80,6.73 -28.31,6.53 -28.72,6.18 -29.13,5.83 -29.41,5.37 -29.69,4.90 -29.81,4.38 -29.92,3.85 -29.86,3.31 -29.81,2.77 -29.58,2.28 -29.35,1.79 -28.98,1.40 -28.61,1.00 -28.13,0.75 -27.65,0.50 -27.11,0.41 -26.58,0.32 -26.58,0.32 -26.58,0.32 -23.95,0.32 -21.31,0.31 -19.79,0.09 -18.26,-0.13 -17.03,-0.26 -15.79,-0.39 -14.66,-0.49 -13.54,-0.58 -12.18,-0.71 -10.82,-0.83 -9.02,-1.11 -7.23,-1.40 -6.14,-1.63 -5.05,-1.86 -3.85,-2.02 -2.66,-2.17 -1.62,-2.39 -0.59,-2.60 -0.27,-2.63 0.04,-2.66 0.36,-2.62 0.68,-2.57 0.98,-2.45 1.28,-2.34 1.54,-2.15 1.80,-1.96 2.01,-1.72 2.22,-1.47 2.36,-1.18 2.51,-0.90 2.58,-0.58 2.65,-0.27 2.64,0.04 2.64,0.36 2.56,0.67 2.47,0.98 2.32,1.27 2.16,1.55 1.95,1.79 1.73,2.02 1.46,2.20 1.19,2.38 0.89,2.49 0.59,2.60 0.59,2.60 L 0.59,2.60 Z"></path></g><g transform="translate(759.0078125 152.3673095703125) rotate(0 -14.359375 1.19921875)" stroke="none"><path fill="currentColor" d="M 0.23,2.66 Q 0.23,2.66 -0.68,2.78 -1.60,2.89 -3.16,3.18 -4.72,3.47 -5.96,3.72 -7.21,3.98 -9.07,4.16 -10.93,4.34 -12.27,4.52 -13.61,4.70 -14.84,4.79 -16.06,4.88 -17.16,4.92 -18.25,4.97 -19.45,5.01 -20.65,5.05 -21.83,5.10 -23.02,5.15 -25.07,5.37 -27.12,5.59 -27.67,5.76 -28.22,5.93 -28.80,5.91 -29.37,5.90 -29.92,5.70 -30.46,5.51 -30.91,5.15 -31.36,4.79 -31.67,4.30 -31.99,3.82 -32.13,3.26 -32.27,2.70 -32.23,2.12 -32.18,1.54 -31.95,1.01 -31.73,0.48 -31.34,0.05 -30.96,-0.37 -30.46,-0.66 -29.96,-0.94 -29.39,-1.05 -28.82,-1.16 -28.25,-1.09 -27.68,-1.01 -27.16,-0.76 -26.64,-0.50 -26.23,-0.10 -25.82,0.30 -25.56,0.82 -25.31,1.33 -25.23,1.91 -25.15,2.48 -25.25,3.05 -25.36,3.61 -25.64,4.12 -25.92,4.62 -26.35,5.01 -26.78,5.39 -27.31,5.62 -27.84,5.85 -28.42,5.90 -28.99,5.95 -29.55,5.81 -30.11,5.68 -30.60,5.37 -31.09,5.06 -31.45,4.61 -31.81,4.16 -32.02,3.62 -32.22,3.08 -32.23,2.50 -32.25,1.92 -32.08,1.37 -31.92,0.82 -31.58,0.35 -31.25,-0.11 -30.78,-0.45 -30.31,-0.79 -30.31,-0.79 -30.31,-0.79 -28.88,-0.98 -27.45,-1.18 -25.90,-1.51 -24.34,-1.84 -23.24,-1.81 -22.14,-1.77 -20.92,-1.72 -19.71,-1.67 -18.35,-1.62 -16.99,-1.57 -15.51,-1.53 -14.04,-1.49 -12.64,-1.59 -11.25,-1.70 -9.59,-1.80 -7.94,-1.91 -6.78,-2.04 -5.63,-2.17 -3.86,-2.37 -2.08,-2.56 -1.16,-2.61 -0.23,-2.66 0.08,-2.65 0.40,-2.64 0.71,-2.55 1.02,-2.47 1.30,-2.31 1.59,-2.15 1.82,-1.93 2.05,-1.70 2.23,-1.43 2.40,-1.16 2.51,-0.86 2.61,-0.55 2.64,-0.23 2.67,0.08 2.62,0.40 2.57,0.72 2.45,1.02 2.32,1.31 2.13,1.57 1.94,1.83 1.69,2.04 1.44,2.25 1.15,2.39 0.86,2.53 0.55,2.59 0.23,2.66 0.23,2.66 L 0.23,2.66 Z"></path></g><g transform="translate(749.9453125 179.0391845703125) rotate(0 -2.8828125 5.61328125)" stroke="none"><path fill="currentColor" d="M -0.37,2.63 Q -0.37,2.63 -1.46,2.49 -2.55,2.36 -3.64,2.48 -4.72,2.60 -5.85,3.17 -6.98,3.75 -6.71,5.14 -6.44,6.53 -5.37,7.26 -4.30,7.98 -2.75,8.15 -1.21,8.32 -0.07,8.04 1.05,7.75 0.73,6.61 0.42,5.47 -0.88,3.83 -2.18,2.18 -2.47,1.78 -2.77,1.37 -2.91,0.89 -3.06,0.41 -3.05,-0.08 -3.03,-0.58 -2.86,-1.05 -2.69,-1.52 -2.37,-1.91 -2.06,-2.30 -1.64,-2.57 -1.22,-2.84 -0.73,-2.96 -0.25,-3.08 0.24,-3.04 0.74,-3.00 1.20,-2.80 1.66,-2.60 2.03,-2.27 2.41,-1.93 2.65,-1.50 2.90,-1.06 2.99,-0.57 3.09,-0.08 3.02,0.41 2.95,0.90 2.73,1.35 2.51,1.80 2.15,2.15 1.80,2.51 1.35,2.73 0.90,2.95 0.41,3.02 -0.08,3.09 -0.57,2.99 -1.06,2.90 -1.50,2.65 -1.93,2.41 -2.27,2.03 -2.60,1.66 -2.80,1.20 -3.00,0.74 -3.04,0.24 -3.08,-0.25 -2.96,-0.73 -2.84,-1.22 -2.57,-1.64 -2.30,-2.06 -1.91,-2.37 -1.52,-2.69 -1.05,-2.86 -0.58,-3.03 -0.08,-3.05 0.41,-3.06 0.89,-2.91 1.37,-2.77 1.78,-2.47 2.18,-2.18 2.18,-2.18 2.18,-2.18 3.95,-0.76 5.72,0.65 6.54,2.28 7.36,3.92 7.58,5.25 7.79,6.58 7.76,7.78 7.72,8.98 7.22,10.46 6.71,11.95 5.57,12.88 4.44,13.82 3.08,14.29 1.72,14.75 0.09,14.92 -1.54,15.09 -3.38,14.90 -5.22,14.71 -6.28,14.38 -7.33,14.05 -8.87,13.04 -10.40,12.04 -11.22,10.94 -12.04,9.84 -12.57,8.28 -13.10,6.73 -13.13,5.52 -13.16,4.31 -12.84,2.85 -12.51,1.39 -11.16,-0.13 -9.80,-1.66 -8.54,-2.22 -7.27,-2.79 -5.69,-3.05 -4.10,-3.32 -2.95,-3.15 -1.79,-2.98 -0.71,-2.80 0.37,-2.63 0.68,-2.54 0.99,-2.46 1.27,-2.31 1.55,-2.15 1.79,-1.93 2.02,-1.72 2.20,-1.45 2.37,-1.18 2.48,-0.88 2.59,-0.58 2.62,-0.26 2.65,0.05 2.61,0.37 2.56,0.68 2.44,0.98 2.32,1.28 2.14,1.54 1.95,1.80 1.70,2.01 1.46,2.21 1.17,2.36 0.89,2.50 0.57,2.57 0.26,2.64 -0.05,2.63 -0.37,2.63 -0.37,2.63 L -0.37,2.63 Z"></path></g><g transform="translate(715.06640625 222.6290283203125) rotate(0 33.489973306655884 12.5)"><text x="0" y="17.619999999999997" font-family="Excalifont, Segoe UI Emoji" font-size="20px" fill="currentColor" text-anchor="start" style="white-space: pre;" direction="ltr" dominant-baseline="alphabetic">Runner</text></g><g stroke-linecap="round" transform="translate(420.5390625 97.6407470703125) rotate(0 139.267578125 88.47265625)"><path d="M32 0 C110.28 -1.08, 187.27 -1.1, 246.54 0 M32 0 C108.49 -2.17, 184.94 -0.88, 246.54 0 M246.54 0 C266.2 1.8, 279.05 12.31, 278.54 32 M246.54 0 C267.28 1.73, 280.71 11.67, 278.54 32 M278.54 32 C278.75 67.85, 278.94 106.5, 278.54 144.95 M278.54 32 C276.91 69.49, 277.3 105.52, 278.54 144.95 M278.54 144.95 C279 168.01, 268.3 178.54, 246.54 176.95 M278.54 144.95 C276.69 164.99, 268.54 178.47, 246.54 176.95 M246.54 176.95 C172.87 179.18, 99.45 178.83, 32 176.95 M246.54 176.95 C178.28 177.94, 111.37 177.9, 32 176.95 M32 176.95 C12.14 177.18, 0.4 165.83, 0 144.95 M32 176.95 C12.47 175.35, 2.18 166.61, 0 144.95 M0 144.95 C-0.18 113.8, 0.1 83.89, 0 32 M0 144.95 C-0.33 119.15, -0.37 93.84, 0 32 M0 32 C0.45 10.34, 11.36 -1.98, 32 0 M0 32 C0.94 9.51, 10.17 -0.67, 32 0" stroke="currentColor" stroke-width="1" fill="none"></path></g><g transform="translate(775.3635423183441 395.5079345703125) rotate(0 -22.814453125 54.294921875)" stroke="none"><path fill="currentColor" d="M 0.26,1.74 Q 0.26,1.74 -1.34,2.03 -2.95,2.31 -4.29,2.50 -5.64,2.68 -8.33,2.75 -11.02,2.83 -14.46,2.95 -17.89,3.07 -21.13,3.22 -24.38,3.36 -26.52,3.40 -28.65,3.45 -30.91,3.46 -33.17,3.47 -35.34,3.46 -37.52,3.46 -39.15,3.55 -40.77,3.64 -42.41,3.70 -44.04,3.77 -46.11,3.95 -48.17,4.13 -49.64,4.27 -51.12,4.40 -50.70,5.52 -50.29,6.64 -50.44,8.01 -50.59,9.38 -50.66,11.18 -50.73,12.97 -50.60,15.63 -50.47,18.28 -50.01,21.40 -49.55,24.52 -49.02,28.12 -48.48,31.71 -48.18,33.84 -47.88,35.97 -47.41,38.97 -46.94,41.97 -46.49,45.03 -46.04,48.09 -45.65,50.92 -45.26,53.76 -44.99,55.32 -44.73,56.89 -44.69,59.32 -44.65,61.75 -44.61,63.70 -44.56,65.66 -44.58,68.02 -44.60,70.38 -44.53,72.09 -44.47,73.79 -44.28,75.20 -44.10,76.60 -43.96,77.74 -43.82,78.88 -43.72,79.98 -43.62,81.07 -43.47,82.30 -43.32,83.53 -43.01,85.18 -42.71,86.83 -42.58,88.68 -42.46,90.54 -42.37,91.72 -42.29,92.91 -42.28,95.03 -42.28,97.15 -42.27,98.24 -42.25,99.32 -42.19,100.64 -42.13,101.96 -42.06,103.48 -41.99,105.01 -39.62,104.66 -37.26,104.31 -34.18,104.30 -31.11,104.29 -28.88,104.35 -26.65,104.40 -24.06,104.47 -21.47,104.54 -19.04,104.60 -16.60,104.67 -14.97,104.61 -13.34,104.56 -12.17,104.55 -11.00,104.55 -9.93,104.46 -8.87,104.38 -7.45,104.36 -6.02,104.35 -4.27,104.54 -2.51,104.72 -0.39,104.85 1.72,104.97 2.81,104.97 3.90,104.96 5.25,105.18 6.60,105.40 5.61,106.05 4.63,106.70 4.67,104.68 4.70,102.66 4.77,100.25 4.84,97.84 4.89,95.95 4.95,94.06 4.68,90.25 4.40,86.44 4.23,84.05 4.06,81.65 3.92,78.80 3.78,75.95 3.62,72.44 3.47,68.93 3.43,64.12 3.39,59.32 3.39,56.55 3.39,53.78 3.40,50.43 3.41,47.08 3.42,44.84 3.44,42.59 3.44,40.49 3.45,38.40 3.34,37.01 3.23,35.62 3.13,34.43 3.03,33.24 2.77,30.70 2.52,28.16 2.36,27.01 2.20,25.85 2.02,23.83 1.85,21.82 1.63,20.17 1.41,18.53 1.31,17.28 1.21,16.03 1.14,14.84 1.07,13.65 0.86,12.10 0.65,10.54 0.42,9.48 0.19,8.42 0.06,7.33 -0.07,6.23 -0.72,4.85 -1.36,3.48 -1.63,3.02 -1.89,2.56 -2.00,2.05 -2.10,1.53 -2.04,1.00 -1.97,0.48 -1.74,0.00 -1.51,-0.46 -1.14,-0.84 -0.77,-1.22 -0.30,-1.46 0.16,-1.70 0.68,-1.78 1.21,-1.85 1.73,-1.76 2.25,-1.67 2.71,-1.41 3.17,-1.15 3.53,-0.76 3.89,-0.38 4.10,0.10 4.32,0.58 4.36,1.11 4.41,1.63 4.29,2.15 4.17,2.66 3.89,3.11 3.61,3.56 3.20,3.90 2.79,4.23 2.30,4.42 1.80,4.61 1.27,4.63 0.75,4.65 0.24,4.50 -0.26,4.35 -0.69,4.04 -1.12,3.74 -1.44,3.31 -1.75,2.89 -1.91,2.38 -2.07,1.88 -2.06,1.35 -2.05,0.82 -1.88,0.32 -1.70,-0.16 -1.37,-0.58 -1.04,-1.00 -0.60,-1.28 -0.16,-1.57 0.34,-1.71 0.85,-1.84 1.38,-1.80 1.91,-1.77 2.40,-1.56 2.88,-1.36 3.28,-1.01 3.68,-0.66 3.68,-0.66 3.68,-0.66 5.07,2.59 6.46,5.85 6.57,6.95 6.68,8.05 6.75,9.19 6.81,10.33 6.84,11.98 6.87,13.64 6.81,14.81 6.75,15.98 6.69,17.13 6.63,18.28 6.66,20.01 6.68,21.74 6.63,23.61 6.59,25.47 6.64,26.76 6.69,28.05 6.68,29.46 6.67,30.87 6.68,32.05 6.68,33.24 6.58,34.43 6.48,35.62 6.38,37.00 6.27,38.39 6.28,40.49 6.29,42.58 6.32,44.82 6.35,47.07 6.40,50.40 6.44,53.73 6.52,56.49 6.61,59.25 6.76,63.98 6.90,68.71 7.20,72.17 7.50,75.63 7.84,78.38 8.18,81.14 8.61,83.51 9.05,85.89 9.69,89.83 10.33,93.77 10.60,95.81 10.87,97.85 10.93,100.27 10.98,102.70 11.00,104.82 11.01,106.94 10.70,108.13 10.39,109.33 9.55,110.25 8.70,111.17 7.49,111.40 6.29,111.63 4.97,111.16 3.64,110.69 2.41,110.55 1.18,110.41 0.09,110.29 -0.98,110.17 -2.11,110.07 -3.24,109.97 -4.89,109.63 -6.54,109.29 -8.28,109.02 -10.02,108.75 -11.67,108.48 -13.32,108.20 -14.95,108.16 -16.58,108.12 -19.00,108.21 -21.43,108.31 -23.97,108.44 -26.50,108.58 -28.66,108.79 -30.82,109.00 -33.86,109.37 -36.90,109.73 -39.09,110.09 -41.27,110.46 -43.01,110.54 -44.74,110.63 -46.08,109.57 -47.42,108.52 -47.79,106.76 -48.17,105.01 -48.10,103.48 -48.02,101.96 -47.96,100.64 -47.90,99.32 -47.89,98.24 -47.88,97.15 -47.87,95.04 -47.87,92.93 -47.80,91.76 -47.73,90.60 -47.67,88.87 -47.61,87.14 -47.67,85.52 -47.72,83.90 -47.73,81.47 -47.73,79.04 -47.68,77.95 -47.64,76.86 -47.67,75.33 -47.70,73.80 -47.64,72.10 -47.58,70.40 -47.63,68.05 -47.68,65.71 -47.70,63.77 -47.71,61.84 -47.83,59.55 -47.94,57.25 -48.02,55.71 -48.11,54.17 -48.54,51.36 -48.98,48.55 -49.48,45.52 -49.99,42.49 -50.55,39.50 -51.11,36.52 -51.53,34.41 -51.95,32.31 -52.64,28.76 -53.33,25.21 -54.03,21.97 -54.73,18.72 -55.16,15.92 -55.59,13.11 -55.77,10.97 -55.95,8.82 -55.82,7.54 -55.69,6.27 -55.30,4.19 -54.91,2.12 -54.21,1.24 -53.50,0.36 -52.31,0.05 -51.12,-0.26 -49.64,-0.13 -48.17,0.00 -46.11,0.18 -44.05,0.36 -42.42,0.42 -40.79,0.48 -39.16,0.55 -37.54,0.63 -35.38,0.59 -33.22,0.56 -30.99,0.50 -28.77,0.44 -26.67,0.32 -24.57,0.20 -21.32,-0.03 -18.08,-0.27 -14.66,-0.53 -11.24,-0.79 -8.60,-1.04 -5.96,-1.29 -4.73,-1.31 -3.50,-1.33 -1.88,-1.54 -0.26,-1.74 -0.05,-1.74 0.16,-1.75 0.36,-1.71 0.57,-1.66 0.76,-1.57 0.95,-1.48 1.12,-1.34 1.28,-1.20 1.41,-1.03 1.53,-0.86 1.61,-0.66 1.69,-0.47 1.73,-0.26 1.76,-0.05 1.74,0.15 1.72,0.37 1.65,0.57 1.58,0.77 1.46,0.95 1.35,1.12 1.19,1.27 1.04,1.42 0.85,1.52 0.67,1.62 0.46,1.68 0.26,1.74 0.26,1.74 L 0.26,1.74 Z"></path></g><g transform="translate(763.5276048183441 416.2969970703125) rotate(0 -13.642578125 1.537109375)" stroke="none"><path fill="currentColor" d="M 0.33,2.62 Q 0.33,2.62 -0.93,2.79 -2.21,2.96 -3.74,3.32 -5.28,3.67 -7.37,4.05 -9.47,4.43 -11.22,4.65 -12.97,4.87 -14.49,4.95 -16.01,5.03 -17.76,5.33 -19.52,5.63 -20.75,5.84 -21.99,6.06 -24.60,6.22 -27.20,6.39 -27.73,6.31 -28.26,6.22 -28.74,5.97 -29.21,5.72 -29.58,5.33 -29.95,4.94 -30.18,4.45 -30.40,3.96 -30.46,3.43 -30.52,2.89 -30.41,2.37 -30.29,1.84 -30.01,1.38 -29.74,0.92 -29.33,0.57 -28.92,0.22 -28.42,0.02 -27.92,-0.17 -27.38,-0.20 -26.84,-0.23 -26.32,-0.08 -25.81,0.05 -25.36,0.35 -24.92,0.65 -24.59,1.08 -24.26,1.51 -24.09,2.02 -23.92,2.53 -23.92,3.07 -23.92,3.61 -24.09,4.12 -24.26,4.63 -24.59,5.05 -24.91,5.48 -25.36,5.78 -25.80,6.09 -26.32,6.23 -26.84,6.37 -27.38,6.35 -27.91,6.32 -28.41,6.12 -28.91,5.92 -29.32,5.57 -29.73,5.22 -30.01,4.76 -30.29,4.30 -30.40,3.78 -30.52,3.25 -30.46,2.72 -30.40,2.18 -30.18,1.69 -29.95,1.20 -29.58,0.81 -29.21,0.42 -28.74,0.17 -28.26,-0.07 -27.73,-0.16 -27.20,-0.25 -27.20,-0.25 -27.20,-0.25 -25.79,-0.28 -24.37,-0.31 -22.82,-0.37 -21.27,-0.43 -19.60,-0.65 -17.94,-0.87 -16.40,-0.94 -14.86,-1.00 -13.51,-1.01 -12.16,-1.03 -10.26,-1.20 -8.36,-1.37 -7.28,-1.60 -6.20,-1.83 -4.54,-2.07 -2.89,-2.30 -1.61,-2.46 -0.33,-2.62 -0.01,-2.63 0.30,-2.63 0.61,-2.55 0.92,-2.48 1.20,-2.33 1.49,-2.19 1.73,-1.98 1.97,-1.77 2.15,-1.50 2.33,-1.24 2.45,-0.94 2.56,-0.65 2.61,-0.33 2.65,-0.01 2.61,0.29 2.57,0.61 2.46,0.91 2.35,1.21 2.17,1.48 1.99,1.74 1.75,1.95 1.52,2.17 1.23,2.32 0.95,2.47 0.64,2.55 0.33,2.62 0.33,2.62 L 0.33,2.62 Z"></path></g><g transform="translate(766.2619798183441 429.6954345703125) rotate(0 -13.29296875 1.8359375)" stroke="none"><path fill="currentColor" d="M 0.59,2.60 Q 0.59,2.60 -0.42,2.85 -1.45,3.11 -2.87,3.46 -4.30,3.80 -6.20,4.21 -8.11,4.62 -9.81,4.91 -11.52,5.19 -12.66,5.38 -13.80,5.58 -15.07,5.81 -16.33,6.05 -17.67,6.24 -19.01,6.43 -20.05,6.63 -21.10,6.83 -23.80,6.92 -26.49,7.01 -27.03,6.92 -27.56,6.83 -28.04,6.58 -28.51,6.33 -28.89,5.94 -29.26,5.54 -29.49,5.05 -29.71,4.56 -29.77,4.02 -29.83,3.49 -29.71,2.96 -29.60,2.43 -29.32,1.97 -29.04,1.50 -28.63,1.15 -28.21,0.80 -27.71,0.60 -27.21,0.40 -26.67,0.37 -26.13,0.34 -25.61,0.49 -25.09,0.63 -24.64,0.94 -24.19,1.24 -23.87,1.67 -23.54,2.10 -23.37,2.61 -23.19,3.13 -23.19,3.67 -23.19,4.21 -23.37,4.72 -23.54,5.23 -23.87,5.66 -24.19,6.09 -24.64,6.40 -25.09,6.70 -25.61,6.85 -26.13,6.99 -26.67,6.96 -27.21,6.93 -27.71,6.73 -28.22,6.53 -28.63,6.18 -29.04,5.83 -29.32,5.37 -29.60,4.90 -29.71,4.38 -29.83,3.85 -29.77,3.31 -29.71,2.77 -29.48,2.28 -29.26,1.79 -28.89,1.40 -28.51,1.01 -28.04,0.75 -27.56,0.50 -27.02,0.41 -26.49,0.32 -26.49,0.32 -26.49,0.32 -23.90,0.32 -21.31,0.31 -19.79,0.09 -18.26,-0.13 -17.03,-0.26 -15.79,-0.39 -14.66,-0.49 -13.54,-0.58 -12.18,-0.71 -10.82,-0.83 -9.02,-1.11 -7.23,-1.40 -6.14,-1.63 -5.05,-1.86 -3.85,-2.02 -2.66,-2.17 -1.62,-2.39 -0.59,-2.60 -0.27,-2.63 0.04,-2.66 0.36,-2.62 0.68,-2.57 0.98,-2.45 1.28,-2.34 1.54,-2.15 1.80,-1.96 2.01,-1.72 2.22,-1.47 2.36,-1.18 2.51,-0.90 2.58,-0.58 2.65,-0.27 2.64,0.04 2.64,0.36 2.56,0.67 2.47,0.98 2.32,1.27 2.16,1.55 1.95,1.79 1.73,2.02 1.46,2.20 1.19,2.38 0.89,2.49 0.59,2.60 0.59,2.60 L 0.59,2.60 Z"></path></g><g transform="translate(768.2268235683441 447.4337158203125) rotate(0 -14.359375 1.19921875)" stroke="none"><path fill="currentColor" d="M 0.23,2.66 Q 0.23,2.66 -0.68,2.78 -1.60,2.89 -3.16,3.18 -4.72,3.47 -5.96,3.72 -7.21,3.98 -9.07,4.16 -10.93,4.34 -12.27,4.52 -13.61,4.70 -14.84,4.79 -16.06,4.88 -17.16,4.92 -18.25,4.97 -19.45,5.01 -20.65,5.05 -21.83,5.10 -23.02,5.15 -25.02,5.34 -27.03,5.53 -27.58,5.70 -28.13,5.87 -28.70,5.86 -29.28,5.84 -29.82,5.65 -30.36,5.45 -30.81,5.09 -31.26,4.73 -31.57,4.25 -31.88,3.76 -32.02,3.21 -32.17,2.65 -32.12,2.07 -32.08,1.50 -31.85,0.97 -31.63,0.44 -31.24,0.01 -30.86,-0.41 -30.36,-0.69 -29.86,-0.98 -29.29,-1.09 -28.73,-1.20 -28.16,-1.13 -27.59,-1.05 -27.07,-0.80 -26.55,-0.54 -26.14,-0.14 -25.74,0.26 -25.48,0.77 -25.22,1.29 -25.14,1.86 -25.06,2.43 -25.17,3.00 -25.27,3.56 -25.56,4.06 -25.84,4.57 -26.27,4.95 -26.69,5.34 -27.22,5.57 -27.75,5.80 -28.32,5.85 -28.90,5.89 -29.46,5.76 -30.01,5.62 -30.50,5.31 -30.99,5.00 -31.35,4.56 -31.71,4.11 -31.91,3.57 -32.11,3.03 -32.13,2.45 -32.15,1.88 -31.98,1.33 -31.81,0.78 -31.48,0.31 -31.14,-0.15 -30.68,-0.49 -30.21,-0.83 -30.21,-0.83 -30.21,-0.83 -28.83,-1.00 -27.45,-1.18 -25.90,-1.51 -24.34,-1.84 -23.24,-1.81 -22.14,-1.77 -20.92,-1.72 -19.71,-1.67 -18.35,-1.62 -16.99,-1.57 -15.51,-1.53 -14.04,-1.49 -12.64,-1.59 -11.25,-1.70 -9.59,-1.80 -7.94,-1.91 -6.78,-2.04 -5.63,-2.17 -3.86,-2.37 -2.08,-2.56 -1.16,-2.61 -0.23,-2.66 0.08,-2.65 0.40,-2.64 0.71,-2.55 1.02,-2.47 1.30,-2.31 1.59,-2.15 1.82,-1.93 2.05,-1.70 2.23,-1.43 2.40,-1.16 2.51,-0.86 2.61,-0.55 2.64,-0.23 2.67,0.08 2.62,0.40 2.57,0.72 2.45,1.02 2.32,1.31 2.13,1.57 1.94,1.83 1.69,2.04 1.44,2.25 1.15,2.39 0.86,2.53 0.55,2.59 0.23,2.66 0.23,2.66 L 0.23,2.66 Z"></path></g><g transform="translate(759.1643235683441 474.1055908203125) rotate(0 -2.8828125 5.61328125)" stroke="none"><path fill="currentColor" d="M -0.37,2.63 Q -0.37,2.63 -1.46,2.49 -2.55,2.36 -3.64,2.48 -4.72,2.60 -5.85,3.17 -6.98,3.75 -6.71,5.14 -6.44,6.53 -5.37,7.26 -4.30,7.98 -2.75,8.15 -1.21,8.32 -0.07,8.04 1.05,7.75 0.73,6.61 0.42,5.47 -0.33,4.62 -1.08,3.78 -1.40,3.32 -1.73,2.87 -1.89,2.34 -2.06,1.81 -2.04,1.25 -2.03,0.69 -1.84,0.17 -1.64,-0.34 -1.29,-0.77 -0.95,-1.21 -0.48,-1.51 -0.01,-1.81 0.52,-1.94 1.06,-2.08 1.62,-2.03 2.17,-1.99 2.69,-1.77 3.20,-1.55 3.61,-1.18 4.03,-0.80 4.30,-0.32 4.57,0.16 4.68,0.70 4.78,1.25 4.71,1.80 4.63,2.35 4.39,2.85 4.14,3.35 3.75,3.74 3.35,4.14 2.85,4.39 2.35,4.63 1.80,4.71 1.25,4.78 0.70,4.68 0.16,4.57 -0.32,4.30 -0.80,4.03 -1.17,3.61 -1.55,3.20 -1.77,2.69 -1.99,2.17 -2.03,1.62 -2.08,1.06 -1.94,0.52 -1.81,-0.01 -1.51,-0.48 -1.21,-0.95 -0.77,-1.29 -0.34,-1.64 0.17,-1.84 0.69,-2.03 1.25,-2.04 1.81,-2.06 2.34,-1.89 2.87,-1.73 3.33,-1.41 3.78,-1.08 3.78,-1.08 3.78,-1.08 5.57,1.42 7.36,3.92 7.58,5.25 7.79,6.58 7.76,7.78 7.72,8.98 7.22,10.46 6.71,11.95 5.57,12.88 4.44,13.82 3.08,14.29 1.72,14.75 0.09,14.92 -1.54,15.09 -3.38,14.90 -5.22,14.71 -6.28,14.38 -7.33,14.05 -8.87,13.04 -10.40,12.04 -11.22,10.94 -12.04,9.84 -12.57,8.28 -13.10,6.73 -13.13,5.52 -13.16,4.31 -12.84,2.85 -12.51,1.39 -11.16,-0.13 -9.80,-1.66 -8.54,-2.22 -7.27,-2.79 -5.69,-3.05 -4.10,-3.32 -2.95,-3.15 -1.79,-2.98 -0.71,-2.80 0.37,-2.63 0.68,-2.54 0.99,-2.46 1.27,-2.31 1.55,-2.15 1.79,-1.93 2.02,-1.72 2.20,-1.45 2.37,-1.18 2.48,-0.88 2.59,-0.58 2.62,-0.26 2.65,0.05 2.61,0.37 2.56,0.68 2.44,0.98 2.32,1.28 2.14,1.54 1.95,1.80 1.70,2.01 1.46,2.21 1.17,2.36 0.89,2.50 0.57,2.57 0.26,2.64 -0.05,2.63 -0.37,2.63 -0.37,2.63 L -0.37,2.63 Z"></path></g><g transform="translate(724.2854173183441 517.6954345703125) rotate(0 33.489973306655884 12.5)"><text x="0" y="17.619999999999997" font-family="Excalifont, Segoe UI Emoji" font-size="20px" fill="currentColor" text-anchor="start" style="white-space: pre;" direction="ltr" dominant-baseline="alphabetic">Runner</text></g><g stroke-linecap="round" transform="translate(426.572265625 392.9766845703125) rotate(0 139.267578125 58.2890625)"><path d="M29.14 0 C113.68 -1.49, 198.6 -0.16, 249.39 0 M29.14 0 C79.14 1.32, 129.29 1.16, 249.39 0 M249.39 0 C269.23 0.67, 279.56 8.09, 278.54 29.14 M249.39 0 C267.95 -2.06, 280.47 11.46, 278.54 29.14 M278.54 29.14 C277.38 41.66, 278.83 54.44, 278.54 87.43 M278.54 29.14 C277.72 45.71, 278 61.68, 278.54 87.43 M278.54 87.43 C279.65 104.92, 269.89 116.86, 249.39 116.58 M278.54 87.43 C277.37 107.82, 269.03 116.8, 249.39 116.58 M249.39 116.58 C194.19 115.51, 139.93 116.5, 29.14 116.58 M249.39 116.58 C186.25 116.04, 123.81 114.84, 29.14 116.58 M29.14 116.58 C8.47 115.8, 1.76 105.04, 0 87.43 M29.14 116.58 C10.3 116.81, -2.16 106.58, 0 87.43 M0 87.43 C-1.12 69.49, 1.7 53.42, 0 29.14 M0 87.43 C-0.86 68.03, -0.62 48.63, 0 29.14 M0 29.14 C-0.91 8.01, 9.91 -1.81, 29.14 0 M0 29.14 C-1.64 7.5, 7.79 1.42, 29.14 0" stroke="currentColor" stroke-width="1" fill="none"></path></g><g transform="translate(439.03515625 115.5665283203125) rotate(0 107.52991485595703 75)"><text x="0" y="17.619999999999997" font-family="Excalifont, Segoe UI Emoji" font-size="20px" fill="currentColor" text-anchor="start" style="white-space: pre;" direction="ltr" dominant-baseline="alphabetic">Executing foo/bar@v1</text><text x="0" y="42.62" font-family="Excalifont, Segoe UI Emoji" font-size="20px" fill="currentColor" text-anchor="start" style="white-space: pre;" direction="ltr" dominant-baseline="alphabetic">  ...</text><text x="0" y="67.62" font-family="Excalifont, Segoe UI Emoji" font-size="20px" fill="currentColor" text-anchor="start" style="white-space: pre;" direction="ltr" dominant-baseline="alphabetic">  ...</text><text x="0" y="92.62" font-family="Excalifont, Segoe UI Emoji" font-size="20px" fill="currentColor" text-anchor="start" style="white-space: pre;" direction="ltr" dominant-baseline="alphabetic">Executing bar/baz@v1</text><text x="0" y="117.62" font-family="Excalifont, Segoe UI Emoji" font-size="20px" fill="currentColor" text-anchor="start" style="white-space: pre;" direction="ltr" dominant-baseline="alphabetic">  ...</text><text x="0" y="142.62" font-family="Excalifont, Segoe UI Emoji" font-size="20px" fill="currentColor" text-anchor="start" style="white-space: pre;" direction="ltr" dominant-baseline="alphabetic">  ...</text></g><g transform="translate(443.39196014404297 407.688720703125) rotate(0 59.90995788574219 37.5)"><text x="0" y="17.619999999999997" font-family="Excalifont, Segoe UI Emoji" font-size="20px" fill="currentColor" text-anchor="start" style="white-space: pre;" direction="ltr" dominant-baseline="alphabetic">Executing ...</text><text x="0" y="42.62" font-family="Excalifont, Segoe UI Emoji" font-size="20px" fill="currentColor" text-anchor="start" style="white-space: pre;" direction="ltr" dominant-baseline="alphabetic">  ...</text><text x="0" y="67.62" font-family="Excalifont, Segoe UI Emoji" font-size="20px" fill="currentColor" text-anchor="start" style="white-space: pre;" direction="ltr" dominant-baseline="alphabetic">  ...</text></g><g transform="translate(428.515625 63.2677001953125) rotate(0 44.42997741699219 12.5)"><text x="0" y="17.619999999999997" font-family="Excalifont, Segoe UI Emoji" font-size="20px" fill="currentColor" text-anchor="start" style="white-space: pre;" direction="ltr" dominant-baseline="alphabetic">my_job_1</text></g><g transform="translate(433.21875 364.2169189453125) rotate(0 47.36998134851456 12.5)"><text x="0" y="17.619999999999997" font-family="Excalifont, Segoe UI Emoji" font-size="20px" fill="currentColor" text-anchor="start" style="white-space: pre;" direction="ltr" dominant-baseline="alphabetic">my_job_2</text></g><g transform="translate(284.2890625 285.6231689453125) rotate(0 10.529296875 52.28515625)" stroke="none"><path fill="#868e96" d="M 0.71,-2.50 Q 0.71,-2.50 1.86,-2.19 3.02,-1.88 4.23,-1.53 5.43,-1.18 6.42,-0.50 7.41,0.18 8.22,1.01 9.02,1.84 9.81,2.80 10.60,3.77 11.68,5.33 12.76,6.90 13.50,8.26 14.25,9.61 14.79,10.95 15.34,12.29 15.57,13.34 15.80,14.39 16.06,16.24 16.31,18.10 16.38,19.39 16.45,20.67 16.37,22.18 16.29,23.68 16.01,25.08 15.73,26.48 15.48,27.71 15.23,28.94 14.95,30.15 14.67,31.35 14.54,32.70 14.41,34.05 14.28,35.30 14.15,36.55 14.13,37.80 14.12,39.05 14.63,40.28 15.13,41.51 16.12,42.46 17.10,43.41 18.03,44.02 18.97,44.63 20.00,45.21 21.03,45.80 22.61,46.85 24.19,47.90 24.53,48.95 24.87,50.01 24.62,51.26 24.38,52.51 23.70,53.35 23.03,54.19 22.02,55.07 21.02,55.96 20.10,56.80 19.19,57.65 18.55,58.51 17.92,59.36 17.30,60.48 16.67,61.60 16.29,62.88 15.90,64.16 15.86,65.51 15.81,66.85 15.80,68.06 15.78,69.27 15.94,70.48 16.10,71.70 16.24,72.83 16.39,73.96 16.54,75.18 16.69,76.41 16.80,77.72 16.90,79.03 17.14,81.06 17.39,83.09 17.49,84.44 17.60,85.79 17.89,87.50 18.18,89.21 18.25,90.59 18.31,91.97 18.48,93.76 18.64,95.54 18.36,97.47 18.08,99.40 17.08,101.24 16.07,103.09 15.30,103.87 14.52,104.66 13.43,105.32 12.34,105.98 10.53,106.54 8.73,107.10 6.54,107.29 4.35,107.48 1.99,107.66 -0.35,107.85 -0.88,107.76 -1.40,107.68 -1.87,107.43 -2.34,107.19 -2.71,106.80 -3.08,106.42 -3.30,105.94 -3.53,105.45 -3.59,104.93 -3.64,104.40 -3.53,103.88 -3.42,103.36 -3.15,102.90 -2.88,102.45 -2.47,102.10 -2.07,101.76 -1.58,101.56 -1.08,101.36 -0.55,101.33 -0.02,101.30 0.48,101.44 0.99,101.58 1.43,101.88 1.87,102.17 2.20,102.60 2.52,103.02 2.69,103.52 2.86,104.02 2.86,104.55 2.87,105.09 2.70,105.59 2.53,106.09 2.21,106.52 1.89,106.94 1.45,107.24 1.01,107.54 0.50,107.68 -0.00,107.83 -0.53,107.80 -1.06,107.77 -1.56,107.58 -2.05,107.38 -2.46,107.04 -2.86,106.70 -3.14,106.24 -3.41,105.79 -3.53,105.27 -3.64,104.75 -3.59,104.23 -3.53,103.70 -3.31,103.21 -3.09,102.73 -2.73,102.34 -2.36,101.96 -1.89,101.71 -1.42,101.46 -0.90,101.37 -0.38,101.28 -0.38,101.28 -0.38,101.28 1.24,101.15 2.86,101.02 4.31,100.95 5.76,100.88 7.01,100.73 8.27,100.58 9.55,99.90 10.84,99.22 11.50,98.04 12.16,96.87 12.20,95.77 12.25,94.67 12.11,93.50 11.97,92.33 11.75,90.54 11.52,88.74 11.34,87.66 11.16,86.57 10.94,85.27 10.73,83.96 10.37,81.89 10.01,79.83 9.70,77.95 9.40,76.08 9.24,74.89 9.08,73.70 8.91,72.38 8.74,71.06 8.64,69.68 8.54,68.29 8.54,66.84 8.54,65.40 8.66,63.91 8.79,62.43 9.18,61.05 9.58,59.66 9.99,58.64 10.41,57.63 11.00,56.65 11.59,55.66 12.28,54.77 12.97,53.87 14.01,52.77 15.06,51.67 16.46,51.21 17.86,50.75 18.56,51.78 19.26,52.81 18.14,52.28 17.02,51.75 16.03,51.19 15.03,50.64 13.87,49.88 12.71,49.12 11.69,48.28 10.68,47.44 9.86,46.29 9.04,45.14 8.45,44.01 7.87,42.89 7.50,40.96 7.14,39.04 7.15,37.66 7.16,36.29 7.34,34.92 7.52,33.56 7.68,32.34 7.84,31.11 8.09,29.91 8.33,28.70 8.60,27.56 8.88,26.41 9.11,25.21 9.34,24.02 9.57,22.85 9.80,21.67 9.79,20.20 9.78,18.74 9.57,17.22 9.36,15.70 9.10,14.63 8.84,13.56 8.30,12.35 7.76,11.15 7.06,9.86 6.36,8.56 5.64,7.53 4.93,6.51 4.24,5.53 3.55,4.54 2.57,3.87 1.58,3.19 0.43,2.84 -0.71,2.50 -1.00,2.38 -1.29,2.26 -1.54,2.07 -1.79,1.88 -1.99,1.64 -2.19,1.40 -2.33,1.11 -2.46,0.83 -2.53,0.52 -2.59,0.22 -2.58,-0.09 -2.57,-0.40 -2.48,-0.70 -2.40,-1.00 -2.24,-1.28 -2.08,-1.55 -1.87,-1.78 -1.65,-2.00 -1.39,-2.17 -1.12,-2.34 -0.82,-2.44 -0.53,-2.54 -0.21,-2.57 0.09,-2.60 0.40,-2.55 0.71,-2.50 0.71,-2.50 L 0.71,-2.50 Z"></path></g><g transform="translate(301.80078125 335.0450439453125) rotate(0 56.091796875 -75.236328125)" stroke="none"><path fill="#868e96" d="M -0.12,-2.52 Q -0.12,-2.52 1.67,-2.53 3.47,-2.55 5.02,-2.66 6.57,-2.78 8.05,-2.92 9.53,-3.07 11.50,-3.34 13.48,-3.60 15.23,-4.11 16.98,-4.62 18.06,-5.21 19.13,-5.80 20.02,-6.70 20.90,-7.59 22.04,-8.69 23.17,-9.79 23.86,-10.68 24.55,-11.58 25.30,-12.72 26.05,-13.86 26.68,-14.82 27.31,-15.79 27.74,-16.79 28.17,-17.79 28.57,-19.16 28.98,-20.54 29.24,-21.75 29.49,-22.97 29.72,-24.79 29.95,-26.60 30.04,-28.32 30.13,-30.04 30.27,-32.71 30.42,-35.39 30.52,-37.59 30.62,-39.79 30.57,-42.65 30.53,-45.50 30.53,-47.96 30.53,-50.41 30.54,-52.60 30.56,-54.79 30.47,-56.32 30.37,-57.85 30.27,-60.65 30.16,-63.45 30.14,-65.15 30.12,-66.85 30.20,-69.67 30.28,-72.49 30.34,-74.76 30.40,-77.03 30.44,-78.64 30.47,-80.26 30.61,-82.14 30.76,-84.01 31.10,-86.60 31.44,-89.19 31.84,-91.18 32.24,-93.17 32.40,-94.37 32.55,-95.57 32.76,-96.82 32.97,-98.07 33.32,-99.38 33.66,-100.70 34.49,-102.90 35.31,-105.10 35.77,-106.55 36.22,-108.01 36.93,-109.63 37.63,-111.25 38.26,-112.74 38.90,-114.22 39.63,-115.59 40.36,-116.95 41.25,-118.24 42.14,-119.52 42.74,-120.44 43.34,-121.36 44.30,-122.48 45.27,-123.60 46.32,-124.70 47.37,-125.80 48.60,-127.00 49.82,-128.20 51.16,-129.33 52.50,-130.46 53.44,-131.20 54.37,-131.94 55.66,-132.75 56.96,-133.55 58.38,-134.27 59.80,-134.99 61.54,-135.66 63.28,-136.33 65.42,-136.94 67.57,-137.54 69.66,-138.15 71.76,-138.76 73.89,-139.30 76.03,-139.84 77.66,-140.25 79.29,-140.66 81.19,-141.25 83.09,-141.85 85.24,-142.26 87.39,-142.67 88.53,-142.83 89.66,-142.99 91.05,-143.14 92.44,-143.29 93.98,-143.58 95.52,-143.87 97.50,-144.14 99.49,-144.41 100.80,-144.78 102.12,-145.14 103.30,-145.46 104.49,-145.78 105.60,-146.06 106.71,-146.34 107.89,-146.67 109.07,-147.01 109.21,-145.19 109.34,-143.37 107.72,-143.45 106.10,-143.53 104.18,-144.15 102.25,-144.77 100.86,-145.26 99.47,-145.75 98.38,-146.03 97.28,-146.32 95.33,-148.20 93.37,-150.09 93.91,-148.80 94.45,-147.50 94.13,-147.76 93.80,-148.02 93.55,-148.35 93.30,-148.68 93.14,-149.06 92.97,-149.44 92.90,-149.85 92.84,-150.25 92.87,-150.67 92.90,-151.08 93.03,-151.47 93.15,-151.86 93.37,-152.21 93.59,-152.56 93.89,-152.85 94.18,-153.14 94.54,-153.35 94.90,-153.56 95.29,-153.68 95.69,-153.79 96.10,-153.81 96.52,-153.83 96.92,-153.75 97.33,-153.67 97.70,-153.50 98.08,-153.32 99.44,-152.67 100.80,-152.01 102.04,-151.56 103.29,-151.10 104.40,-150.75 105.52,-150.39 106.59,-150.13 107.66,-149.86 108.81,-149.31 109.96,-148.76 111.17,-148.19 112.39,-147.62 113.19,-146.45 114.00,-145.27 113.77,-144.02 113.54,-142.77 112.67,-141.51 111.81,-140.24 110.50,-139.59 109.20,-138.94 108.02,-138.30 106.84,-137.67 105.04,-136.79 103.24,-135.92 102.08,-135.27 100.91,-134.62 99.89,-133.91 98.87,-133.20 97.29,-132.06 95.70,-130.92 95.33,-130.50 94.95,-130.09 94.47,-129.81 93.98,-129.53 93.43,-129.43 92.88,-129.32 92.32,-129.40 91.76,-129.48 91.26,-129.73 90.76,-129.97 90.36,-130.37 89.97,-130.77 89.72,-131.27 89.47,-131.77 89.40,-132.33 89.32,-132.88 89.43,-133.44 89.53,-133.99 89.81,-134.47 90.08,-134.96 90.50,-135.34 90.92,-135.71 91.44,-135.93 91.95,-136.15 92.51,-136.20 93.07,-136.24 93.61,-136.11 94.16,-135.97 94.63,-135.67 95.10,-135.37 95.45,-134.93 95.80,-134.49 96.00,-133.96 96.19,-133.44 96.20,-132.88 96.22,-132.32 96.05,-131.78 95.89,-131.25 95.56,-130.79 95.23,-130.34 94.78,-130.01 94.32,-129.68 93.78,-129.52 93.25,-129.35 92.69,-129.37 92.13,-129.39 91.60,-129.58 91.08,-129.77 90.64,-130.12 90.20,-130.48 89.90,-130.95 89.60,-131.42 89.46,-131.97 89.33,-132.51 89.38,-133.07 89.42,-133.63 89.64,-134.14 89.87,-134.66 89.87,-134.66 89.87,-134.66 91.67,-136.23 93.47,-137.80 94.79,-138.78 96.12,-139.76 97.42,-140.53 98.72,-141.29 100.22,-142.17 101.73,-143.04 103.35,-143.98 104.97,-144.92 106.30,-144.98 107.62,-145.04 107.60,-143.57 107.59,-142.10 106.47,-142.69 105.36,-143.29 103.91,-143.72 102.45,-144.15 100.88,-144.66 99.30,-145.17 98.09,-145.71 96.88,-146.25 95.66,-146.88 94.45,-147.50 94.13,-147.76 93.80,-148.02 93.55,-148.35 93.30,-148.68 93.14,-149.06 92.97,-149.44 92.90,-149.84 92.84,-150.25 92.87,-150.66 92.90,-151.08 93.03,-151.47 93.15,-151.86 93.37,-152.21 93.59,-152.56 93.89,-152.85 94.18,-153.14 94.54,-153.35 94.90,-153.56 95.29,-153.68 95.69,-153.79 96.10,-153.81 96.52,-153.83 96.92,-153.75 97.33,-153.67 97.70,-153.50 98.08,-153.32 98.59,-151.96 99.11,-150.59 99.14,-151.66 99.16,-152.73 100.24,-152.40 101.32,-152.08 102.71,-151.57 104.10,-151.05 105.18,-150.76 106.25,-150.47 108.22,-149.82 110.20,-149.16 111.65,-148.56 113.09,-147.96 113.81,-147.01 114.52,-146.05 114.58,-144.89 114.64,-143.72 112.75,-142.24 110.86,-140.77 109.65,-140.48 108.44,-140.20 107.39,-140.00 106.34,-139.80 104.99,-139.57 103.64,-139.35 102.57,-139.12 101.51,-138.90 99.93,-138.83 98.35,-138.76 97.21,-138.71 96.08,-138.66 94.51,-138.54 92.93,-138.43 90.54,-138.26 88.15,-138.08 86.71,-137.87 85.26,-137.65 83.71,-137.54 82.16,-137.44 81.11,-137.29 80.05,-137.14 78.51,-136.86 76.96,-136.59 74.95,-135.94 72.94,-135.28 70.91,-134.50 68.88,-133.71 66.96,-132.92 65.03,-132.12 63.49,-131.43 61.96,-130.75 60.69,-130.11 59.43,-129.47 57.44,-128.25 55.45,-127.04 54.27,-126.01 53.10,-124.98 51.94,-123.75 50.79,-122.53 49.78,-121.49 48.77,-120.44 47.91,-119.53 47.06,-118.62 46.37,-117.79 45.68,-116.95 44.87,-115.89 44.05,-114.83 43.35,-113.70 42.65,-112.57 41.98,-111.10 41.31,-109.63 40.65,-108.16 39.99,-106.69 39.46,-105.31 38.93,-103.93 38.32,-101.68 37.70,-99.43 37.28,-98.30 36.85,-97.17 36.50,-95.98 36.14,-94.80 35.80,-93.66 35.45,-92.53 35.08,-90.68 34.71,-88.84 34.49,-86.29 34.28,-83.75 34.14,-81.89 34.00,-80.04 33.84,-78.53 33.67,-77.03 33.73,-74.76 33.79,-72.49 33.88,-69.67 33.96,-66.85 33.94,-65.15 33.92,-63.45 33.83,-60.66 33.73,-57.87 33.65,-56.34 33.58,-54.82 33.63,-52.65 33.69,-50.48 33.79,-48.05 33.89,-45.63 34.07,-42.70 34.25,-39.78 34.33,-37.57 34.42,-35.36 34.52,-32.63 34.62,-29.91 34.61,-28.12 34.60,-26.33 34.59,-24.10 34.58,-21.87 34.28,-20.54 33.98,-19.21 33.55,-17.41 33.11,-15.61 32.46,-14.18 31.82,-12.76 31.20,-11.88 30.59,-11.01 29.75,-9.61 28.90,-8.21 28.05,-7.12 27.20,-6.03 25.44,-4.15 23.68,-2.28 22.09,-1.25 20.51,-0.22 18.44,0.40 16.38,1.02 15.22,1.23 14.05,1.44 12.02,1.52 9.98,1.60 8.47,1.75 6.96,1.89 5.33,2.04 3.71,2.20 1.91,2.36 0.12,2.52 -0.17,2.49 -0.48,2.47 -0.77,2.38 -1.06,2.28 -1.31,2.12 -1.57,1.96 -1.79,1.75 -2.00,1.53 -2.15,1.27 -2.31,1.01 -2.40,0.71 -2.48,0.42 -2.50,0.12 -2.51,-0.18 -2.45,-0.47 -2.40,-0.77 -2.27,-1.05 -2.14,-1.32 -1.95,-1.56 -1.76,-1.80 -1.52,-1.98 -1.28,-2.17 -1.00,-2.29 -0.72,-2.41 -0.42,-2.46 -0.12,-2.52 -0.12,-2.52 L -0.12,-2.52 Z"></path></g><g transform="translate(281.1796875 412.1778564453125) rotate(0 12.6875 39.17578125)" stroke="none"><path fill="#868e96" d="M -0.19,-2.65 Q -0.19,-2.65 1.04,-2.75 2.27,-2.85 3.44,-2.90 4.62,-2.96 6.22,-2.96 7.83,-2.95 9.52,-2.50 11.21,-2.05 12.18,-1.52 13.16,-0.99 14.68,0.14 16.20,1.27 17.21,2.48 18.22,3.70 18.80,4.73 19.39,5.77 19.82,7.70 20.26,9.63 20.33,10.77 20.41,11.91 20.46,13.53 20.51,15.14 20.54,16.52 20.57,17.90 20.35,19.49 20.13,21.08 19.84,22.15 19.55,23.23 19.02,24.60 18.48,25.97 18.17,27.54 17.86,29.11 17.86,30.46 17.86,31.81 17.88,33.25 17.89,34.70 18.63,35.48 19.37,36.26 20.75,36.98 22.14,37.69 23.25,37.95 24.35,38.21 25.47,38.20 26.59,38.19 28.57,39.77 30.54,41.35 30.41,42.58 30.29,43.80 29.29,44.77 28.29,45.75 27.03,46.35 25.77,46.96 24.87,47.92 23.97,48.88 23.27,50.00 22.57,51.11 22.16,52.10 21.75,53.08 21.74,54.17 21.74,55.26 22.15,56.38 22.56,57.50 23.03,58.98 23.50,60.46 23.82,62.01 24.14,63.56 24.18,65.03 24.22,66.50 23.96,68.24 23.69,69.99 23.38,71.44 23.07,72.89 22.75,74.52 22.43,76.14 21.85,77.19 21.26,78.24 20.25,79.11 19.24,79.97 18.20,80.47 17.16,80.96 15.58,81.32 13.99,81.68 12.60,81.80 11.22,81.93 9.87,81.95 8.52,81.98 6.51,81.99 4.49,82.00 3.25,81.88 2.00,81.76 -1.23,81.07 -4.46,80.38 -4.82,79.98 -5.17,79.58 -5.38,79.08 -5.59,78.59 -5.63,78.05 -5.67,77.52 -5.54,77.00 -5.41,76.48 -5.11,76.03 -4.82,75.58 -4.40,75.25 -3.98,74.92 -3.48,74.73 -2.97,74.55 -2.44,74.54 -1.90,74.53 -1.39,74.69 -0.88,74.85 -0.44,75.17 -0.01,75.48 0.29,75.92 0.60,76.36 0.75,76.87 0.91,77.39 0.89,77.92 0.87,78.46 0.68,78.96 0.49,79.46 0.15,79.88 -0.17,80.29 -0.63,80.58 -1.08,80.86 -1.60,80.99 -2.12,81.12 -2.66,81.07 -3.19,81.02 -3.68,80.81 -4.17,80.59 -4.57,80.23 -4.97,79.87 -5.23,79.40 -5.49,78.93 -5.59,78.41 -5.68,77.88 -5.61,77.35 -5.53,76.82 -5.29,76.34 -5.05,75.86 -4.67,75.48 -4.28,75.11 -3.80,74.87 -3.32,74.64 -2.79,74.57 -2.26,74.50 -1.73,74.60 -1.21,74.71 -0.74,74.98 -0.28,75.24 -0.28,75.24 -0.28,75.24 2.06,75.26 4.41,75.28 6.28,75.21 8.16,75.14 9.25,75.03 10.34,74.93 12.30,74.58 14.27,74.23 15.00,73.18 15.73,72.13 16.03,70.71 16.33,69.28 16.59,67.91 16.85,66.55 16.84,65.25 16.84,63.95 16.44,62.46 16.04,60.98 15.63,59.91 15.22,58.85 14.85,57.40 14.49,55.94 14.52,54.83 14.56,53.72 14.74,52.27 14.92,50.83 15.35,49.78 15.78,48.74 16.50,47.41 17.21,46.09 17.84,45.11 18.47,44.12 19.29,43.15 20.12,42.17 21.36,41.36 22.59,40.54 23.85,39.89 25.12,39.25 24.86,40.85 24.59,42.45 24.90,43.87 25.21,45.28 23.87,45.16 22.54,45.04 21.07,44.61 19.60,44.18 17.53,43.22 15.46,42.27 14.39,41.38 13.32,40.48 12.62,39.46 11.93,38.43 11.40,36.57 10.86,34.71 10.88,33.22 10.90,31.73 10.97,30.45 11.03,29.18 11.23,28.01 11.42,26.85 11.75,25.32 12.08,23.79 12.60,22.51 13.12,21.22 13.48,20.06 13.84,18.90 13.92,17.73 14.01,16.57 14.02,15.30 14.02,14.03 13.95,12.37 13.87,10.71 13.43,8.96 13.00,7.21 12.11,6.13 11.23,5.04 10.23,4.29 9.23,3.53 8.18,3.12 7.13,2.71 5.96,2.58 4.80,2.46 3.73,2.47 2.65,2.49 1.42,2.57 0.19,2.65 -0.12,2.64 -0.45,2.62 -0.75,2.53 -1.06,2.44 -1.34,2.27 -1.61,2.11 -1.84,1.89 -2.07,1.66 -2.24,1.39 -2.41,1.12 -2.51,0.81 -2.61,0.50 -2.63,0.18 -2.66,-0.13 -2.60,-0.44 -2.55,-0.76 -2.42,-1.05 -2.29,-1.35 -2.10,-1.60 -1.90,-1.86 -1.65,-2.06 -1.40,-2.26 -1.11,-2.39 -0.82,-2.53 -0.50,-2.59 -0.19,-2.65 -0.19,-2.65 L -0.19,-2.65 Z"></path></g><g transform="translate(300.26171875 455.9708251953125) rotate(0 54.322265625 1.982421875)" stroke="none"><path fill="#868e96" d="M -0.55,-2.54 Q -0.55,-2.54 0.55,-2.80 1.66,-3.07 3.04,-3.28 4.42,-3.50 5.80,-3.60 7.18,-3.70 8.52,-3.74 9.86,-3.78 11.94,-3.85 14.02,-3.93 16.01,-3.89 18.01,-3.84 19.54,-3.76 21.07,-3.67 22.58,-3.66 24.10,-3.64 25.33,-3.67 26.56,-3.70 28.11,-3.72 29.67,-3.73 31.71,-3.72 33.76,-3.70 34.96,-3.61 36.15,-3.51 38.63,-3.32 41.11,-3.13 42.27,-3.07 43.43,-3.02 45.43,-2.92 47.42,-2.83 49.00,-2.81 50.59,-2.79 53.51,-2.38 56.43,-1.97 58.26,-1.79 60.10,-1.61 61.82,-1.52 63.54,-1.44 64.98,-1.43 66.42,-1.42 68.04,-1.52 69.66,-1.61 70.89,-1.80 72.12,-1.99 73.40,-2.21 74.68,-2.43 75.80,-2.53 76.91,-2.62 78.07,-2.78 79.23,-2.95 80.31,-3.01 81.39,-3.07 82.47,-3.23 83.56,-3.40 84.70,-3.44 85.84,-3.47 86.96,-3.64 88.08,-3.81 89.31,-3.95 90.53,-4.10 92.12,-4.11 93.70,-4.13 95.00,-4.01 96.30,-3.90 97.56,-3.78 98.81,-3.67 99.88,-3.54 100.94,-3.41 102.41,-3.31 103.88,-3.20 105.06,-3.17 106.24,-3.14 105.08,-1.51 103.91,0.11 104.03,1.18 104.15,2.25 102.85,1.26 101.56,0.26 100.52,-0.53 99.48,-1.34 98.23,-2.14 96.98,-2.94 95.76,-3.59 94.54,-4.25 93.33,-4.47 92.11,-4.70 91.90,-4.65 91.68,-4.60 91.26,-4.67 90.83,-4.74 90.44,-4.91 90.04,-5.08 89.70,-5.34 89.36,-5.60 89.09,-5.93 88.82,-6.26 88.63,-6.65 88.45,-7.04 88.36,-7.46 88.28,-7.88 88.30,-8.31 88.32,-8.74 88.44,-9.16 88.56,-9.57 88.77,-9.94 88.99,-10.31 89.29,-10.62 89.59,-10.93 89.95,-11.16 90.31,-11.39 90.72,-11.53 91.13,-11.66 91.56,-11.69 91.99,-11.73 93.11,-11.28 94.22,-10.82 95.70,-9.60 97.17,-8.38 98.11,-7.64 99.04,-6.89 99.93,-6.11 100.81,-5.33 102.20,-4.12 103.58,-2.90 104.68,-1.93 105.78,-0.96 106.77,-0.34 107.76,0.26 108.39,0.34 109.02,0.42 109.42,0.55 109.81,0.67 110.17,0.89 110.53,1.11 110.82,1.40 111.11,1.70 111.33,2.06 111.54,2.41 111.67,2.81 111.79,3.21 111.81,3.63 111.84,4.04 111.76,4.45 111.68,4.86 111.51,5.24 111.34,5.62 111.08,5.95 110.82,6.27 110.49,6.53 110.17,6.79 109.78,6.96 109.40,7.13 108.99,7.20 108.58,7.27 108.17,7.25 107.75,7.22 106.47,8.11 105.18,9.00 103.61,9.74 102.04,10.48 100.85,11.03 99.67,11.58 98.54,12.27 97.40,12.95 96.28,13.84 95.16,14.72 94.69,15.03 94.21,15.33 93.67,15.47 93.12,15.60 92.56,15.56 92.00,15.51 91.48,15.29 90.96,15.07 90.54,14.69 90.12,14.32 89.84,13.82 89.57,13.33 89.46,12.78 89.35,12.23 89.43,11.67 89.51,11.11 89.76,10.61 90.01,10.10 90.40,9.70 90.80,9.30 91.31,9.05 91.81,8.80 92.37,8.73 92.93,8.65 93.48,8.76 94.03,8.86 94.52,9.14 95.02,9.42 95.39,9.84 95.77,10.25 95.99,10.77 96.21,11.29 96.26,11.85 96.31,12.41 96.17,12.96 96.03,13.51 95.73,13.98 95.43,14.46 94.99,14.81 94.55,15.16 94.02,15.36 93.49,15.55 92.93,15.57 92.37,15.58 91.83,15.42 91.29,15.25 90.83,14.92 90.37,14.60 90.04,14.14 89.72,13.68 89.55,13.14 89.38,12.60 89.40,12.04 89.41,11.48 89.61,10.95 89.80,10.42 90.16,9.98 90.51,9.54 90.51,9.54 90.51,9.54 92.46,8.12 94.41,6.70 95.68,6.03 96.95,5.35 98.04,4.87 99.12,4.39 100.68,3.61 102.24,2.84 103.30,2.31 104.35,1.78 105.53,1.27 106.70,0.75 107.86,0.59 109.02,0.42 109.42,0.55 109.81,0.67 110.17,0.89 110.53,1.11 110.82,1.40 111.11,1.70 111.33,2.06 111.54,2.41 111.67,2.81 111.79,3.21 111.81,3.63 111.84,4.04 111.76,4.45 111.68,4.86 111.51,5.24 111.34,5.62 111.08,5.95 110.82,6.27 110.49,6.53 110.17,6.79 109.79,6.96 109.40,7.13 108.99,7.20 108.58,7.27 108.17,7.25 107.75,7.22 107.58,7.20 107.41,7.17 106.12,6.77 104.84,6.37 103.73,5.69 102.63,5.00 101.43,4.03 100.24,3.06 99.12,2.02 98.00,0.98 96.52,-0.21 95.05,-1.41 94.01,-2.10 92.98,-2.79 92.33,-3.70 91.68,-4.60 91.26,-4.67 90.83,-4.74 90.44,-4.91 90.04,-5.08 89.70,-5.34 89.36,-5.60 89.09,-5.93 88.82,-6.26 88.63,-6.65 88.45,-7.04 88.36,-7.46 88.28,-7.88 88.30,-8.31 88.32,-8.74 88.44,-9.16 88.56,-9.57 88.77,-9.94 88.99,-10.31 89.29,-10.62 89.59,-10.93 89.95,-11.16 90.31,-11.39 90.72,-11.53 91.13,-11.66 91.56,-11.69 91.99,-11.73 92.61,-11.67 93.23,-11.62 94.65,-11.32 96.08,-11.02 97.18,-10.51 98.28,-10.01 99.34,-9.42 100.40,-8.83 101.87,-7.91 103.35,-6.98 105.26,-5.75 107.16,-4.52 108.56,-3.32 109.96,-2.12 110.14,-0.93 110.31,0.26 109.54,1.62 108.77,2.98 107.05,3.51 105.34,4.04 103.75,3.92 102.17,3.79 100.66,3.69 99.15,3.60 97.88,3.40 96.60,3.20 95.15,3.08 93.71,2.95 91.98,2.93 90.26,2.91 88.78,3.01 87.30,3.11 85.55,3.19 83.79,3.27 82.64,3.35 81.49,3.43 80.39,3.41 79.29,3.40 78.13,3.45 76.97,3.51 75.74,3.45 74.52,3.39 73.45,3.45 72.39,3.51 71.02,3.54 69.65,3.57 68.01,3.46 66.38,3.35 64.92,3.33 63.46,3.31 61.69,3.34 59.92,3.37 57.95,3.41 55.98,3.46 53.21,3.37 50.44,3.28 48.70,3.19 46.97,3.10 45.10,2.98 43.23,2.87 41.97,2.84 40.71,2.81 39.32,2.77 37.93,2.73 35.85,2.63 33.76,2.53 31.71,2.54 29.67,2.56 28.09,2.54 26.52,2.52 25.24,2.47 23.96,2.42 22.18,2.31 20.41,2.21 18.94,2.03 17.47,1.85 15.76,1.72 14.05,1.59 12.03,1.56 10.01,1.54 8.77,1.57 7.53,1.60 6.38,1.66 5.22,1.73 4.01,1.91 2.79,2.09 1.67,2.32 0.55,2.54 0.24,2.57 -0.06,2.60 -0.37,2.55 -0.69,2.50 -0.98,2.38 -1.27,2.27 -1.52,2.08 -1.77,1.90 -1.97,1.66 -2.18,1.42 -2.31,1.13 -2.45,0.85 -2.52,0.55 -2.59,0.24 -2.58,-0.06 -2.57,-0.38 -2.49,-0.68 -2.40,-0.98 -2.25,-1.26 -2.10,-1.53 -1.88,-1.76 -1.67,-1.99 -1.40,-2.16 -1.14,-2.33 -0.85,-2.43 -0.55,-2.54 -0.55,-2.54 L -0.55,-2.54 Z"></path></g><g transform="translate(134.5625 75.2325439453125) rotate(0 2.775390625 56.04296875)" stroke="none"><path fill="#868e96" d="M 2.40,0.11 Q 2.40,0.11 2.18,2.15 1.97,4.20 1.93,5.80 1.89,7.39 1.83,9.25 1.76,11.12 1.71,12.46 1.66,13.81 1.54,15.31 1.42,16.80 1.36,18.63 1.30,20.45 1.34,21.98 1.38,23.51 1.44,24.76 1.51,26.00 1.57,27.17 1.62,28.34 1.67,29.97 1.71,31.60 1.65,33.11 1.59,34.63 1.55,36.35 1.52,38.08 1.39,39.82 1.27,41.55 1.22,42.76 1.18,43.96 1.15,45.19 1.12,46.41 1.14,48.01 1.17,49.60 1.23,50.74 1.30,51.87 1.38,53.68 1.47,55.49 1.45,57.60 1.43,59.70 1.42,60.89 1.41,62.07 1.20,64.52 0.99,66.98 0.92,68.76 0.85,70.54 0.95,71.81 1.06,73.08 1.20,74.34 1.34,75.60 1.42,76.92 1.50,78.24 1.61,80.00 1.73,81.75 1.82,82.88 1.91,84.01 1.93,85.53 1.95,87.05 1.95,88.51 1.94,89.97 2.14,91.80 2.34,93.62 2.55,94.94 2.75,96.26 2.90,97.51 3.05,98.75 3.22,100.43 3.39,102.11 3.50,103.34 3.61,104.58 3.72,105.70 3.83,106.83 3.95,108.10 4.06,109.38 4.23,110.44 4.41,111.50 4.39,111.91 4.37,112.31 4.25,112.70 4.14,113.09 3.94,113.44 3.73,113.79 3.45,114.09 3.17,114.38 2.82,114.59 2.48,114.81 2.09,114.94 1.71,115.06 1.30,115.09 0.90,115.13 0.49,115.06 0.09,114.99 -0.27,114.83 -0.64,114.67 -0.97,114.43 -1.29,114.18 -1.55,113.86 -1.80,113.55 -1.97,113.18 -2.15,112.81 -2.23,112.41 -2.31,112.02 -1.81,113.12 -1.31,114.23 -2.48,112.84 -3.65,111.45 -4.52,109.87 -5.40,108.28 -6.08,106.90 -6.76,105.52 -7.54,104.01 -8.32,102.51 -8.91,101.15 -9.50,99.78 -10.05,98.51 -10.59,97.23 -11.02,96.25 -11.44,95.27 -11.58,94.88 -11.72,94.49 -11.77,94.07 -11.81,93.66 -11.75,93.25 -11.70,92.83 -11.54,92.45 -11.39,92.06 -11.15,91.72 -10.90,91.38 -10.59,91.11 -10.27,90.84 -9.90,90.65 -9.53,90.46 -9.12,90.37 -8.71,90.28 -8.30,90.29 -7.88,90.29 -7.48,90.40 -7.07,90.51 -6.71,90.70 -6.34,90.90 -6.04,91.19 -5.73,91.47 -5.50,91.81 -5.27,92.16 -5.11,93.31 -4.95,94.46 -4.27,95.82 -3.59,97.19 -2.73,98.84 -1.87,100.50 -1.28,101.45 -0.69,102.41 -0.03,103.45 0.63,104.48 1.34,105.67 2.05,106.86 2.49,108.11 2.93,109.36 1.04,108.49 -0.85,107.61 0.41,106.44 1.69,105.26 2.58,104.56 3.47,103.86 4.58,102.93 5.68,102.00 6.65,100.92 7.61,99.85 8.74,98.17 9.87,96.48 10.60,95.13 11.33,93.79 11.63,93.40 11.93,93.02 12.33,92.75 12.74,92.48 13.21,92.35 13.68,92.23 14.17,92.26 14.65,92.29 15.10,92.47 15.55,92.66 15.92,92.98 16.29,93.30 16.54,93.72 16.78,94.14 16.88,94.61 16.98,95.09 16.92,95.57 16.87,96.06 16.66,96.50 16.45,96.94 16.11,97.29 15.77,97.64 15.34,97.86 14.91,98.08 14.43,98.16 13.94,98.23 13.46,98.15 12.99,98.06 12.56,97.83 12.13,97.60 11.80,97.24 11.47,96.88 11.27,96.44 11.07,96.00 11.02,95.51 10.97,95.03 11.08,94.55 11.19,94.08 11.45,93.66 11.70,93.25 12.08,92.94 12.45,92.63 12.91,92.45 13.36,92.28 13.85,92.26 14.33,92.23 14.80,92.37 15.27,92.50 15.67,92.78 16.07,93.06 16.36,93.45 16.65,93.84 16.80,94.30 16.95,94.77 16.94,95.25 16.94,95.74 16.78,96.20 16.62,96.66 16.62,96.66 16.62,96.66 15.71,98.22 14.79,99.78 14.19,100.66 13.59,101.55 12.91,102.55 12.23,103.54 11.12,105.05 10.02,106.57 8.92,107.73 7.81,108.89 6.60,110.01 5.39,111.12 3.93,112.07 2.47,113.02 1.35,113.24 0.22,113.46 -1.93,111.71 -4.08,109.95 -4.96,108.51 -5.85,107.07 -6.47,106.07 -7.08,105.07 -7.85,103.62 -8.61,102.17 -9.20,101.19 -9.80,100.22 -10.30,99.22 -10.80,98.23 -11.12,96.75 -11.44,95.27 -11.58,94.88 -11.72,94.49 -11.77,94.07 -11.81,93.66 -11.75,93.25 -11.70,92.83 -11.54,92.45 -11.39,92.06 -11.15,91.72 -10.90,91.38 -10.59,91.11 -10.27,90.84 -9.90,90.65 -9.53,90.46 -9.12,90.37 -8.71,90.28 -8.30,90.29 -7.88,90.29 -7.48,90.40 -7.07,90.51 -6.71,90.70 -6.34,90.90 -6.04,91.19 -5.73,91.47 -5.50,91.81 -5.27,92.16 -5.01,92.96 -4.76,93.75 -4.38,94.77 -4.01,95.80 -3.37,97.12 -2.74,98.44 -2.14,99.73 -1.53,101.03 -0.76,102.56 0.01,104.08 0.67,105.28 1.33,106.48 1.90,107.57 2.48,108.67 3.44,110.08 4.41,111.50 4.39,111.91 4.37,112.31 4.25,112.70 4.14,113.09 3.94,113.44 3.73,113.79 3.45,114.09 3.17,114.38 2.82,114.59 2.48,114.81 2.09,114.94 1.71,115.06 1.30,115.09 0.90,115.13 0.50,115.06 0.09,114.99 -0.27,114.83 -0.64,114.67 -0.97,114.43 -1.29,114.18 -1.55,113.86 -1.80,113.55 -1.97,113.18 -2.15,112.81 -2.23,112.41 -2.31,112.02 -2.31,111.48 -2.32,110.94 -2.40,109.66 -2.48,108.37 -2.57,107.16 -2.67,105.96 -2.66,104.38 -2.66,102.81 -2.77,101.11 -2.87,99.41 -2.94,97.54 -3.00,95.67 -3.08,93.93 -3.16,92.20 -3.23,91.12 -3.30,90.04 -3.33,88.62 -3.37,87.19 -3.43,85.80 -3.49,84.41 -3.58,83.11 -3.67,81.80 -3.62,80.13 -3.57,78.46 -3.60,77.27 -3.62,76.08 -3.73,74.76 -3.84,73.44 -3.93,71.99 -4.02,70.54 -4.09,68.76 -4.17,66.98 -4.37,64.53 -4.58,62.08 -4.60,60.90 -4.61,59.72 -4.65,57.66 -4.69,55.61 -4.71,53.96 -4.74,52.32 -4.87,50.96 -4.99,49.59 -4.95,47.98 -4.92,46.37 -4.93,45.12 -4.95,43.88 -4.96,42.59 -4.97,41.30 -4.92,40.15 -4.87,39.00 -4.74,37.64 -4.61,36.28 -4.57,35.03 -4.53,33.77 -4.41,32.69 -4.29,31.60 -4.25,29.97 -4.21,28.34 -4.14,27.15 -4.08,25.96 -3.99,24.67 -3.90,23.37 -3.73,21.55 -3.55,19.74 -3.27,18.06 -2.99,16.39 -2.83,14.93 -2.67,13.46 -2.52,12.27 -2.36,11.08 -2.40,9.18 -2.43,7.28 -2.39,5.64 -2.34,4.01 -2.37,1.95 -2.40,-0.11 -2.35,-0.39 -2.31,-0.68 -2.19,-0.94 -2.07,-1.21 -1.90,-1.44 -1.72,-1.67 -1.50,-1.86 -1.27,-2.04 -1.01,-2.16 -0.75,-2.28 -0.46,-2.34 -0.18,-2.40 0.10,-2.38 0.39,-2.37 0.67,-2.29 0.95,-2.21 1.20,-2.06 1.45,-1.91 1.66,-1.71 1.87,-1.51 2.02,-1.26 2.18,-1.02 2.27,-0.74 2.36,-0.46 2.38,-0.17 2.40,0.11 2.40,0.11 L 2.40,0.11 Z"></path></g><g transform="translate(39.16796875 118.4083251953125) rotate(0 40.549957275390625 12.5)"><text x="0" y="17.619999999999997" font-family="Excalifont, Segoe UI Emoji" font-size="20px" fill="#868e96" text-anchor="start" style="white-space: pre;" direction="ltr" dominant-baseline="alphabetic">Triggers</text></g><g transform="translate(342.6336364746094 259.6231689453125) rotate(0 39.09997773170471 12.5)"><text x="0" y="17.619999999999997" font-family="Excalifont, Segoe UI Emoji" font-size="20px" fill="#868e96" text-anchor="start" style="white-space: pre;" direction="ltr" dominant-baseline="alphabetic">Runs on</text></g><g transform="translate(310.6148660182953 461.3614501953125) rotate(0 39.09997773170471 12.5)"><text x="0" y="17.619999999999997" font-family="Excalifont, Segoe UI Emoji" font-size="20px" fill="#868e96" text-anchor="start" style="white-space: pre;" direction="ltr" dominant-baseline="alphabetic">Runs on</text></g></svg>