<svg xmlns="http://www.w3.org/2000/svg" width="1148.461" height="697.827">
  <defs>
    <style>
      @font-face{font-family:&quot;Virgil&quot;;src:url(https://excalidraw.com/Virgil.woff2)}@font-face{font-family:&quot;Cascadia&quot;;src:url(https://excalidraw.com/Cascadia.woff2)}@font-face{font-family:&quot;Assistant&quot;;src:url(https://excalidraw.com/Assistant-Regular.woff2)}
    </style>
  </defs>
  <path fill="#1e1e1e" d="m16.225 204.082.14-1.9q.15-1.9.67-4.47.51-2.58 1.75-5.79 1.25-3.21 3.45-6.91 2.2-3.71 4.21-6.55t6.51-6.68q4.5-3.83 7.78-6.07 3.28-2.23 6.11-3.53 2.82-1.3 5.42-1.97 2.6-.67 4.56-.93 1.95-.25 4.63.47 2.67.72 4.7 1.84 2.03 1.12 3.75 2.64 1.72 1.52 3.44 3.99 1.71 2.47 3.17 5.64 1.46 3.16 2.39 5.86.92 2.69 1.69 4.99.77 2.3 1.39 4.34.61 2.04 1.24 3.57.62 1.52 1.18 3.1.55 1.57.94 2.71.38 1.14.87 2.3.48 1.17.51 1.43.03.26.01.51-.03.26-.12.5t-.24.46q-.14.21-.34.39-.19.17-.42.28-.23.12-.48.19-.25.06-.51.06-.25 0-.51-.06-.25-.06-.48-.18-.23-.1-.42-.27-.2-.18-.34-.39-.15-.21-.25-.45-.09-.24.49.74.58.97-1.27 1.08-1.86.11-4.78.03-2.93-.08-5.95-.03t-6.31.28q-3.28.22-7.31.53-4.02.31-7.44.43-3.42.12-5.78.16-2.36.04-4.15.13-1.79.08-3.05.25-1.25.17-2.8.26-1.54.08-1.83.04-.29-.04-.56-.17-.26-.13-.47-.34-.2-.2-.33-.47-.13-.26-.17-.55-.04-.29.01-.58.06-.29.2-.55.15-.24.37-.44.22-.19.49-.31.27-.11.56-.14.29-.02.58.05.28.07.53.23t.43.38q.19.23.29.5.1.28.1.57.01.3-.08.58-.08.28-.25.52-.18.24-.42.41-.23.17-.52.25-.28.09-.57.08-.29-.01-.57-.11-.27-.1-.5-.29-.23-.18-.39-.43t-.23-.53q-.07-.29-.04-.58.02-.29.14-.56.11-.27.31-.48.2-.22.45-.36.26-.15.55-.2l.29-.06 1.49-.02q1.49-.02 2.82.01 1.33.03 3.11.05 1.77.03 4.11-.06 2.33-.09 5.68-.27 3.35-.18 7.36-.58 4.02-.4 7.37-.76 3.35-.35 6.43-.57 3.08-.22 5.92-.37 2.84-.14 4.26-.19 1.42-.06 3.46.54 2.04.6 2.07.86.03.26.01.51-.03.26-.12.5t-.24.46q-.14.21-.34.39-.19.17-.42.28-.23.12-.48.19-.25.06-.51.06-.25 0-.51-.06-.25-.06-.48-.18-.23-.1-.42-.27-.2-.17-.34-.39-.15-.21-.25-.45-.09-.24-.28-1.49-.2-1.25-.36-2.36-.17-1.1-.57-2.66-.4-1.56-.88-3.2l-1.09-3.63q-.59-2-1.37-4.29-.77-2.29-1.65-4.86-.88-2.57-2.24-5.53-1.36-2.96-2.87-5.18-1.51-2.23-3-3.55-1.48-1.33-3.22-2.3-1.74-.97-3.93-1.61-2.18-.63-3.91-.52-1.73.11-4.1.71-2.37.6-5 1.8-2.62 1.2-5.77 3.35-3.16 2.16-7.41 5.76-4.25 3.6-6.17 6.36-1.91 2.76-3.97 6.26-2.05 3.51-3.17 6.47-1.12 2.97-1.54 5.4-.41 2.42-.59 4.32-.17 1.89-.21 2.07-.04.19-.12.36-.08.17-.2.32-.12.15-.28.26-.15.12-.32.19-.18.07-.37.1t-.37.02q-.19-.02-.37-.08t-.34-.16q-.16-.1-.29-.24-.13-.14-.23-.3-.09-.17-.14-.35-.06-.19-.06-.38l-.01-.18ZM64.631 125.111l-1.08-1.04q-1.08-1.04-3.21-2.17-2.12-1.14-4.17-1.7-2.05-.55-3.55-.55t-2.65.35q-1.15.34-2.35 1.41-1.21 1.06-1.72 2.53-.51 1.48-.74 2.82-.22 1.35-.29 3.03-.07 1.69.18 2.95.25 1.27.84 2.64.58 1.37 2.05 2.68 1.47 1.31 3.02 1.96 1.55.65 2.77.86 1.22.22 2.34.1 1.12-.11 2.27-.45 1.16-.34 2.24-.89 1.08-.55 2.01-1.14.94-.59 1.99-1.33 1.05-.74 2.34-1.93 1.29-1.18 1.77-2.16.49-.98.42-2.58-.06-1.6-.58-3.08-.53-1.48-1.66-1.48-1.12.01-1.48-.12-.37-.12-.68-.36-.31-.24-.53-.56-.22-.32-.32-.7-.1-.38-.08-.75.03-.39.17-.75.15-.37.4-.66.25-.3.59-.5.33-.2.71-.28.39-.08.76-.04.39.05.74.21.36.17.64.44t.46.61q.18.35.24.73t0 .76q-.07.38-.25.73-.18.34-.47.61-.28.26-.64.43-.35.16-.74.2-.38.04-.76-.05-.38-.08-.71-.28-.33-.21-.58-.51-.25-.29-.4-.66-.14-.36-.16-.75-.02-.38.09-.75.1-.38.32-.7.22-.32.54-.55.31-.24.68-.36.37-.12.75-.12h.39l2.54.63q2.55.62 3.47 2.41.91 1.8 1.1 2.95.19 1.14.25 2.63t-.39 2.97q-.45 1.48-1.34 2.88-.89 1.4-2.4 3.02-1.51 1.62-2.75 2.43-1.23.81-2.39 1.4-1.15.59-2.64 1.2-1.49.62-3.1.94-1.61.32-3.22.27-1.6-.06-3.09-.5-1.49-.44-3.55-1.33-2.06-.89-4.18-2.73-2.11-1.85-2.93-3.76-.83-1.91-1.04-3.56-.21-1.66-.2-3.71.01-2.05.36-3.69.35-1.63 1.19-4 .84-2.39 1.79-3.18.95-.78 2.36-1.49 1.4-.72 3.07-1.05 1.68-.33 3.59-.28 1.92.04 4.49.51 2.57.47 4.3 1.27 1.74.81 2.74 1.63.99.83 2.04 1.9 1.05 1.08 1.22 1.28.16.21.27.44.1.24.15.5.05.26.04.51-.02.26-.1.51-.07.25-.21.47-.13.23-.32.41-.18.19-.4.32-.23.14-.48.22-.25.08-.51.09-.25.02-.51-.03-.25-.04-.49-.15-.24-.1-.45-.27l-.2-.16Z"/>
  <text x="31.276" y="24.528" fill="#1e1e1e" dominant-baseline="alphabetic" font-family="Virgil, Segoe UI Emoji" font-size="28" style="white-space:pre" text-anchor="middle" transform="translate(16.843 218.824)">User</text>
  <text x="190.512" y="24.528" fill="#1e1e1e" dominant-baseline="alphabetic" font-family="Virgil, Segoe UI Emoji" font-size="28" style="white-space:pre" text-anchor="middle" transform="translate(258.32 122.882)">Hey server, show me &quot;/home&quot;</text>
  <path fill="#ffd43b" d="m1029.025 167.873-1.56-.01q-1.57-.01-3.39-.06-1.82-.06-3.56-.09-1.74-.02-3.39-.03-1.65 0-3.08.03-1.42.03-3.03-.06-1.6-.1-2.98-.18-1.38-.09-2.8-.05-1.43.04-2.64.03-1.2-.01-.13-.74 1.08-.74 1.38.98.3 1.71.48 4.04.18 2.32.18 3.69-.01 1.37-.04 2.86-.04 1.49.03 2.69.07 1.21.18 2.38.12 1.18.16 2.56.05 1.39.07 2.64.02 1.25 0 2.69-.01 1.44-.19 3.6-.18 2.15-.5 4.5-.32 2.36-.48 4.01-.16 1.65-.41 3.31-.25 1.66-.58 3.48-.34 1.81-.39 2.98-.06 1.17-.21 3.07t-.21 3.15q-.06 1.25-.1 2.54-.04 1.29-.09 2.4-.05 1.12-1.12.23-1.08-.9.65-.81 1.74.09 3.21.37 1.48.28 3.16.57 1.67.29 3.21.5 1.54.21 3.03.32 1.49.1 3.01.17 1.52.07 2.62.21 1.11.14 3.33.25 2.22.12 2.69.22.47.11.88.36.41.25.72.62t.48.81q.18.45.2.93.02.48-.11.94-.13.46-.4.86-.27.39-.66.68-.38.29-.83.44-.46.15-.94.15-.48 0-.93-.16-.46-.16-.84-.45-.38-.29-.65-.69-.26-.4-.39-.86-.12-.47-.1-.94.03-.48.21-.93.18-.44.5-.81.31-.36.72-.61.41-.24.88-.34.47-.1.95-.05.48.06.91.26.44.2.78.54.35.33.57.75.22.43.3.9.07.48-.01.95t-.31.9q-.22.42-.57.75t-.79.52q-.44.2-.91.25l-.48.05-1.85-.15q-1.86-.15-3.37-.47-1.52-.31-2.93-.52-1.41-.21-3.07-.24-1.67-.03-3.21-.15-1.54-.11-3.41-.19t-3.12-.23q-1.26-.16-3.05-.27-1.8-.11-2.81-.58-1.01-.48-1.54-2.55-.54-2.06-.3-3.26.25-1.19.45-2.48.2-1.28.46-2.51.25-1.23.63-2.96.37-1.73.57-3.01.19-1.28.45-3.09.26-1.81.51-3.34.26-1.54.42-3.15.16-1.62.2-3.8.04-2.19-.14-4.32-.18-2.14-.22-3.55-.04-1.41-.06-2.6-.02-1.19-.08-2.41-.05-1.22-.18-2.48t-.23-2.64q-.11-1.37-.16-2.83-.06-1.45-.11-2.74-.06-1.29-.13-2.42-.07-1.12-.29-2.88-.22-1.76-.23-3.17-.01-1.41.59-2.64.61-1.24 1.77-1.89 1.16-.66 2.43-.43 1.27.24 2.81.43 1.55.18 2.87.33 1.32.15 2.78.26 1.46.1 2.88.13 1.43.03 3.08.03 1.65-.01 3.39-.03 1.74-.03 3.56-.09 1.82-.05 3.39-.06 1.56-.01 1.84.02t.55.14q.26.1.5.26.23.16.42.37.19.22.32.47.13.25.2.52.07.28.07.56t-.07.56q-.07.27-.2.52-.13.26-.32.47-.19.21-.43.37-.23.16-.49.26-.27.11-.55.14l-.28.03Z"/>
  <path fill="#fab005" d="m1055.248 147.578-1.12.27q-1.13.28-2.7.4-1.58.13-3.05.16-1.46.04-3.23.15-1.78.1-3.23-.01t-3.08-.11q-1.64.01-3.12.08l-2.56.14q-1.08.05-.57-1.21.51-1.25.7.67.19 1.93.3 3.13.11 1.21.14 2.66.03 1.45 0 2.98-.03 1.54-.12 3.31t-.21 3.7q-.12 1.93-.1 3.73.02 1.8 0 3.67-.01 1.87-.09 3.93-.08 2.07-.08 3.85 0 1.78-.05 3.28-.04 1.51-.06 3.04-.02 1.54-.25 3.72t-.41 4.08q-.18 1.9-.31 3.96-.14 2.06-.23 3.82-.1 1.75-.08 3.04.03 1.29-.03 2.71-.06 1.43-.13 2.71-.07 1.29-.18 2.58l-.29 3.4q-.17 2.11-.26 3.18-.09 1.08-.26 2.48-.17 1.41-.34 2.59-.17 1.19-.24 2.3-.07 1.11-.15 2.18-.08 1.06 1.57.52 1.65-.55 3.79-.2 2.14.34 3.32.43 1.19.09 2.38.14 1.19.05 2.29.07 1.09.01 2.7-.16 1.6-.17 2.8-.29 1.21-.12 2.88-.14 1.67-.02 2.17.06t.94.32q.45.24.8.6.35.37.56.83.21.46.27.97.05.5-.06 1-.1.49-.37.93-.26.43-.64.76-.39.33-.85.52-.47.18-.98.21t-.99-.11q-.49-.13-.91-.42-.42-.28-.73-.69-.31-.4-.47-.88-.16-.48-.16-.99t.16-.99q.16-.48.47-.88.31-.4.73-.69.42-.28.91-.42.49-.13.99-.11.51.03.98.22.46.19.85.51.38.33.64.77.27.43.37.93.11.49.06 1-.06.5-.27.96-.21.46-.56.83-.35.37-.8.6-.44.24-.94.32l-.5.09h-1.95q-1.95 0-3.32.11-1.38.1-2.56.17-1.19.07-2.32.06-1.13 0-2.41-.01-1.28-.01-2.7-.05-1.42-.03-3.67-.32-2.25-.29-4.51-.69-2.27-.4-3.5-.83-1.23-.44-1.78-1.37-.56-.93-.64-3.01-.08-2.09.16-3.16.24-1.06.63-2.64t.71-2.77q.31-1.18.48-2.26.16-1.08.54-3.15.38-2.08.57-3.31.2-1.24.38-2.48.18-1.25.35-2.58.17-1.33.3-2.67l.29-3.02q.16-1.68.16-3.84t.14-4.01q.13-1.86.15-3.98.01-2.12.07-3.73.05-1.62.18-2.99.14-1.36.12-3.14-.02-1.77-.14-3.8-.11-2.03-.21-3.83-.1-1.79-.28-3.71-.18-1.92-.31-3.84-.13-1.91-.24-3.65l-.2-3.18q-.08-1.45-.17-2.67-.1-1.22-.28-2.47-.18-1.25-.44-3.15t.04-3.04q.3-1.13 1.87-2.25 1.58-1.12 2.88-1.06 1.3.06 2.41.12 1.12.07 2.19.14 1.08.07 2.84.19 1.77.12 3 .2 1.24.08 2.95.13 1.71.05 3.06 0t2.56-.14q1.21-.09 2.35-.32 1.14-.23 1.45-.26.3-.03.61.01.3.05.59.17.29.11.54.3.26.18.46.42t.34.52q.14.28.2.58.07.3.06.61 0 .31-.09.61-.08.3-.23.57-.15.28-.36.5-.22.23-.48.4t-.55.28l-.3.1Z"/>
  <path fill="#f08c00" d="m1085.774 123.388-1.64-.01-3.26-.02q-1.62 0-3.45-.14-1.82-.14-3.93-.39-2.11-.24-3.82-.38-1.7-.14-3.44-.29-1.73-.16-2.96-.23-1.23-.08-2.68-.11-1.44-.03-2.93.03-1.49.06-2.93.21-1.43.14-.83 1.43t.83 2.69q.23 1.39.48 2.57.25 1.18.65 3.57.4 2.39.82 5.26.42 2.87.9 6.56.48 3.69.84 6.29.35 2.59.6 4.63.24 2.04.41 4.17.17 2.12.22 4.6.05 2.48.11 4.43.05 1.95.12 3.69.06 1.74.03 3.43-.03 1.7-.2 3.76-.17 2.06-.43 4.03-.25 1.97-.44 3.82-.19 1.84-.36 3.67-.17 1.82-.49 4.1-.33 2.29-.59 4.08-.25 1.8-.42 3.43-.16 1.62-.32 3.35-.16 1.72-.32 3.5-.16 1.77-.45 3.79-.29 2.02-.41 3.45-.12 1.43-.2 2.6-.08 1.17-.1 2.93-.02 1.76-.13 3.29-.1 1.53.01 2.61.11 1.09-.65-.02-.75-1.11 1.37-1.55 2.11-.44 3.69-.45 1.59-.02 2.91-.03 1.33-.01 3.2.1 1.87.1 3.22.09 1.36 0 3.18-.08l3.43-.13q1.59-.07 2.85-.19 1.25-.12 2.5-.22 1.25-.11 2.86-.04 1.62.06 3.13.15 1.52.09 2.66.15 1.14.05-.04 1.07-1.19 1.01-1.52-.04-.33-1.05-.35-2.25-.01-1.19.09-3.32.1-2.13.15-4 .06-1.88-.03-3.26-.08-1.39-.2-3.31-.12-1.92-.39-4.83-.28-2.91-.57-5.9-.29-2.99-.49-5.2-.19-2.21-.45-4.75-.27-2.55-.59-4.38-.32-1.84-.63-4.74-.32-2.91-.49-4.82-.18-1.92-.31-3.97-.13-2.04-.28-3.49-.15-1.45-.22-3.13-.07-1.67-.17-2.84-.1-1.16-.25-3.08-.15-1.92-.24-4.76-.1-2.83-.14-4.2-.04-1.37-.15-3.41-.11-2.05-.14-3.16-.04-1.11-.03-3.01 0-1.9.06-3.37.06-1.47.16-3.07.09-1.6.29-3.21.19-1.6.4-2.71.22-1.11.47-2.15.26-1.04.63-2.39.37-1.34-.43-2.43-.8-1.07-.66-1.42.13-.35.34-.66.22-.31.5-.56.28-.24.62-.42.33-.17.69-.26.37-.09.73-.09.38 0 .74.09.37.1.7.27.33.18.61.43.28.25.5.56.21.3.34.66.13.35.18.72.04.36-.01.74-.04.37-1.7 1.54-1.64 1.18-2.13 1.05-.49-.13-.91-.4-.42-.28-.73-.68-.31-.39-.48-.87-.17-.47-.18-.98-.01-.49.15-.97.15-.48.45-.89.3-.4.71-.69.41-.29.9-.43.48-.15.97-.13.51.02.98.2.47.18.86.5t.65.75q.27.43.39.92.11.49.07.98-.05.5-.26.96-.2.46-.54.83-.34.38-.78.62-.45.24-.94.33-.5.09-.99.02-.49-.08-.94-.31-.45-.23-.8-.59-.36-.36-.58-.81-.21-.46-.28-.96-.06-.49.04-.98t.36-.93q.25-.44.63-.77t.84-.52q.47-.2-.68.94-1.16 1.14-1.02.79.13-.35.34-.66.22-.31.5-.56.28-.24.62-.42.33-.17.69-.26.37-.09.73-.09.38 0 .74.09.37.1.7.27.33.18.61.43.28.25.5.56.21.3.34.66.13.35.18.72.04.36-.01.74-.04.37.87 1.18.92.81.56 1.89-.35 1.07-.79 2.44-.44 1.38-.65 2.55-.2 1.17-.42 2.33-.23 1.16-.44 2.97-.2 1.82-.39 3.16-.18 1.33-.33 2.99-.14 1.65-.18 2.76-.03 1.11-.12 3.14-.09 2.02-.11 3.38-.01 1.35.09 3.15.11 1.81.13 2.87.03 1.07-.11 2.98-.14 1.9-.22 3.06-.07 1.15-.09 2.78-.01 1.63-.04 3.04-.03 1.41.14 3.44.16 2.04.29 3.89.12 1.85.51 4.68.4 2.82.7 4.72.31 1.9.69 4.45.38 2.54.72 4.7.34 2.17.84 5.12.49 2.95 1.04 5.85.55 2.9.93 4.93.39 2.02.51 3.52.13 1.5.3 3.28.17 1.77.53 3.88.37 2.11.51 4.53.15 2.42-.39 3.88t-2.26 2.46q-1.72 1-2.99.83-1.28-.17-2.34-.32-1.06-.16-2.34-.42-1.29-.26-2.54-.28-1.26-.02-2.85.01t-3.18-.03q-1.59-.07-3.41-.13-1.83-.07-3.17-.07-1.35 0-3.18.13-1.83.12-3.1.16-1.27.04-2.67.14-1.39.1-3.74.37-2.34.27-4.19-.61-1.85-.87-2.15-2.31-.29-1.44.04-2.6.33-1.17.5-2.23.18-1.07.49-2.83.31-1.75.54-2.9.23-1.15.49-2.54.26-1.39.46-3.37.21-1.97.39-3.76.18-1.8.38-3.56.21-1.76.47-3.44.27-1.67.59-3.38.32-1.71.53-3.98.21-2.26.41-4.1.2-1.84.42-3.71.21-1.87.45-3.73.24-1.86.32-3.91.08-2.06.22-3.64.14-1.59.17-3.32.04-1.72.02-3.64-.03-1.93-.15-4.3-.12-2.38-.37-4.44-.25-2.05-.56-4.03-.31-1.97-.82-4.55-.52-2.59-1.21-6.17t-1.36-6.28q-.68-2.69-1.46-5.08-.79-2.38-1.07-3.66-.28-1.28-.52-2.52t-.67-4.01q-.43-2.76.19-4.1.62-1.34 2.32-1.9 1.71-.55 3.49-.55 1.77 0 3.57.17 1.81.18 3.14.46t2.49.49q1.15.21 2.88.36 1.73.16 3.39.32 1.66.16 3.77.19 2.11.03 3.81.1 1.7.07 3.32.07l3.26-.02q1.64-.01 1.91.02t.52.13q.25.1.48.25.22.16.4.36.18.2.31.44.12.24.19.51.07.26.07.53-.01.27-.07.53-.07.27-.19.51-.13.24-.31.44t-.4.36q-.23.15-.48.25-.26.1-.53.13l-.26.03Z"/>
  <text x="60.914" y="24.528" fill="#1e1e1e" dominant-baseline="alphabetic" font-family="Virgil, Segoe UI Emoji" font-size="28" style="white-space:pre" text-anchor="middle" transform="translate(987.067 244.712)">Analytics</text>
  <path fill="#1e1e1e" d="m902.432 114.339-2.21.2q-2.23.19-5.91.41-3.68.21-6.59.29-2.9.07-5.64.09-2.73.02-5.37.02-2.65 0-5.58-.12-2.93-.11-4.75-.1-1.82.01-3.43-.02l-2.69-.05q-1.08-.03-2.31-.09t-2.34-.13q-1.11-.07-2.18-.07-1.06.01-2.2-.06-1.15-.07.42 2.97 1.56 3.05 2.18 5.83.61 2.78 1.19 6.01.59 3.23.92 6.3.34 3.06.46 6.62t.15 6.54q.04 2.98-.07 5.92-.12 2.94-.42 6.4-.3 3.45-.66 7.35-.37 3.9-.75 7.21-.39 3.31-.66 5.68-.27 2.36-.32 4.15-.05 1.8-.08 3.72-.03 1.93-.07 3.61-.05 1.69-.1 3.1-.06 1.42-.13 2.71-.08 1.29-.25 2.59-.18 1.3-.31 2.51l-.25 2.35q-.12 1.13-.2 2.69-.09 1.57-.22 3.37-.13 1.81-.2 3.42l-.13 3q-.05 1.4-.05 2.7.01 1.3-.12 3.02t-.34 2.84q-.21 1.12-.3 2.42-.08 1.31-.29 2.59-.2 1.28-.56 2.81-.36 1.53-1.66.47-1.31-1.06.82-1.33 2.14-.26 4.78-.04 2.65.22 5.59.4 2.95.18 5.61.44 2.65.25 5.61.63l6.14.79q3.19.4 5.02.62 1.83.22 4.05.49 2.23.27 5.51.69 3.27.42 6.85.71 3.57.3 6.03.43 2.48.14 4.2.12 1.72-.02 3.1-.17 1.39-.15 2.47-.28 1.09-.13 2.48-.28 1.4-.14.66-1.26-.75-1.11-.95-2.81-.21-1.71-.4-3.68l-.39-4.06q-.19-2.09-.45-4.74-.25-2.65-.77-6.14-.52-3.49-.85-6.3-.33-2.81-.65-4.29-.31-1.48-.66-4.57l-.57-5.18q-.22-2.1-.63-4.96-.41-2.87-.93-6.03-.53-3.15-1.03-5.66-.51-2.51-1.09-5.68-.59-3.17-1.02-6.03-.43-2.87-.79-4.97-.36-2.1-.71-3.57-.36-1.48-.82-4.69-.46-3.21-.83-5.47-.37-2.25-.7-4.6-.34-2.34-.61-4.84-.27-2.51-.61-4.31-.33-1.81-.58-3.86-.24-2.05-.46-3.26-.21-1.21-.39-2.76-.19-1.56-.54-3.38-.35-1.82-.51-3.26-.16-1.44.01-3.71.16-2.26.2-2.57.04-.32.15-.62.11-.3.29-.56.18-.27.42-.48.24-.21.52-.36t.59-.23q.31-.08.63-.08.31 0 .62.07.31.08.6.23.28.14.52.36.24.21.43.47.18.26.29.56.12.3.16.62.04.31-.83-.93t-.5-1.02q.38.21.66.53.29.32.46.71.17.39.2.82.04.42-.06.84-.11.41-.34.78-.23.36-.56.63-.34.26-.74.41-.41.15-.83.16-.42.01-.83-.11-.41-.13-.76-.38-.35-.25-.6-.6t-.38-.76q-.12-.41-.11-.83.01-.43.16-.83.15-.4.41-.74.27-.33.64-.56.36-.23.77-.34.42-.1.84-.06.43.03.82.2.39.17.71.46.32.28.53.66.22.37.3.79.08.42.02.84t-.25.81q-.19.38-.49.69-.31.3-.69.49-.39.19-.81.25-.42.06-1.71-1.26t-1.25-1.63q.04-.32.15-.62.11-.3.29-.56.18-.27.42-.48.24-.21.52-.36t.59-.23q.31-.08.63-.08.31 0 .62.07.31.08.6.23.28.14.52.36.24.21.43.47.18.26.29.56.12.3.16.62.04.31-.32 1.96t-.46 2.98q-.1 1.33-.17 2.67-.08 1.34-.03 2.42l.1 2.62q.06 1.56.04 2.73-.01 1.18.22 3.17.24 2 .49 3.88.26 1.88.55 4.33.3 2.45.66 4.76.36 2.31.78 4.58.42 2.28.95 5.45.52 3.18.67 4.68.16 1.51.53 3.63.38 2.13.82 4.94.44 2.82 1.05 5.96.61 3.13 1.16 5.68.55 2.55 1.13 5.73.58 3.17 1.07 6.07.48 2.9.78 4.97.31 2.08.77 5.1.47 3.01.65 4.56.19 1.54.63 4.27.44 2.74 1.14 6.27.69 3.52 1.16 6.1.47 2.57.93 4.61.46 2.04.91 3.96.44 1.92.79 3.54.35 1.62.69 3.8.33 2.19-.67 4.06-1 1.88-2.38 1.95-1.39.08-2.79-.07-1.4-.15-2.52-.29-1.11-.14-2.51-.35-1.39-.21-3.13-.32-1.74-.11-4.26-.2-2.51-.09-6.15-.33-3.64-.23-6.89-.56-3.25-.33-5.55-.48-2.3-.15-4.08-.39-1.78-.24-4.97-.49-3.18-.25-6.06-.41-2.87-.17-5.43-.14-2.57.03-5.51.22-2.95.18-5.59.4-2.63.23-4.24.35-1.61.12-2.88-.17-1.27-.3-2.59-2.28-1.32-1.98-1.07-3.1.26-1.11.63-2.76.37-1.65.52-2.83.16-1.17.47-2.62.31-1.45.54-2.81.22-1.37.32-2.94.1-1.57.28-2.99.17-1.42.37-3 .2-1.57.48-3.21.28-1.63.6-3.38.32-1.75.55-2.86l.47-2.38q.25-1.28.54-2.42.29-1.13.51-2.37.23-1.25.45-2.59.22-1.35.4-2.96.18-1.61.25-3.58.06-1.98.24-3.84.17-1.85.42-4.22l.62-5.65q.35-3.29.69-7.17.34-3.89.59-7.27.26-3.38.31-6.24.05-2.86-.05-5.8-.11-2.95-.33-6.36-.21-3.41-.67-6.32-.46-2.9-1.2-5.98-.75-3.09-1.57-5.66-.83-2.57-1.9-5.2-1.07-2.63-1.4-5.06-.33-2.42.95-3.59t3.28-.94q2.01.24 3.23.37 1.23.12 2.28.34 1.06.21 3.26.64 2.21.44 3.73.62 1.53.19 3.36.28 1.83.1 4.71.18 2.87.07 5.5.04 2.63-.04 5.33-.12 2.7-.07 5.54-.23 2.85-.15 6.44-.46 3.6-.32 5.8-.66 2.21-.35 2.43-.35.22 0 .44.06.22.05.41.15.2.11.37.26.17.15.3.33.13.19.21.4.08.21.1.43.03.22 0 .44-.02.22-.1.43t-.21.4q-.13.18-.29.33-.17.15-.37.25-.2.11-.42.16l-.22.06Z"/>
  <path fill="#fff" fill-rule="evenodd" stroke-width="0" d="M886.319 205.576c-.57-.35-2.03-1.89-3.4-2.09-1.36-.2-3.43.34-4.8.89-1.36.55-2.59 1.41-3.4 2.4-.8.99-1.91 2.57-1.44 3.54.47.98 2.85 2 4.28 2.3 1.42.3 2.91.29 4.27-.48 1.35-.77 3.17-3.14 3.85-4.16.69-1.03.38-1.48.24-1.99s-1.14-1.01-1.07-1.07c.06-.07 1.22.55 1.47.66"/>
  <path fill="#1e1e1e" d="m884.929 207.836-.97-.58q-.96-.58-2.33-.48-1.37.1-2.39.62-1.01.52-1.92 1.43-.91.92.31.67t2.55-.67q1.32-.42 1.84-1.44t.69-1.66q.18-.63.28-1.03.11-.41.31-.77.2-.37.49-.68.28-.31.63-.54.35-.23.74-.37.4-.14.81-.18.41-.05.83.01.41.06.8.21.39.16.73.41.34.24.61.56.27.32.46.69.19.38.28.78.09.41.08.82-.01.42-.65-1.17-.64-1.61-.26-1.19.38.41.6.93.23.51.28 1.07.05.55-.08 1.1-.14.55-.43 1.02-.3.48-.74.83-.44.36-.96.55-.53.2-1.09.22-.55.02-1.09-.14t-1-.49q-.45-.32-.79-.78-.33-.45-.49-.99-.17-.53-.16-1.08.01-.57.2-1.1.19-.52.54-.96.35-.44.82-.75t1.02-.45q.54-.13 1.09-.09.56.04 1.08.26t.94.59q.42.37.7.86.28.49.39 1.04.11.55.03 1.1-.07.55-.31 1.06-.25.5-.65.9-.39.4-.89.66-.5.25-1.06.33-.55.08-1.1-.02-.55-.11-1.68-1.98-1.13-1.87-1.03-2.27.11-.41.31-.77.2-.37.49-.68.28-.31.63-.54.35-.23.74-.37.4-.14.81-.18.41-.05.83.01.41.06.8.21.39.16.73.4.34.25.61.57.27.32.46.69.19.37.28.78.09.41.08.82-.01.42-.32 1.49-.31 1.08-.8 2.21-.49 1.14-1.33 2.28-.84 1.13-1.95 2.01-1.11.89-2.47 1.39-1.35.5-2.96.62-1.61.11-3.54-.27-1.94-.38-3.56-1.54-1.62-1.16-2.03-2.15-.41-1-.2-2.52.21-1.53 1.21-2.96.99-1.43 2.29-2.34 1.3-.92 3.4-1.67 2.09-.75 3.78-.86 1.68-.12 3.08.31 1.39.44 2.36 1.06.99.62 1.24.82.25.2.44.46.2.25.33.54.13.29.18.61.06.32.04.62-.03.32-.12.63-.1.3-.27.58-.17.27-.4.49-.22.23-.5.39-.27.17-.58.26-.31.09-.63.11-.31.02-.62-.05-.32-.06-.61-.19l-.29-.13ZM865.453 131.387l2.56.13q2.57.14 4.86.24 2.28.1 3.92.07l3.2-.06q1.56-.04 2.97-.24 1.41-.2 3.92-.33t2.9-.06q.39.06.74.24.35.19.63.47.27.29.44.65.16.36.21.75.04.4-.04.77-.09.39-.29.73-.2.34-.5.6-.31.25-.67.4-.37.15-.77.17-.39.02-.77-.08-.38-.11-.71-.33-.33-.22-.57-.53-.24-.32-.37-.69-.13-.38-.13-.76 0-.4.13-.77.12-.38.36-.7.24-.31.57-.53.32-.23.7-.33.39-.11.78-.09.4.02.76.16.37.15.68.41.3.25.5.59.21.34.29.72.09.39.05.77-.04.4-.21.76-.16.36-.44.65-.27.28-.62.47-.35.19-.74.25l-.39.07-2.28-.04q-2.28-.04-3.93-.12-1.64-.07-3.2-.11l-3.2-.06q-1.64-.03-3.92.07-2.29.1-4.86.24-2.56.13-2.84.1-.28-.03-.54-.13-.27-.1-.5-.27-.23-.16-.42-.37-.19-.21-.32-.46t-.2-.53q-.07-.27-.07-.55t.07-.55q.07-.28.2-.53t.32-.46q.19-.21.42-.37.23-.17.5-.27.26-.1.54-.13l.28-.03ZM865.577 141.848l1.79-.04q1.81-.04 3.61-.14 1.81-.1 3.98-.26t4.32-.3q2.15-.14 3.62-.39 1.47-.25 2.62-.41 1.14-.17 2.61-.36 1.47-.2 2.96-.34 1.49-.15 1.86-.1.38.04.72.21.34.17.61.43.28.27.45.6.17.34.22.72.06.37-.01.75-.07.37-.25.7-.18.33-.46.59-.28.26-.63.41-.35.15-.73.18-.37.03-.74-.05t-.69-.29q-.32-.2-.57-.49-.24-.29-.37-.65-.13-.35-.15-.73-.01-.38.1-.74.1-.37.32-.68.22-.31.53-.53.3-.23.66-.34.37-.12.74-.11.38.01.74.13.36.13.66.37.29.23.5.55.21.32.3.68.1.37.07.75t-.17.73q-.15.35-.4.63-.25.29-.58.48-.33.19-.7.26l-.37.07-1.53.11q-1.52.12-2.9.02-1.37-.1-2.43-.11-1.07-.01-2.59.11-1.52.12-3.62.42-2.1.29-4.34.66-2.23.37-4.09.56-1.87.19-3.67.32-1.8.12-2.06.1-.27-.02-.53-.1-.26-.09-.49-.23-.23-.14-.42-.34-.19-.2-.33-.43-.14-.24-.22-.5-.07-.26-.09-.53-.01-.26.04-.53.06-.27.17-.51.12-.25.29-.46.17-.22.39-.38.21-.17.46-.27.25-.11.52-.16l.27-.04ZM865.217 152.63l1.52-.07q1.53-.06 3.22-.06 1.68-.01 3.31-.01 1.62.01 3.09-.01 1.48-.01 2.94-.1 1.46-.09 2.52-.26 1.06-.16 2.18-.45 1.12-.28 2.33-.7 1.21-.41 2.45-.73 1.25-.33 3.04-.48 1.8-.16 2.25-.09.46.07.87.29.41.21.73.55.31.33.51.75.19.42.25.88.05.46-.05.91t-.34.85q-.23.39-.59.69-.35.3-.78.47-.42.17-.89.19-.46.03-.9-.09-.45-.11-.83-.37-.38-.26-.66-.63-.29-.36-.43-.8-.15-.44-.15-.9t.14-.9q.15-.44.43-.81.28-.37.66-.63t.82-.38q.45-.13.91-.1.46.02.89.19t.78.47q.36.3.6.69.23.4.34.85.1.45.05.91t-.25.88q-.19.42-.51.75-.31.34-.72.56-.41.21-.86.28l-.46.08-2.28.16q-2.29.17-3.71.45-1.41.28-2.82.57-1.4.29-2.59.38-1.18.08-2.78.18-1.6.1-3.06.1-1.46-.01-3.06.02-1.59.03-3.2.09-1.62.06-3.14.15-1.53.09-1.82.07-.29-.02-.57-.11-.28-.09-.53-.25-.25-.15-.45-.36-.21-.21-.36-.46-.15-.26-.23-.54-.09-.28-.1-.57-.02-.29.04-.58.05-.28.18-.55.12-.27.31-.5.18-.23.41-.41.24-.17.5-.29.27-.12.56-.17l.29-.05Z"/>
  <text x="43.19" y="24.528" fill="#1e1e1e" dominant-baseline="alphabetic" font-family="Virgil, Segoe UI Emoji" font-size="28" style="white-space:pre" text-anchor="middle" transform="translate(841.89 244.281)">Server</text>
  <text x="8.75" y="24.528" fill="#1e1e1e" dominant-baseline="alphabetic" font-family="Virgil, Segoe UI Emoji" font-size="28" style="white-space:pre" text-anchor="middle" transform="translate(946.366 172.034)">+</text>
  <path fill="#1e1e1e" d="m137.865 166.455 4.39-.11q4.41-.12 11.08-.16 6.67-.04 16.79-.05 10.12-.01 23.83-.01 13.71.01 34.27.2 20.57.19 38.54.49 17.97.29 35.27.62 17.31.33 32.09.66 14.79.33 27.55.48 12.76.14 28.69.2 15.94.07 29.16.09 13.23.03 23.64.18 10.41.16 20.26.22 9.85.07 19.96.1 10.11.03 21.31.04 11.2.01 21.49-.33 10.28-.34 20.49-.84 10.21-.49 19.5-1.03 9.3-.55 21.57-.95 12.27-.41 20.88-.58 8.6-.17 17.49-.42 8.9-.25 15.64-.35 6.74-.11 14.1-.15 7.37-.05 12.56-.2 5.19-.16 9.36-.22 4.16-.07 8.1-.1l7.79-.04q3.84-.01 8.52-.01 4.67-.01 9.33-.16 4.67-.15 7.99-.22 3.33-.06 6.8-.22 3.47-.17 7.28-.24 3.8-.07 6.75-.1 2.94-.03 5.91-.04l6.05-.02h6.12q3.05-.01 4.84-.08 1.8-.07 3.15-.17 1.35-.11 2.48-.21 1.14-.1 3.55-.34 2.42-.24 3.88-.49 1.47-.25 2.57-.37 1.1-.12 2.48-.2 1.38-.09 2.67-.28 1.29-.18.21 1.73-1.07 1.92-2.69 1.25-1.62-.67-3.28-1.78-1.67-1.11-2.99-1.7-1.32-.59-2.74-.99-1.43-.39-1.93-.49-.5-.11-.88-.21-.39-.11-.73-.31-.35-.2-.63-.47-.29-.28-.51-.61-.21-.34-.34-.71-.12-.38-.16-.78-.03-.39.03-.79.06-.39.22-.75.15-.37.39-.69.24-.32.54-.57.31-.25.67-.43.36-.17.75-.25.39-.08.78-.07.4.02 1.43.36 1.03.34 3.13 1.24 2.1.91 3.1 1.43 1 .51 2.55 1.39 1.55.88 2.56 1.47 1.01.58 2.31 1.17 1.3.58 1.81 3.02.51 2.45-.52 3.53-1.03 1.08-2.4 1.71-1.38.63-3.22 1.28-1.84.65-3.27 1.16-1.42.5-2.35.7-.92.2-1.33.56-.42.37-.92.58-.51.21-1.06.25-.55.04-1.08-.09-.53-.14-1-.44-.46-.3-.8-.73t-.52-.95q-.19-.52-.2-1.07-.01-.55.15-1.06.17-.53.49-.97.33-.45.78-.76.45-.32.98-.48.52-.16 1.07-.14.55.02 1.07.22.51.19.94.54.42.35.72.81.29.47.42.99.13.54.08 1.09-.05.54-.27 1.05-.23.5-.6.91-.37.4-.85.67t-1.02.37q-.54.1-1.09.02-.54-.08-1.03-.33t-.88-.64q-.38-.39-.62-.89-.24-.49-.31-1.04-.07-.54.03-1.08.11-.53.39-1.01l.27-.48 2.19-1.15q2.19-1.15 3.79-1.74 1.6-.59 3.19-1.21 1.58-.62 3.06-.76t1.59 1.85q.11 1.98-.95 1.45-1.06-.52-2.28-1.28-1.22-.76-2.46-1.49t-3.04-1.57q-1.8-.84-3.23-1.38-1.43-.55-1.81-.65-.39-.11-.73-.31-.35-.2-.63-.47-.29-.28-.51-.61-.21-.34-.34-.71-.12-.38-.16-.78-.03-.39.03-.79.06-.39.22-.75.15-.37.39-.69.24-.32.54-.57.31-.25.67-.43.36-.17.75-.25.39-.08.78-.07.4.02.63.12.23.1 1.51.4 1.27.31 2.32.72 1.06.42 2.84 1.27 1.79.85 2.83 1.47 1.05.62 2.3 1.51 1.25.9 2.42 1.69 1.16.79 2 1.9.85 1.1-1.04 3.14-1.9 2.03-3.39 2.02-1.49-.01-3.3-.13-1.82-.11-3.36-.13l-2.9-.02q-1.35-.02-2.46-.03-1.12 0-2.25-.1-1.14-.1-2.49-.21-1.35-.1-3.15-.17-1.79-.07-4.83-.07t-6.12.01l-6.05.02q-2.96.01-5.89.04-2.93.03-6.7.1t-7.27.23q-3.51.16-6.82.23-3.31.06-8.01.22-4.7.15-9.38.15l-8.51.02q-3.84.01-7.77.04-3.93.03-8.07.09-4.15.07-9.37.22-5.22.16-12.58.2-7.35.05-14.08.15-6.72.11-15.63.36-8.9.23-17.48.4-8.59.18-20.83.58-12.23.4-21.54.95-9.31.55-19.54 1.05-10.23.5-20.56.84-10.33.34-21.54.33-11.2-.01-21.31-.04-10.12-.03-19.98-.09-9.86-.06-20.25-.22-10.4-.15-23.63-.17-13.22-.03-29.17-.08-15.94-.06-28.72-.2-12.77-.14-27.55-.47-14.78-.33-32.08-.65-17.3-.32-35.26-.6-17.96-.28-38.52-.46-20.55-.17-34.26-.14-13.71.02-23.81.07-10.11.04-16.75.13-6.63.09-11.03.27-4.4.19-4.58.17-.19-.02-.37-.08-.17-.06-.33-.16t-.29-.24q-.13-.13-.22-.3-.1-.16-.15-.34-.05-.18-.05-.37-.01-.18.03-.36.04-.19.12-.36.08-.17.2-.31.12-.15.27-.26.15-.11.33-.19.17-.07.36-.1l.18-.03Z"/>
  <text x="47.936" y="24.528" fill="#1e1e1e" dominant-baseline="alphabetic" font-family="Virgil, Segoe UI Emoji" font-size="28" style="white-space:pre" text-anchor="middle" transform="translate(388.828 217.775)">Alright!</text>
  <text x="118.482" y="24.528" fill="#1e1e1e" dominant-baseline="alphabetic" font-family="Virgil, Segoe UI Emoji" font-size="28" style="white-space:pre" text-anchor="middle" transform="translate(334.183 435.035)">Show me &quot;/about&quot;</text>
  <text x="294.294" y="24.528" fill="#f08c00" dominant-baseline="alphabetic" font-family="Virgil, Segoe UI Emoji" font-size="28" style="white-space:pre" text-anchor="middle" transform="rotate(-.763 46646.48 -38872.295)">I&apos;ve seen hash(   ) before on &quot;/home&quot;!</text>
  <text x="294.294" y="59.528" fill="#f08c00" dominant-baseline="alphabetic" font-family="Virgil, Segoe UI Emoji" font-size="28" style="white-space:pre" text-anchor="middle" transform="rotate(-.763 46646.48 -38872.295)">Let&apos;s add +1 to &quot;/home&quot; -&gt; &quot;/about&quot; stats</text>
  <text x="256.144" y="24.528" fill="#f08c00" dominant-baseline="alphabetic" font-family="Virgil, Segoe UI Emoji" font-size="28" style="white-space:pre" text-anchor="middle" transform="translate(626.173 17.032)">I haven&apos;t seen this hash(   ) before.</text>
  <text x="256.144" y="59.528" fill="#f08c00" dominant-baseline="alphabetic" font-family="Virgil, Segoe UI Emoji" font-size="28" style="white-space:pre" text-anchor="middle" transform="translate(626.173 17.032)">Let&apos;s add +1 to unique visitors.</text>
  <path fill="#1e1e1e" d="m15.063 516.154.14-1.9q.15-1.9.67-4.47.51-2.58 1.75-5.79 1.25-3.21 3.45-6.91 2.2-3.71 4.21-6.55t6.51-6.68q4.5-3.83 7.78-6.07 3.28-2.23 6.11-3.53 2.82-1.3 5.42-1.97 2.6-.67 4.56-.93 1.95-.25 4.63.47 2.67.72 4.7 1.84 2.03 1.12 3.75 2.64 1.72 1.52 3.44 3.99 1.71 2.47 3.17 5.64 1.46 3.16 2.39 5.86.92 2.69 1.69 4.99.77 2.3 1.39 4.34.61 2.04 1.24 3.57.62 1.52 1.18 3.1.55 1.57.94 2.71.38 1.14.87 2.3.48 1.17.51 1.43.03.26.01.51-.03.26-.12.5t-.24.46q-.14.21-.34.39-.19.17-.42.28-.23.12-.48.19-.25.06-.51.06-.25 0-.51-.06-.25-.06-.48-.18-.23-.1-.42-.27-.2-.18-.34-.39-.15-.21-.25-.45-.09-.24.49.74.58.97-1.27 1.08-1.86.11-4.78.03-2.93-.08-5.95-.03t-6.31.28q-3.28.22-7.31.53-4.02.31-7.44.43-3.42.12-5.78.16-2.36.04-4.15.13-1.79.08-4.53.22-2.73.15-2.98.11-.26-.03-.49-.15-.23-.11-.41-.3-.18-.18-.3-.41-.11-.23-.14-.49-.04-.25.01-.5.05-.26.18-.48.12-.22.32-.39.19-.17.43-.27.23-.1.49-.12.26-.02.51.04t.46.2q.22.14.38.33.16.2.25.45.09.24.09.5.01.25-.07.5-.07.25-.22.45-.15.21-.36.36t-.46.23q-.25.07-.5.07-.26-.01-.5-.1-.24-.09-.44-.25t-.34-.38q-.14-.22-.2-.47-.06-.25-.04-.51.02-.25.12-.49.1-.24.28-.43.17-.18.39-.3.23-.13.48-.18l.25-.05 2.75-.1q2.75-.1 4.53-.08 1.77.03 4.11-.06 2.33-.09 5.68-.27 3.35-.18 7.36-.58 4.02-.4 7.37-.76 3.35-.35 6.43-.57 3.08-.22 5.92-.37 2.84-.14 4.26-.19 1.42-.06 3.46.54 2.04.6 2.07.86.03.26.01.51-.03.26-.12.5t-.24.46q-.14.21-.34.39-.19.17-.42.28-.23.12-.48.19-.25.06-.51.06-.25 0-.51-.06-.25-.06-.48-.18-.23-.1-.42-.27-.2-.17-.34-.39-.15-.21-.25-.45-.09-.24-.28-1.49-.2-1.25-.36-2.36-.17-1.1-.57-2.66-.4-1.56-.88-3.2l-1.09-3.63q-.59-2-1.37-4.29-.77-2.29-1.65-4.86-.88-2.57-2.24-5.53-1.36-2.96-2.87-5.18-1.51-2.23-3-3.55-1.48-1.33-3.22-2.3-1.74-.97-3.93-1.61-2.18-.63-3.91-.52-1.73.11-4.1.71-2.37.6-5 1.8-2.62 1.2-5.77 3.35-3.16 2.16-7.41 5.76-4.25 3.6-6.17 6.36-1.91 2.76-3.97 6.26-2.05 3.51-3.17 6.47-1.12 2.97-1.54 5.4-.41 2.42-.59 4.32-.17 1.89-.21 2.07-.04.19-.12.36-.08.17-.2.32-.12.15-.28.26-.15.12-.32.19-.18.07-.37.1t-.37.02q-.19-.02-.37-.08t-.34-.16q-.16-.1-.29-.24-.13-.14-.23-.3-.09-.17-.14-.35-.06-.19-.06-.38l-.01-.18ZM63.47 437.183l-1.08-1.04q-1.08-1.04-3.21-2.17-2.12-1.14-4.17-1.7-2.05-.55-3.55-.55t-2.65.35q-1.15.34-2.35 1.41-1.21 1.06-1.72 2.53-.51 1.48-.74 2.82-.22 1.35-.29 3.03-.07 1.69.18 2.95.25 1.27.84 2.64.58 1.37 2.05 2.68 1.47 1.31 3.02 1.96 1.55.65 2.77.86 1.22.22 2.34.1 1.12-.11 2.27-.45 1.16-.34 2.24-.89 1.08-.55 2.01-1.14.94-.59 1.99-1.33 1.05-.74 2.34-1.93 1.29-1.18 1.77-2.16.49-.98.42-2.58-.06-1.6-.58-3.08-.53-1.48-.84-1.22-.32.27-.72.13-.41-.14-.75-.4-.33-.26-.57-.62-.23-.35-.35-.77-.11-.41-.08-.84.02-.41.18-.81.16-.4.44-.72.28-.33.64-.55.36-.22.78-.31.42-.09.85-.04.42.05.81.23.39.18.7.48.31.29.5.67.2.38.27.81.07.41 0 .83t-.28.8q-.2.38-.51.67-.31.29-.7.47-.39.18-.82.22-.42.05-.84-.05-.42-.09-.78-.31-.36-.23-.64-.55-.27-.33-.43-.73-.15-.4-.18-.83-.02-.41.1-.82.12-.42.36-.77.24-.35.57-.61.34-.26.75-.39.41-.14.83-.14l.43.01 2.61 2.39q2.61 2.4 2.8 3.55.19 1.14.25 2.63t-.39 2.97q-.45 1.48-1.34 2.88-.89 1.4-2.4 3.02-1.51 1.62-2.75 2.43-1.23.81-2.39 1.4-1.15.59-2.64 1.2-1.49.62-3.1.94-1.61.32-3.22.27-1.6-.06-3.09-.5-1.49-.44-3.55-1.33-2.06-.89-4.18-2.73-2.11-1.85-2.93-3.76-.83-1.91-1.04-3.56-.21-1.66-.2-3.71.01-2.05.36-3.69.35-1.63 1.19-4 .84-2.39 1.79-3.18.95-.78 2.36-1.49 1.4-.72 3.07-1.05 1.68-.33 3.59-.28 1.92.04 4.49.51 2.57.47 4.3 1.27 1.74.81 2.74 1.63.99.83 2.04 1.9 1.05 1.08 1.22 1.28.16.21.27.44.1.24.15.5.05.26.04.51-.02.26-.1.51-.07.25-.21.47-.13.23-.32.41-.18.19-.4.32-.23.14-.48.22-.25.08-.51.09-.25.02-.51-.03-.25-.04-.49-.15-.24-.1-.45-.27l-.2-.16Z"/>
  <text x="31.276" y="24.528" fill="#1e1e1e" dominant-baseline="alphabetic" font-family="Virgil, Segoe UI Emoji" font-size="28" style="white-space:pre" text-anchor="middle" transform="translate(15.681 530.896)">User</text>
  <path fill="#1e1e1e" d="m135.846 485.995 4.39-.11q4.41-.12 11.08-.16 6.67-.04 16.79-.05 10.12-.01 23.83-.01 13.71.01 34.27.2 20.57.19 38.54.49 17.97.29 35.27.62 17.31.33 32.09.66 14.79.33 27.55.48 12.76.14 28.69.2 15.94.07 29.16.09 13.23.03 23.64.18 10.41.16 20.26.22 9.85.07 19.96.1 10.11.03 21.31.04 11.2.01 21.49-.33 10.28-.34 20.49-.84 10.21-.49 19.5-1.03 9.3-.55 21.57-.95 12.27-.41 20.88-.58 8.6-.17 17.49-.42 8.9-.25 15.64-.35 6.74-.11 14.1-.15 7.37-.05 12.56-.2 5.19-.16 9.36-.22 4.16-.07 8.1-.1l7.79-.04q3.84-.01 8.52-.01 4.67-.01 9.33-.16 4.67-.15 7.99-.22 3.33-.06 6.8-.22 3.47-.17 7.28-.24 3.8-.07 6.75-.1 2.94-.03 5.91-.04l6.05-.02h6.12q3.05-.01 4.84-.08 1.8-.07 3.15-.17 1.35-.11 2.48-.21 1.14-.1 3.55-.34 2.42-.24 3.88-.49 1.47-.25 2.57-.37 1.1-.12 2.48-.2 1.38-.09 2.67-.28 1.29-.18.21 1.73-1.07 1.92-2.69 1.25-1.62-.67-3.28-1.78-1.67-1.11-2.99-1.7-1.32-.59-2.74-.99-1.43-.39-1.93-.49-.5-.11-.88-.21-.39-.11-.73-.31-.35-.2-.63-.47-.29-.28-.51-.61-.21-.34-.34-.71-.12-.38-.16-.78-.03-.39.03-.79.06-.39.22-.75.15-.37.39-.69.24-.32.54-.57.31-.25.67-.43.36-.17.75-.25.39-.08.78-.07.4.02 1.43.36 1.03.34 3.13 1.24 2.1.91 3.1 1.43 1 .51 2.55 1.39 1.55.88 2.56 1.47 1.01.58 2.31 1.17 1.3.58 1.81 3.02.51 2.45-.52 3.53-1.03 1.08-2.4 1.71-1.38.63-3.22 1.28-1.84.65-3.27 1.16-1.42.5-2.33.67-.9.17-1.31.54-.42.36-.92.57-.51.22-1.06.26-.55.04-1.08-.1t-.99-.44q-.46-.3-.8-.73t-.53-.94q-.18-.52-.2-1.07-.01-.55.16-1.07t.49-.96q.32-.45.77-.76.45-.32.98-.48.53-.16 1.07-.14.55.02 1.07.22.51.19.94.54.42.35.72.81.29.47.42.99.13.54.08 1.08-.05.55-.27 1.05-.23.51-.6.91-.37.41-.85.68-.48.26-1.02.36-.54.1-1.08.02-.55-.08-1.04-.32-.49-.25-.87-.64-.39-.4-.63-.89-.24-.5-.31-1.04-.07-.55.04-1.08.11-.53.38-1.01l.28-.48 2.16-1.12q2.17-1.13 3.77-1.72 1.6-.59 3.19-1.21 1.58-.62 3.06-.76t1.59 1.85q.11 1.98-.95 1.45-1.06-.52-2.28-1.28-1.22-.76-2.46-1.49t-3.04-1.57q-1.8-.84-3.23-1.38-1.43-.55-1.81-.65-.39-.11-.73-.31-.35-.2-.63-.47-.29-.28-.51-.61-.21-.34-.34-.71-.12-.38-.16-.78-.03-.39.03-.79.06-.39.22-.75.15-.37.39-.69.24-.32.54-.57.31-.25.67-.43.36-.17.75-.25.39-.08.78-.07.4.02.63.12.23.1 1.51.4 1.27.31 2.32.72 1.06.42 2.84 1.27 1.79.85 2.83 1.47 1.05.62 2.3 1.51 1.25.9 2.42 1.69 1.16.79 2 1.9.85 1.1-1.04 3.14-1.9 2.03-3.39 2.02-1.49-.01-3.3-.13-1.82-.11-3.36-.13l-2.9-.02q-1.35-.02-2.46-.03-1.12 0-2.25-.1-1.14-.1-2.49-.21-1.35-.1-3.15-.17-1.79-.07-4.83-.07t-6.12.01l-6.05.02q-2.96.01-5.89.04-2.93.03-6.7.1t-7.27.23q-3.51.16-6.82.23-3.31.06-8.01.22-4.7.15-9.38.15l-8.51.02q-3.84.01-7.77.04-3.93.03-8.07.09-4.15.07-9.37.22-5.22.16-12.58.2-7.35.05-14.08.15-6.72.11-15.63.36-8.9.23-17.48.4-8.59.18-20.83.58-12.23.4-21.54.95-9.31.55-19.54 1.05-10.23.5-20.56.84-10.33.34-21.54.33-11.2-.01-21.31-.04-10.12-.03-19.98-.09-9.86-.06-20.25-.22-10.4-.15-23.63-.17-13.22-.03-29.17-.08-15.94-.06-28.72-.2-12.77-.14-27.55-.47-14.78-.33-32.08-.65-17.3-.32-35.26-.6-17.96-.28-38.52-.46-20.55-.17-34.26-.14-13.71.02-23.81.07-10.11.04-16.75.13-6.63.09-11.03.27-4.4.19-4.58.17-.19-.02-.37-.08-.17-.06-.33-.16t-.29-.24q-.13-.13-.22-.3-.1-.16-.15-.34-.05-.18-.05-.37-.01-.18.03-.36.04-.19.12-.36.08-.17.2-.31.12-.15.27-.26.15-.11.33-.19.17-.07.36-.1l.18-.03Z"/>
  <path fill="#ffd43b" d="m1027.04 478.921-1.56-.01q-1.57-.01-3.39-.06-1.82-.06-3.56-.09-1.74-.02-3.39-.03-1.65 0-3.08.03-1.42.03-3.03-.06-1.6-.1-2.98-.18-1.38-.09-2.8-.05-1.43.04-2.64.03-1.2-.01-.13-.74 1.08-.74 1.38.98.3 1.71.48 4.04.18 2.32.18 3.69-.01 1.37-.04 2.86-.04 1.49.03 2.69.07 1.21.18 2.38.12 1.18.16 2.56.05 1.39.07 2.64.02 1.25 0 2.69-.01 1.44-.19 3.6-.18 2.15-.5 4.5-.32 2.36-.48 4.01-.16 1.65-.41 3.31-.25 1.66-.58 3.48-.34 1.81-.39 2.98-.06 1.17-.21 3.07t-.21 3.15q-.06 1.25-.1 2.54-.04 1.29-.09 2.4-.05 1.12-1.12.23-1.08-.9.65-.81 1.74.09 3.21.37 1.48.28 3.16.57 1.67.29 3.21.5 1.54.21 3.03.32 1.49.1 3.01.17 1.52.07 2.62.21 1.11.14 3.27.25 2.17.12 2.63.23.47.1.88.35.41.25.71.62.31.36.49.81.17.44.19.92.03.48-.1.94-.13.46-.4.85-.27.4-.66.69-.38.28-.83.43-.46.15-.94.15-.48 0-.93-.16-.45-.15-.83-.44-.38-.29-.65-.69-.26-.4-.39-.86-.12-.46-.09-.94.02-.48.2-.92.18-.45.5-.81.31-.36.72-.61.41-.24.88-.34.47-.1.94-.05.48.06.91.26.43.21.78.54.34.33.57.75.22.43.29.9.08.47 0 .94t-.31.9q-.23.42-.58.74-.34.33-.78.53t-.91.25l-.48.05-1.79-.15q-1.8-.14-3.31-.46-1.52-.31-2.93-.52-1.41-.21-3.07-.24-1.67-.03-3.21-.15-1.54-.11-3.41-.19t-3.12-.23q-1.26-.16-3.05-.27-1.8-.11-2.81-.58-1.01-.48-1.54-2.55-.54-2.06-.3-3.26.25-1.19.45-2.48.2-1.28.46-2.51.25-1.23.63-2.96.37-1.73.57-3.01.19-1.28.45-3.09.26-1.81.51-3.34.26-1.54.42-3.15.16-1.62.2-3.8.04-2.19-.14-4.32-.18-2.14-.22-3.55-.04-1.41-.06-2.6-.02-1.19-.08-2.41-.05-1.22-.18-2.48t-.23-2.64q-.11-1.37-.16-2.83-.06-1.45-.11-2.74-.06-1.29-.13-2.42-.07-1.12-.29-2.88-.22-1.76-.23-3.17-.01-1.41.59-2.64.61-1.24 1.77-1.89 1.16-.66 2.43-.43 1.27.24 2.81.43 1.55.18 2.87.33 1.32.15 2.78.26 1.46.1 2.88.13 1.43.03 3.08.03 1.65-.01 3.39-.03 1.74-.03 3.56-.09 1.82-.05 3.39-.06 1.56-.01 1.84.02t.55.14q.26.1.5.26.23.16.42.37.19.22.32.47.13.25.2.52.07.28.07.56t-.07.56q-.07.27-.2.52-.13.26-.32.47-.19.21-.43.37-.23.16-.49.26-.27.11-.55.14l-.28.03Z"/>
  <path fill="#fab005" d="m1053.263 458.626-1.12.27q-1.13.28-2.7.4-1.58.13-3.05.16-1.46.04-3.23.15-1.78.1-3.23-.01t-3.08-.11q-1.64.01-3.12.08l-2.56.14q-1.08.05-.57-1.21.51-1.25.7.67.19 1.93.3 3.13.11 1.21.14 2.66.03 1.45 0 2.98-.03 1.54-.12 3.31t-.21 3.7q-.12 1.93-.1 3.73.02 1.8 0 3.67-.01 1.87-.09 3.93-.08 2.07-.08 3.85 0 1.78-.05 3.28-.04 1.51-.06 3.04-.02 1.54-.25 3.72t-.41 4.08q-.18 1.9-.31 3.96-.14 2.06-.23 3.82-.1 1.75-.08 3.04.03 1.29-.03 2.71-.06 1.43-.13 2.71-.07 1.29-.18 2.58l-.29 3.4q-.17 2.11-.26 3.18-.09 1.08-.26 2.48-.17 1.41-.34 2.59-.17 1.19-.24 2.3-.07 1.11-.15 2.18-.08 1.06 1.57.52 1.65-.55 3.79-.2 2.14.34 3.32.43 1.19.09 2.38.14 1.19.05 2.29.07 1.09.01 2.7-.16 1.6-.17 2.8-.29 1.21-.12 2.85-.14 1.64-.02 2.14.06.5.09.94.32.44.24.79.61.35.37.56.82.21.46.27.97.05.5-.06 1-.11.49-.37.92-.26.44-.64.77-.39.32-.85.51-.47.19-.98.22-.5.02-.99-.11-.49-.14-.91-.42-.42-.29-.72-.69-.31-.4-.47-.88-.16-.48-.16-.99t.16-.98q.16-.48.47-.89.3-.4.72-.68.42-.29.91-.42.49-.14.99-.11.51.03.98.21.46.19.85.52.38.33.64.76t.37.93q.11.49.06 1-.06.5-.27.96-.21.46-.56.83-.35.36-.79.6-.45.24-.95.32l-.49.08-1.92.01q-1.92 0-3.29.11-1.38.1-2.56.17-1.19.07-2.32.06-1.13 0-2.41-.01-1.28-.01-2.7-.05-1.42-.03-3.67-.32-2.25-.29-4.51-.69-2.27-.4-3.5-.83-1.23-.44-1.78-1.37-.56-.93-.64-3.01-.08-2.09.16-3.16.24-1.06.63-2.64t.71-2.77q.31-1.18.48-2.26.16-1.08.54-3.15.38-2.08.57-3.31.2-1.24.38-2.48.18-1.25.35-2.58.17-1.33.3-2.67l.29-3.02q.16-1.68.16-3.84t.14-4.01q.13-1.86.15-3.98.01-2.12.07-3.73.05-1.62.18-2.99.14-1.36.12-3.14-.02-1.77-.14-3.8-.11-2.03-.21-3.83-.1-1.79-.28-3.71-.18-1.92-.31-3.84-.13-1.91-.24-3.65l-.2-3.18q-.08-1.45-.17-2.67-.1-1.22-.28-2.47-.18-1.25-.44-3.15t.04-3.04q.3-1.13 1.87-2.25 1.58-1.12 2.88-1.06 1.3.06 2.41.12 1.12.07 2.19.14 1.08.07 2.84.19 1.77.12 3 .2 1.24.08 2.95.13 1.71.05 3.06 0t2.56-.14q1.21-.09 2.35-.32 1.14-.23 1.45-.26.3-.03.61.01.3.05.59.17.29.11.54.3.26.18.46.42t.34.52q.14.28.2.58.07.3.06.61 0 .31-.09.61-.08.3-.23.57-.15.28-.36.5-.22.23-.48.4t-.55.28l-.3.1Z"/>
  <path fill="#f08c00" d="m1084.11 434.436-1.64-.01-3.26-.02q-1.62 0-3.45-.14-1.82-.14-3.93-.39-2.11-.24-3.82-.38-1.7-.14-3.44-.29-1.73-.16-2.96-.23-1.23-.08-2.68-.11-1.44-.03-2.93.03-1.49.06-2.93.21-1.43.14-.83 1.43t.83 2.69q.23 1.39.48 2.57.25 1.18.65 3.57.4 2.39.82 5.26.42 2.87.9 6.56.48 3.69.84 6.29.35 2.59.6 4.63.24 2.04.41 4.17.17 2.12.22 4.6.05 2.48.11 4.43.05 1.95.12 3.69.06 1.74.03 3.43-.03 1.7-.2 3.76-.17 2.06-.43 4.03-.25 1.97-.44 3.82-.19 1.84-.36 3.67-.17 1.82-.49 4.1-.33 2.29-.59 4.08-.25 1.8-.42 3.43-.16 1.62-.32 3.35-.16 1.72-.32 3.5-.16 1.77-.45 3.79-.29 2.02-.41 3.45-.12 1.43-.2 2.6-.08 1.17-.1 2.93-.02 1.76-.13 3.29-.1 1.53.01 2.61.11 1.09-.65-.02-.75-1.11 1.37-1.55 2.11-.44 3.69-.45 1.59-.02 2.91-.03 1.33-.01 3.2.1 1.87.1 3.22.09 1.36 0 3.18-.08l3.43-.13q1.59-.07 2.85-.19 1.25-.12 2.5-.22 1.25-.11 2.86-.04 1.62.06 3.13.15 1.52.09 2.66.15 1.14.05-.04 1.07-1.19 1.01-1.52-.04-.33-1.05-.35-2.25-.01-1.19.09-3.32.1-2.13.15-4 .06-1.88-.03-3.26-.08-1.39-.2-3.31-.12-1.92-.39-4.83-.28-2.91-.57-5.9-.29-2.99-.49-5.2-.19-2.21-.45-4.75-.27-2.55-.59-4.38-.32-1.84-.63-4.74-.32-2.91-.49-4.82-.18-1.92-.31-3.97-.13-2.04-.28-3.49-.15-1.45-.22-3.13-.07-1.67-.17-2.84-.1-1.16-.25-3.08-.15-1.92-.24-4.76-.1-2.83-.14-4.2-.04-1.37-.15-3.41-.11-2.05-.14-3.16-.04-1.11-.03-3.01 0-1.9.06-3.37.06-1.47.16-3.07.09-1.6.29-3.21.19-1.6.4-2.71.22-1.11.47-2.15.26-1.04.63-2.39.37-1.34.1-2.68-.27-1.33-.1-1.68.16-.34.4-.64.25-.29.56-.52.3-.23.65-.38.35-.15.73-.21.37-.06.76-.02.38.03.74.15.36.13.68.33.33.21.59.48.27.28.45.61.19.34.3.7.1.37.12.76.01.37-.07.74-.07.38-1.73 1.45-1.65 1.07-2.14.94-.49-.13-.92-.41-.43-.28-.75-.69-.31-.4-.49-.89-.17-.48-.18-.98 0-.52.15-1.01.16-.49.46-.9.31-.41.73-.71.42-.29.9-.44.5-.14 1.01-.12.51.02.99.2.48.18.88.51t.67.76q.27.44.39.94.12.5.07 1-.05.51-.26.98-.21.47-.55.85-.35.38-.8.62-.45.25-.96.34-.5.09-1.01.02-.51-.08-.96-.31-.45-.23-.81-.6-.36-.37-.59-.83-.22-.47-.28-.98-.07-.5.04-1 .1-.5.36-.95.26-.44.64-.78.39-.34.86-.53.47-.2-.66.83-1.14 1.04-.97.7.16-.35.4-.65.25-.29.55-.52.31-.23.66-.38.35-.15.73-.21.37-.06.75-.02.39.03.75.15.36.13.68.33.33.21.59.48.26.28.45.61.19.34.3.7.1.37.12.75.01.38-.07.75-.07.38.33 1.18.4.8.04 1.88-.35 1.07-.79 2.44-.44 1.38-.65 2.55-.2 1.17-.42 2.33-.23 1.16-.44 2.97-.2 1.82-.39 3.16-.18 1.33-.33 2.99-.14 1.65-.18 2.76-.03 1.11-.12 3.14-.09 2.02-.11 3.38-.01 1.35.09 3.15.11 1.81.13 2.87.03 1.07-.11 2.98-.14 1.9-.22 3.06-.07 1.15-.09 2.78-.01 1.63-.04 3.04-.03 1.41.14 3.44.16 2.04.29 3.89.12 1.85.51 4.68.4 2.82.7 4.72.31 1.9.69 4.45.38 2.54.72 4.7.34 2.17.84 5.12.49 2.95 1.04 5.85.55 2.9.93 4.93.39 2.02.51 3.52.13 1.5.3 3.28.17 1.77.53 3.88.37 2.11.51 4.53.15 2.42-.39 3.88t-2.26 2.46q-1.72 1-2.99.83-1.28-.17-2.34-.32-1.06-.16-2.34-.42-1.29-.26-2.54-.28-1.26-.02-2.85.01t-3.18-.03q-1.59-.07-3.41-.13-1.83-.07-3.17-.07-1.35 0-3.18.13-1.83.12-3.1.16-1.27.04-2.67.14-1.39.1-3.74.37-2.34.27-4.19-.61-1.85-.87-2.15-2.31-.29-1.44.04-2.6.33-1.17.5-2.23.18-1.07.49-2.83.31-1.75.54-2.9.23-1.15.49-2.54.26-1.39.46-3.37.21-1.97.39-3.76.18-1.8.38-3.56.21-1.76.47-3.44.27-1.67.59-3.38.32-1.71.53-3.98.21-2.26.41-4.1.2-1.84.42-3.71.21-1.87.45-3.73.24-1.86.32-3.91.08-2.06.22-3.64.14-1.59.17-3.32.04-1.72.02-3.64-.03-1.93-.15-4.3-.12-2.38-.37-4.44-.25-2.05-.56-4.03-.31-1.97-.82-4.55-.52-2.59-1.21-6.17t-1.36-6.28q-.68-2.69-1.46-5.08-.79-2.38-1.07-3.66-.28-1.28-.52-2.52t-.67-4.01q-.43-2.76.19-4.1.62-1.34 2.32-1.9 1.71-.55 3.49-.55 1.77 0 3.57.17 1.81.18 3.14.46t2.49.49q1.15.21 2.88.36 1.73.16 3.39.32 1.66.16 3.77.19 2.11.03 3.81.1 1.7.07 3.32.07l3.26-.02q1.64-.01 1.91.02t.52.13q.25.1.48.25.22.16.4.36.18.2.31.44.12.24.19.51.07.26.07.53-.01.27-.07.53-.07.27-.19.51-.13.24-.31.44t-.4.36q-.23.15-.48.25-.26.1-.53.13l-.26.03Z"/>
  <text x="60.914" y="24.528" fill="#1e1e1e" dominant-baseline="alphabetic" font-family="Virgil, Segoe UI Emoji" font-size="28" style="white-space:pre" text-anchor="middle" transform="translate(985.082 555.76)">Analytics</text>
  <path fill="#1e1e1e" d="m900.447 425.387-2.21.2q-2.23.19-5.91.41-3.68.21-6.59.29-2.9.07-5.64.09-2.73.02-5.37.02-2.65 0-5.58-.12-2.93-.11-4.75-.1-1.82.01-3.43-.02l-2.69-.05q-1.08-.03-2.31-.09t-2.34-.13q-1.11-.07-2.18-.07-1.06.01-2.2-.06-1.15-.07.42 2.97 1.56 3.05 2.18 5.83.61 2.78 1.19 6.01.59 3.23.92 6.3.34 3.06.46 6.62t.15 6.54q.04 2.98-.07 5.92-.12 2.94-.42 6.4-.3 3.45-.66 7.35-.37 3.9-.75 7.21-.39 3.31-.66 5.68-.27 2.36-.32 4.15-.05 1.8-.08 3.72-.03 1.93-.07 3.61-.05 1.69-.1 3.1-.06 1.42-.13 2.71-.08 1.29-.25 2.59-.18 1.3-.31 2.51l-.25 2.35q-.12 1.13-.2 2.69-.09 1.57-.22 3.37-.13 1.81-.2 3.42l-.13 3q-.05 1.4-.05 2.7.01 1.3-.12 3.02t-.34 2.84q-.21 1.12-.3 2.42-.08 1.31-.29 2.59-.2 1.28-.56 2.81-.36 1.53-1.66.47-1.31-1.06.82-1.33 2.14-.26 4.78-.04 2.65.22 5.59.4 2.95.18 5.61.44 2.65.25 5.61.63l6.14.79q3.19.4 5.02.62 1.83.22 4.05.49 2.23.27 5.51.69 3.27.42 6.85.71 3.57.3 6.03.43 2.48.14 4.2.12 1.72-.02 3.1-.17 1.39-.15 2.47-.28 1.09-.13 2.48-.28 1.4-.14.66-1.26-.75-1.11-.95-2.81-.21-1.71-.4-3.68l-.39-4.06q-.19-2.09-.45-4.74-.25-2.65-.77-6.14-.52-3.49-.85-6.3-.33-2.81-.65-4.29-.31-1.48-.66-4.57l-.57-5.18q-.22-2.1-.63-4.96-.41-2.87-.93-6.03-.53-3.15-1.03-5.66-.51-2.51-1.09-5.68-.59-3.17-1.02-6.03-.43-2.87-.79-4.97-.36-2.1-.71-3.57-.36-1.48-.82-4.69-.46-3.21-.83-5.47-.37-2.25-.7-4.6-.34-2.34-.61-4.84-.27-2.51-.61-4.31-.33-1.81-.58-3.86-.24-2.05-.46-3.26-.21-1.21-.39-2.76-.19-1.56-.54-3.38-.35-1.82-.51-3.26-.16-1.44-.07-3.71.09-2.26.12-2.56.04-.31.15-.6.1-.28.28-.54.17-.25.4-.46.23-.21.5-.35.27-.15.57-.22.3-.08.61-.08.3 0 .6.07t.57.21q.27.14.51.35.23.2.4.45.18.25.29.54.11.29.15.6.04.3-.8-.89-.83-1.19-.47-.99.36.21.63.51.28.31.44.69.17.38.2.79.03.41-.07.81-.1.4-.32.75t-.54.6q-.33.26-.71.41-.39.14-.8.15-.41.01-.81-.11-.39-.12-.73-.36-.33-.24-.57-.58-.25-.34-.37-.73-.12-.4-.11-.8.01-.41.16-.8.14-.39.4-.71.26-.33.61-.55.35-.22.75-.32t.81-.07q.4.04.78.2t.69.44q.31.28.51.64.21.36.28.76.08.41.03.81-.06.41-.24.78-.19.37-.48.66-.29.3-.66.48-.37.18-.78.24-.4.05-1.65-1.21-1.24-1.27-1.21-1.57.04-.31.15-.6.1-.28.28-.54.17-.25.4-.46.23-.21.5-.35.27-.15.57-.22.3-.08.61-.08.3 0 .6.07t.57.21q.27.14.51.35.23.2.4.45.18.25.29.54.11.29.15.59.04.31-.14 1.96-.19 1.66-.29 2.99-.1 1.33-.17 2.67-.08 1.34-.03 2.42l.1 2.62q.06 1.56.04 2.73-.01 1.18.22 3.17.24 2 .49 3.88.26 1.88.55 4.33.3 2.45.66 4.76.36 2.31.78 4.58.42 2.28.95 5.45.52 3.18.67 4.68.16 1.51.53 3.63.38 2.13.82 4.94.44 2.82 1.05 5.96.61 3.13 1.16 5.68.55 2.55 1.13 5.73.58 3.17 1.07 6.07.48 2.9.78 4.97.31 2.08.77 5.1.47 3.01.65 4.56.19 1.54.63 4.27.44 2.74 1.14 6.27.69 3.52 1.16 6.1.47 2.57.93 4.61.46 2.04.91 3.96.44 1.92.79 3.54.35 1.62.69 3.8.33 2.19-.67 4.06-1 1.88-2.38 1.95-1.39.08-2.79-.07-1.4-.15-2.52-.29-1.11-.14-2.51-.35-1.39-.21-3.13-.32-1.74-.11-4.26-.2-2.51-.09-6.15-.33-3.64-.23-6.89-.56-3.25-.33-5.55-.48-2.3-.15-4.08-.39-1.78-.24-4.97-.49-3.18-.25-6.06-.41-2.87-.17-5.43-.14-2.57.03-5.51.22-2.95.18-5.59.4-2.63.23-4.24.35-1.61.12-2.88-.17-1.27-.3-2.59-2.28-1.32-1.98-1.07-3.1.26-1.11.63-2.76.37-1.65.52-2.83.16-1.17.47-2.62.31-1.45.54-2.81.22-1.37.32-2.94.1-1.57.28-2.99.17-1.42.37-3 .2-1.57.48-3.21.28-1.63.6-3.38.32-1.75.55-2.86l.47-2.38q.25-1.28.54-2.42.29-1.13.51-2.37.23-1.25.45-2.59.22-1.35.4-2.96.18-1.61.25-3.58.06-1.98.24-3.84.17-1.85.42-4.22l.62-5.65q.35-3.29.69-7.17.34-3.89.59-7.27.26-3.38.31-6.24.05-2.86-.05-5.8-.11-2.95-.33-6.36-.21-3.41-.67-6.32-.46-2.9-1.2-5.98-.75-3.09-1.57-5.66-.83-2.57-1.9-5.2-1.07-2.63-1.4-5.06-.33-2.42.95-3.59t3.28-.94q2.01.24 3.23.37 1.23.12 2.28.34 1.06.21 3.26.64 2.21.44 3.73.62 1.53.19 3.36.28 1.83.1 4.71.18 2.87.07 5.5.04 2.63-.04 5.33-.12 2.7-.07 5.54-.23 2.85-.15 6.44-.46 3.6-.32 5.8-.66 2.21-.35 2.43-.35.22 0 .44.06.22.05.41.15.2.11.37.26.17.15.3.33.13.19.21.4.08.21.1.43.03.22 0 .44-.02.22-.1.43t-.21.4q-.13.18-.29.33-.17.15-.37.25-.2.11-.42.16l-.22.06Z"/>
  <path fill="#fff" fill-rule="evenodd" stroke-width="0" d="M884.334 516.625c-.57-.35-2.03-1.89-3.4-2.09-1.36-.2-3.43.34-4.8.89-1.36.55-2.59 1.41-3.4 2.4-.8.99-1.91 2.57-1.44 3.54.47.98 2.85 2 4.28 2.3 1.42.3 2.91.29 4.27-.48 1.35-.77 3.17-3.14 3.85-4.16.69-1.03.38-1.48.24-1.99s-1.14-1.01-1.07-1.07c.06-.07 1.22.55 1.47.66"/>
  <path fill="#1e1e1e" d="m882.944 518.885-.97-.58q-.96-.58-2.33-.48-1.37.1-2.39.62-1.01.52-1.92 1.43-.91.92.31.67t2.55-.67q1.32-.42 1.84-1.44t.47-1.97q-.06-.97.11-1.36.16-.38.4-.72.25-.34.58-.6.32-.27.69-.45.38-.19.79-.27.41-.09.83-.08.42.01.81.13.4.11.77.32.36.2.67.49.3.29.53.64.23.35.36.75.14.39.18.81.03.42-.03.82-.06.42-.66-1.4-.59-1.83-.21-1.42.37.42.6.93.23.52.28 1.08.05.55-.09 1.09-.13.55-.43 1.03-.3.47-.73.83-.44.35-.97.55-.52.2-1.07.22-.57.01-1.1-.15-.54-.16-1-.48-.46-.33-.79-.78-.33-.46-.5-.99-.17-.54-.16-1.09.01-.56.2-1.09t.54-.97q.35-.44.82-.75.48-.3 1.02-.44.55-.14 1.11-.1.55.04 1.06.26.52.22.94.59.42.37.7.86.28.49.39 1.04.11.55.04 1.1-.07.56-.32 1.06-.24.51-.64.91-.39.4-.9.65-.5.25-1.04.33-.56.08-1.11-.02-.56-.1-1.64-2.2-1.09-2.1-.92-2.48.16-.39.4-.73.25-.34.58-.6.32-.27.69-.45.38-.19.79-.27.41-.09.83-.08.42.01.81.13.4.11.77.32.36.2.67.49.3.29.53.64.23.35.36.75.14.39.18.81.03.42-.03.82-.06.42-.06 1.36.01.95-.48 2.08-.49 1.14-1.33 2.28-.84 1.13-1.95 2.01-1.11.89-2.47 1.39-1.35.5-2.96.62-1.61.11-3.54-.27-1.94-.38-3.56-1.54-1.62-1.16-2.03-2.15-.41-1-.2-2.52.21-1.53 1.21-2.96.99-1.43 2.29-2.34 1.3-.92 3.4-1.67 2.09-.75 3.78-.86 1.68-.12 3.08.31 1.39.44 2.36 1.06.99.62 1.24.82.25.2.44.46.2.25.33.54.13.29.18.61.06.32.04.62-.03.32-.12.63-.1.3-.27.58-.17.27-.4.49-.22.23-.5.39-.27.17-.58.26-.31.09-.63.11-.31.02-.62-.05-.32-.06-.61-.19l-.29-.13ZM863.468 442.435l2.56.13q2.57.14 4.86.24 2.28.1 3.92.07l3.2-.06q1.56-.04 2.97-.24 1.41-.2 3.83-.32 2.41-.12 2.8-.05.39.06.74.24.34.19.61.47.27.28.44.64.17.35.21.74.04.39-.04.77t-.28.72q-.21.34-.5.59-.3.26-.67.4-.36.15-.75.17-.39.02-.77-.08-.38-.11-.71-.32-.32-.22-.56-.54-.24-.31-.37-.68-.12-.37-.12-.75 0-.4.12-.77.13-.37.36-.68.24-.32.56-.54.33-.22.7-.32.38-.11.77-.09.4.02.76.16.37.15.67.4.3.26.5.59.2.34.29.72.08.38.04.76-.04.39-.2.75-.17.36-.44.64-.27.29-.61.47-.35.19-.74.25l-.38.07-2.19-.03q-2.19-.03-3.84-.11-1.64-.07-3.2-.11l-3.2-.06q-1.64-.03-3.92.07-2.29.1-4.86.24-2.56.13-2.84.1-.28-.03-.54-.13-.27-.1-.5-.27-.23-.16-.42-.37-.19-.21-.32-.46t-.2-.53q-.07-.27-.07-.55t.07-.55q.07-.28.2-.53t.32-.46q.19-.21.42-.37.23-.17.5-.27.26-.1.54-.13l.28-.03ZM863.593 452.896l1.79-.04q1.81-.04 3.61-.14 1.81-.1 3.98-.26t4.32-.3q2.15-.14 3.62-.39 1.47-.25 2.62-.41 1.14-.17 4.05-.44 2.91-.26 3.27-.22.35.05.67.2.32.16.58.41.25.25.41.56.16.32.21.67.06.35-.01.71-.06.35-.23.66-.18.31-.44.55-.26.24-.59.38-.32.15-.68.18-.35.03-.7-.05-.34-.08-.65-.27-.3-.19-.52-.47-.23-.27-.36-.6-.12-.34-.13-.69-.02-.36.08-.7.11-.34.31-.63t.49-.5q.29-.22.63-.32.34-.11.69-.1.36 0 .7.12.33.12.61.34.28.22.47.52.2.3.29.64.09.35.06.7-.02.36-.16.69-.14.32-.37.59-.24.27-.55.45-.31.17-.65.25l-.35.07-2.85.08q-2.85.08-3.91.07-1.07-.01-2.59.11-1.52.12-3.62.42-2.1.29-4.34.66-2.23.37-4.09.56-1.87.19-3.67.32-1.8.12-2.06.1-.27-.02-.53-.1-.26-.09-.49-.23-.23-.14-.42-.34-.19-.2-.33-.43-.14-.24-.22-.5-.07-.26-.09-.53-.01-.26.04-.53.06-.27.17-.51.12-.25.29-.46.17-.22.39-.38.21-.17.46-.27.25-.11.52-.16l.27-.04ZM863.232 463.677l1.52-.07q1.53-.06 3.22-.06 1.68-.01 3.31-.01 1.62.01 3.09-.01 1.48-.01 2.94-.1 1.46-.09 2.52-.26 1.06-.16 2.18-.45 1.12-.28 2.33-.7 1.21-.41 2.45-.73 1.25-.33 2.99-.48 1.75-.15 2.2-.08.46.07.86.29.41.21.73.54.32.34.51.76.2.41.25.87.05.46-.05.91t-.34.84q-.23.4-.58.7-.35.3-.78.47-.43.16-.89.19-.46.02-.9-.1-.44-.11-.83-.37-.38-.26-.66-.62-.28-.37-.43-.8-.14-.44-.14-.9-.01-.46.14-.9.15-.44.42-.8.28-.37.66-.63t.83-.38q.44-.13.9-.1.46.02.89.19t.78.47q.35.29.59.69.24.39.34.84.1.45.05.91t-.24.88q-.2.41-.51.75-.32.33-.72.55-.41.21-.86.28l-.46.08-2.23.17q-2.24.17-3.66.45-1.41.28-2.82.57-1.4.29-2.59.38-1.18.08-2.78.18-1.6.1-3.06.1-1.46-.01-3.06.02-1.59.03-3.2.09-1.62.06-3.14.15-1.53.09-1.82.07-.29-.02-.57-.11-.28-.09-.53-.25-.25-.15-.45-.36-.21-.21-.36-.46-.15-.26-.23-.54-.09-.28-.1-.57-.02-.29.04-.58.05-.28.18-.55.12-.27.31-.5.18-.23.41-.41.24-.17.5-.29.27-.12.56-.17l.29-.05Z"/>
  <text x="43.19" y="24.528" fill="#1e1e1e" dominant-baseline="alphabetic" font-family="Virgil, Segoe UI Emoji" font-size="28" style="white-space:pre" text-anchor="middle" transform="translate(839.905 555.33)">Server</text>
  <text x="8.75" y="24.528" fill="#1e1e1e" dominant-baseline="alphabetic" font-family="Virgil, Segoe UI Emoji" font-size="28" style="white-space:pre" text-anchor="middle" transform="translate(944.381 483.082)">+</text>
  <text x="47.936" y="24.528" fill="#1e1e1e" dominant-baseline="alphabetic" font-family="Virgil, Segoe UI Emoji" font-size="28" style="white-space:pre" text-anchor="middle" transform="translate(391.616 540.267)">Alright!</text>
  <text x="50.82" y="24.528" fill="#868e96" dominant-baseline="alphabetic" font-family="Virgil, Segoe UI Emoji" font-size="28" style="white-space:pre" text-anchor="middle" transform="translate(10 314.573)">Later...</text>
  <path fill="#868e96" d="m54.178 277.413.02 1.45q.02 1.45.1 3.45t.16 3.77q.09 1.76.25 3.28.16 1.51.19 3.42t.07 3.54q.04 1.63.07 3.24.03 1.61.09 2.89t.16 3.75q.1 2.47.04 2.86-.06.38-.24.72-.19.34-.47.61-.28.26-.63.42-.35.17-.73.21-.39.04-.76-.04-.38-.09-.7-.29-.33-.19-.58-.49-.25-.29-.4-.65-.14-.36-.16-.75-.02-.38.08-.75.11-.38.32-.7.22-.32.53-.55.3-.23.66-.36.37-.12.75-.12.39 0 .76.12.36.12.67.36.31.23.52.55.22.32.32.69.11.38.09.76-.02.39-.17.75-.14.36-.39.65-.25.29-.58.49-.33.2-.71.29-.38.08-.76.04-.39-.04-.74-.21-.34-.16-.62-.42-.28-.27-.46-.61-.18-.34-.24-.72l-.06-.38.09-2.47q.1-2.46.15-3.74.05-1.27.05-2.86.01-1.6 0-3.19 0-1.6-.09-3.39-.09-1.8-.2-3.39-.11-1.59-.2-3.26-.08-1.67-.42-3.87-.33-2.2-.31-3.65.02-1.45.06-1.71.03-.27.12-.52.1-.25.25-.47.15-.23.36-.4.2-.18.44-.31.23-.12.49-.19.27-.06.53-.06t.53.06q.26.07.49.19.24.13.44.31.21.17.36.4.15.22.25.47.09.25.12.52l.04.26ZM52.65 354.507l.09 1.44q.1 1.45.08 3.3-.01 1.85-.11 4.57-.11 2.73-.19 4.93-.08 2.21-.02 3.71.06 1.51.13 2.82.07 1.32.12 2.69.05 1.37.1 3.02t.06 3.24q0 1.6.05 2.69.06 1.09.02 2.28-.04 1.2-1.99 2.56-1.93 1.35-3.57.33t-2.63-2.54q-.99-1.52-1.82-3.02-.84-1.5-1.54-2.83-.71-1.32-1.23-2.35-.51-1.02-.92-1.58-.41-.56-.54-.94-.13-.38-.17-.78-.03-.4.03-.79.06-.4.21-.77.16-.37.39-.7.24-.32.55-.58.31-.26.67-.43.36-.18.75-.26.39-.09.8-.07.4.01.78.11.39.11.74.31t.64.47q.29.28.51.61.22.34.38 1.43.15 1.09.5 2.14t1.34 2.79q.99 1.73 1.81 3 .82 1.26 1.64 2.37.81 1.11-.74.87-1.55-.23-.73-1.48.82-1.24 1.8-2.31.99-1.07 1.95-2.16t2.71-3.11q1.75-2.02 2.14-2.41.39-.39.88-.64.5-.25 1.05-.33.54-.07 1.09.03.54.1 1.03.37.48.27.85.69.37.41.59.92.22.5.27 1.06.05.55-.09 1.09-.13.53-.43 1-.29.47-.72.82t-.95.54q-.52.19-1.08.21-.55.01-1.08-.15t-.98-.48q-.45-.32-.78-.77-.32-.45-.48-.98-.17-.53-.16-1.08.02-.55.21-1.08.19-.52.53-.95.35-.43.81-.73.47-.3 1.01-.44.53-.13 1.09-.09.55.05 1.06.26.51.22.92.59.41.37.69.85.27.48.38 1.02.1.55.03 1.1t-.32 1.04l-.24.5-2.01 2.34q-2.01 2.35-3.02 3.5-1.01 1.15-1.82 2-.82.86-1.72 1.91-.91 1.04-2.01 2.13-1.11 1.08-2.23 1.1-1.13.02-2.66-.86-1.52-.88-2.45-2.15-.92-1.28-1.86-2.72-.94-1.44-1.82-2.96-.88-1.52-1.42-2.92-.54-1.41-.63-2.51-.1-1.1-.23-1.48-.13-.38-.17-.78-.03-.4.03-.79.06-.4.21-.77.16-.37.39-.7.24-.32.55-.58.31-.26.67-.43.36-.18.75-.26.39-.09.79-.07.41.01.79.11.39.11.74.31t.64.47q.29.28.51.61.22.34.2.32-.02-.02.59 1.06.6 1.07 1.14 2.17.54 1.1 1.19 2.43.64 1.33 1.37 2.7.73 1.37 1.07 2.41.33 1.03-1.45 1.87-1.78.84-1.58-.44.2-1.29.45-2.75.25-1.47.39-2.54.14-1.06.33-2.45.19-1.39.24-2.76.05-1.37.12-2.68.06-1.32.12-2.82.05-1.5-.04-3.7t-.22-4.9q-.13-2.69-.21-4.46-.08-1.77-.14-3.22-.06-1.46-.04-1.72.02-.27.1-.53t.23-.49q.14-.23.33-.42.2-.19.43-.33.23-.14.49-.22.27-.08.54-.09.26-.02.53.03.26.05.51.17.25.11.46.28.21.17.38.39.17.21.28.46.11.25.15.52l.05.27Z"/>
  <path fill="#1e1e1e" d="m778.665 509.247-3.92-.04q-3.93-.03-10.1-.06-6.18-.02-19.24.69-13.07.7-26.14 1.5-13.07.79-26.99 1.65-13.92.85-26.74 1.42-12.82.56-29.07 1.23-16.24.67-31.89 1.26-15.64.59-28.57 1.3-12.93.71-25.97 1.25-13.03.55-26.49 1.28-13.47.74-30.47 1.06-17 .31-29.09.45-12.09.13-25.17.19-13.07.05-23.75-.09-10.69-.15-24.52-.21-13.83-.07-25.73-.37t-22.96-.7q-11.07-.4-20.64-.82-9.58-.42-18.11-.84t-18.95-.75q-10.41-.33-17.07-.47-6.67-.14-13.98-.43-7.31-.3-14.1-.43-6.8-.13-13.2-.18-6.4-.06-9.98-.08-3.57-.02-6.55-.03-2.98-.01-5.25-.02H188.395q-2.55-.01-4.28.18-1.73.18-3.05.34-1.32.16-3.48.13t-3.76.05q-1.6.08-3.29.12-1.69.04-3.1.12-1.41.07-2.81.24-1.4.18-2.7.3-1.3.13-2.41.21-1.11.09-2.28.15-1.16.06-2.51.09-1.35.03-3.11-.02-1.77-.05-3.21-.04-1.44.02-3.2.12-1.77.11-3.29.04-1.52-.06-2.88.01-1.37.07-3.12-.06-1.76-.13-3.01-.11-1.26.03-1.7-.03l-.82-.11q-.38-.05-.74-.19-.36-.13-.67-.35-.31-.22-.57-.51-.25-.28-.43-.62-.17-.34-.26-.72-.09-.37-.09-.75t.09-.76q.1-.37.28-.7.18-.34.43-.63.26-.28.57-.5.32-.22.68-.35.35-.13.73-.18.38-.04 1.81-1.02 1.42-.97 3.45-2.04 2.04-1.07 3.07-1.74 1.03-.68 2.1-1.35 1.08-.67 2.14-1.47 1.06-.8 1.93-1.52.87-.72 1.24-1.09.36-.36.68-.59.31-.22.66-.36.36-.14.74-.2.38-.05.76-.01t.74.17q.36.13.68.34.32.21.58.5.26.28.44.61.19.34.28.71.1.37.11.75.01.39-.08.76-.08.37-.26.72-.17.34-.42.63-.25.29-1.69 1.11-1.43.81-2.41 1.25-.98.44-2.6 1.08-1.63.63-2.72 1.15-1.1.52-2.62 1.23t-2.56 1.11q-1.03.4-2.05.95-1.01.55-1.21-.66-.21-1.21 1.19-.46 1.39.75 3.21 1.86t3.43 1.93q1.6.82 2.81 1.38 1.21.55 2.41.88 1.2.34 3.33 1.07 2.14.72 2.65.89.51.17.94.49.43.32.74.77.3.44.45.96.15.51.12 1.05-.02.54-.22 1.04-.19.5-.54.91-.34.41-.8.69-.46.29-.98.41-.53.11-1.06.06-.54-.05-1.03-.27-.49-.23-.88-.59-.39-.37-.65-.84-.25-.48-.34-1.01-.1-.53-.01-1.06.08-.53.33-1.01.25-.47.63-.85.39-.37.88-.6.48-.23 1.02-.29.53-.06 1.06.05.52.11.99.38.46.28.81.69.35.4.56.9.2.5.23 1.04.03.53-.11 1.05-.13.52-.43.97-.3.44-.73.77-.42.33-.93.51-.51.17-1.05.18h-.53l-1.94-.66q-1.93-.67-3.26-1.06-1.34-.4-2.92-1.02-1.59-.61-2.94-1.35-1.35-.74-2.42-1.24-1.07-.5-2.88-1.52-1.8-1.02-3.14-1.74-1.33-.72-2.21-1.38-.88-.67-1.12-2.83-.25-2.16.57-3.28.82-1.13 2-1.88 1.18-.75 2.86-1.44 1.69-.68 3.19-1.29t2.6-1.16q1.1-.55 2.68-1.45 1.58-.91 3.16-1.58 1.58-.68 1.9-.91.31-.22.66-.36.36-.14.74-.2.38-.05.76-.01t.74.17q.36.13.68.34.32.21.58.5.26.28.44.61.19.34.28.71.1.37.11.75.01.39-.08.76-.08.37-.26.72-.17.34-.42.63-.25.29-.77.73t-1.73 1.29q-1.2.87-2.33 1.6-1.13.74-2.08 1.37-.96.62-2.13 1.48-1.16.85-2.49 1.73-1.33.88-2.41 1.45-1.07.57-2.45 1.15-1.37.57-2.64 1.14-1.26.57-1.64.52-.38-.05-.74-.19-.35-.13-.67-.35-.31-.22-.57-.51-.25-.28-.43-.62-.17-.34-.26-.72-.09-.37-.09-.75t.09-.75q.1-.38.28-.71.17-.34.43-.63.25-.28.57-.5.32-.22.67-.35.36-.13.74-.18.38-.04 1.13.1.74.15 1.85.23 1.11.08 2.72.28 1.6.21 3.12.33 1.52.13 2.87.37 1.35.23 3.11.34 1.76.1 3.2.11 1.44.02 3.2-.04 1.76-.05 3.09-.03 1.33.02 2.47.05 1.13.04 2.2.08 1.06.04 2.28.05 1.21 0 2.79-.09 1.59-.1 2.99-.04 1.41.07 3.1.11 1.68.03 3.27.09 1.6.06 3.71-.01 2.11-.07 3.4 0 1.29.06 3.11.01 1.83-.04 4.38-.04H198.905q2.84 0 5.12.01 2.28 0 5.27.01 2.98.01 6.55.03 3.58.03 9.99.08 6.42.06 13.24.18 6.83.13 14.11.43 7.29.3 13.96.44 6.68.14 17.12.46 10.44.33 18.96.75 8.53.42 18.09.84 9.57.42 20.62.82 11.05.4 22.92.7 11.87.3 25.71.37 13.85.06 24.51.2 10.66.15 23.72.09 13.07-.05 25.15-.19 12.08-.13 29.04-.45 16.95-.31 30.43-1.06 13.48-.74 26.49-1.28 13.02-.55 25.98-1.27 12.95-.72 28.59-1.31 15.64-.6 31.88-1.28 16.24-.67 29.04-1.25 12.79-.58 26.71-1.45 13.92-.88 27-1.7 13.07-.82 26.22-1.56 13.14-.74 19.32-.76 6.17-.03 10.1-.06 3.92-.04 4.1-.01.19.02.36.08.18.07.34.18.15.11.28.25.12.14.21.3.09.17.13.35.05.19.05.37t-.05.37q-.04.18-.13.35-.09.16-.21.3-.13.14-.28.25-.16.11-.34.18-.17.06-.36.08l-.18.03ZM783.541 188.968l-3.92-.04q-3.93-.03-10.1-.06-6.18-.02-19.24.69-13.07.7-26.14 1.5-13.07.79-26.99 1.65-13.92.85-26.74 1.42-12.82.56-29.07 1.23-16.24.67-31.89 1.26-15.64.59-28.57 1.3-12.93.71-25.97 1.25-13.03.55-26.49 1.28-13.47.74-30.47 1.06-17 .31-29.09.45-12.09.13-25.17.19-13.07.05-23.75-.09-10.69-.15-24.52-.21-13.83-.07-25.73-.37t-22.96-.7q-11.07-.4-20.64-.82-9.58-.42-18.11-.84t-18.95-.75q-10.41-.33-17.07-.47-6.67-.14-13.98-.43-7.31-.3-14.1-.43-6.8-.13-13.2-.18-6.4-.06-9.98-.08-3.57-.02-6.55-.03-2.98-.01-5.25-.02H193.271q-2.55-.01-4.28.18-1.73.18-3.05.34-1.32.16-3.48.13t-3.76.05q-1.6.08-3.29.12-1.69.04-3.1.12-1.41.07-2.81.24-1.4.18-2.7.3-1.3.13-2.41.21-1.11.09-2.28.15-1.16.06-2.51.09-1.35.03-3.11-.02-1.77-.05-3.21-.04-1.44.02-3.2.12-1.77.11-3.29.04-1.52-.06-2.88.01-1.37.07-3.12-.06-1.76-.13-3.01-.11-1.26.03-1.7-.03l-.82-.11q-.38-.05-.74-.19-.36-.13-.67-.35-.31-.22-.57-.51-.25-.28-.43-.62-.17-.34-.26-.72-.09-.37-.09-.75t.09-.76q.1-.37.28-.7.18-.34.43-.63.26-.28.57-.5.32-.22.68-.35.35-.13.73-.18.38-.04 1.81-1.02 1.42-.97 3.45-2.04 2.04-1.07 3.07-1.74 1.03-.68 2.1-1.35 1.08-.67 2.14-1.47 1.06-.8 1.93-1.52.87-.72 1.24-1.09.36-.36.68-.59.31-.22.66-.36.36-.14.74-.2.38-.05.76-.01t.74.17q.36.13.68.34.32.21.58.5.26.28.44.61.19.34.28.71.1.37.11.75.01.39-.08.76-.08.37-.26.72-.17.34-.42.63-.25.29-1.69 1.11-1.43.81-2.41 1.25-.98.44-2.6 1.08-1.63.63-2.72 1.15-1.1.52-2.62 1.23t-2.56 1.11q-1.03.4-2.05.95-1.01.55-1.21-.66-.21-1.21 1.19-.46 1.39.75 3.21 1.86t3.43 1.93q1.6.82 2.81 1.38 1.21.55 2.41.88 1.2.34 3.28 1.06t2.59.89q.51.17.94.49.43.32.74.76.3.44.45.96.15.52.12 1.05-.02.54-.22 1.04-.19.5-.53.91-.35.41-.81.69-.45.28-.98.4-.52.12-1.06.07-.53-.05-1.02-.28-.49-.22-.88-.58-.39-.37-.65-.84-.25-.47-.34-1-.1-.53-.01-1.06.08-.53.33-1.01t.63-.85q.39-.37.88-.6.48-.23 1.01-.29.54-.06 1.06.05.53.11.99.38.46.28.81.68.35.41.56.91.2.49.23 1.03.03.53-.1 1.05-.14.52-.44.97-.3.44-.73.77-.42.33-.93.51-.5.17-1.04.18h-.54l-1.88-.65q-1.88-.66-3.21-1.05-1.34-.4-2.92-1.02-1.59-.61-2.94-1.35-1.35-.74-2.42-1.24-1.07-.5-2.88-1.52-1.8-1.02-3.14-1.74-1.33-.72-2.21-1.38-.88-.67-1.12-2.83-.25-2.16.57-3.28.82-1.13 2-1.88 1.18-.75 2.86-1.44 1.69-.68 3.19-1.29t2.6-1.16q1.1-.55 2.68-1.45 1.58-.91 3.16-1.58 1.58-.68 1.9-.91.31-.22.66-.36.36-.14.74-.2.38-.05.76-.01t.74.17q.36.13.68.34.32.21.58.5.26.28.44.61.19.34.28.71.1.37.11.75.01.39-.08.76-.08.37-.26.72-.17.34-.42.63-.25.29-.77.73t-1.73 1.29q-1.2.87-2.33 1.6-1.13.74-2.08 1.37-.96.62-2.13 1.48-1.16.85-2.49 1.73-1.33.88-2.41 1.45-1.07.57-2.45 1.15-1.37.57-2.64 1.14-1.26.57-1.64.52-.38-.05-.74-.19-.35-.13-.67-.35-.31-.22-.57-.51-.25-.28-.43-.62-.17-.34-.26-.72-.09-.37-.09-.75t.09-.75q.1-.38.28-.71.17-.34.43-.63.25-.28.57-.5.32-.22.67-.35.36-.13.74-.18.38-.04 1.13.1.74.15 1.85.23 1.11.08 2.72.28 1.6.21 3.12.33 1.52.13 2.87.37 1.35.23 3.11.34 1.76.1 3.2.11 1.44.02 3.2-.04 1.76-.05 3.09-.03 1.33.02 2.47.05 1.13.04 2.2.08 1.06.04 2.28.05 1.21 0 2.79-.09 1.59-.1 2.99-.04 1.41.07 3.1.11 1.68.03 3.27.09 1.6.06 3.71-.01 2.11-.07 3.4 0 1.29.06 3.11.01 1.83-.04 4.38-.04H203.781q2.84 0 5.12.01 2.28 0 5.27.01 2.98.01 6.55.03 3.58.03 9.99.08 6.42.06 13.24.18 6.83.13 14.11.43 7.29.3 13.96.44 6.68.14 17.12.46 10.44.33 18.96.75 8.53.42 18.09.84 9.57.42 20.62.82 11.05.4 22.92.7 11.87.3 25.71.37 13.85.06 24.51.2 10.66.15 23.72.09 13.07-.05 25.15-.19 12.08-.13 29.04-.45 16.95-.31 30.43-1.06 13.48-.74 26.49-1.28 13.02-.55 25.98-1.27 12.95-.72 28.59-1.31 15.64-.6 31.88-1.28 16.24-.67 29.04-1.25 12.79-.58 26.71-1.45 13.92-.88 27-1.7 13.07-.82 26.22-1.56 13.14-.74 19.32-.76 6.17-.03 10.1-.06 3.92-.04 4.1-.01.19.02.36.08.18.07.34.18.15.11.28.25.12.14.21.3.09.17.13.35.05.19.05.37t-.05.37q-.04.18-.13.35-.09.16-.21.3-.13.14-.28.25-.16.11-.34.18-.17.06-.36.08l-.18.03ZM985.019 44.83l.22-1.45q.22-1.46.76-3.09t1.52-3.33q.99-1.71 1.82-2.97.83-1.26 2.87-2.9 2.05-1.63 3.42-2.61 1.37-.97 2.6-1.62 1.23-.65 2.4-1.03t3.53-.27q2.36.11 3.41.6 1.05.5 1.96 1.21.91.72 1.78 1.9.87 1.17 1.55 2.61.67 1.44 1.1 2.63l1.05 2.95q.62 1.77 1.09 3.02.47 1.25.8 2.24.32.99.37 1.36.04.36 0 .73t-.17.71q-.13.35-.34.65-.21.31-.48.56-.28.25-.61.42-.32.18-.68.27-.36.09-.73.09t-.74-.08q-.36-.09-.69-.26-.33-.17-.61-.41-.28-.25-.49-.55-.21-.3-.35-.65-.13-.35 1.45.85 1.58 1.19-.6 1.29-2.19.09-3.37.12-1.18.03-2.46.11-1.27.07-2.9.14-1.62.06-3.05.11-1.42.04-4.22.16-2.79.12-3.25.05-.45-.06-.86-.26-.41-.21-.73-.53-.33-.33-.53-.74t-.26-.86q-.06-.46.02-.9.09-.45.32-.84.22-.4.56-.71.35-.3.77-.48.42-.18.87-.22.46-.03.91.08.44.11.82.36.39.24.68.6.28.36.44.79.16.43.17.88.01.46-.13.89-.13.44-.4.81-.27.37-.64.64-.37.26-.81.4-.44.13-.9.12-.45-.02-.88-.17-.43-.16-.79-.45-.36-.29-.6-.67-.25-.39-.36-.84-.11-.44-.07-.9.04-.44.22-.86t.49-.76q.31-.34.71-.57.4-.22.85-.31l.45-.08 2.74-.06q2.74-.06 4.04-.13 1.3-.08 2.92-.3 1.61-.22 3.01-.38 1.4-.16 2.68-.24 1.28-.08 2.73-.07 1.46 0 3.63 1.04t2.22 1.41q.04.36 0 .73t-.17.71q-.13.35-.34.65-.21.31-.48.56-.28.25-.61.42-.32.18-.68.27-.36.09-.73.09t-.74-.08q-.36-.09-.69-.26-.33-.17-.61-.41-.28-.25-.49-.55-.21-.3-.34-.65-.14-.35-.18-.52-.05-.18-.32-1.47-.28-1.29-.69-2.77-.42-1.49-1-3.35-.59-1.87-1.48-3.61-.89-1.75-1.74-2.53-.85-.77-1.94-1.06-1.08-.29-2.88.2-1.8.5-3.03 1.31-1.22.8-2.7 2.2-1.49 1.39-2.24 2.45-.76 1.06-1.5 2.42-.74 1.36-1.18 2.59-.45 1.23-.68 2.68-.23 1.43-.31 1.7-.08.27-.21.51-.14.24-.33.45-.2.2-.43.35-.24.15-.5.24-.27.09-.54.12-.27.02-.55-.02-.27-.04-.53-.15-.26-.11-.48-.28-.23-.16-.41-.38-.18-.21-.3-.46-.12-.26-.18-.53-.05-.27-.04-.54v-.28ZM1005.366 14.906l-1.06-.68q-1.06-.67-2.38-.88-1.32-.21-1.41 1.18-.08 1.38.83 2.09.9.71 2.06.24 1.16-.47.97-2.67-.2-2.19-.06-2.57.15-.39.38-.72.23-.34.54-.61.31-.28.67-.47.36-.19.76-.28.38-.1.79-.1.41 0 .81.09.4.1.76.29.36.19.67.46.31.27.54.61.23.34.38.72.14.38.19.79.05.4 0 .8-.05.41-2.5 1.5-2.44 1.09-2.87.76-.44-.34-.75-.79-.3-.46-.45-.99-.14-.53-.11-1.07.03-.55.24-1.06.2-.51.56-.92.36-.42.83-.7.47-.28 1.01-.4.53-.11 1.07-.05.55.06 1.05.29.5.24.89.62.4.38.66.86.25.49.34 1.03.08.53-.01 1.08-.09.54-.35 1.02-.26.49-.66.86-.4.38-.9.61-.5.22-1.05.28-.54.06-1.07-.06-.54-.12-1-.41-.47-.28-.83-.7-.35-.42-.55-.94-.2-.51-.23-1.06-.03-.53.12-1.06t.46-.99q.31-.45.75-.78t.96-.5q.51-.18 1.06-.17.55 0-1.37 1.27-1.93 1.27-1.79.89.15-.39.38-.72.23-.34.54-.61.3-.28.67-.47.36-.19.76-.28.38-.1.79-.1.41 0 .81.09.4.1.76.29.36.19.67.46.31.27.54.61.23.34.38.72.14.38.19.79.05.4 0 .8-.04.41.73 1.77.78 1.36-.07 3.12-.84 1.76-1.66 2.54-.82.77-1.96 1.44-1.13.67-2.84 1.16-1.71.48-3.47.21-1.75-.28-2.88-.85-1.13-.58-2.24-1.73-1.11-1.16-1.62-3.11-.5-1.95-.24-3.77.26-1.81 1.53-3.61 1.27-1.8 3.16-2.26 1.88-.45 2.94-.27t2.48.71q1.41.52 2.48 1.22 1.08.7 1.32.9.25.2.44.46t.31.55q.12.3.17.61.05.32.02.62-.02.32-.13.62-.1.31-.27.58-.18.26-.41.48-.23.22-.51.38-.27.16-.58.24-.31.09-.63.1-.31.01-.62-.05-.31-.07-.6-.21l-.29-.14ZM774.136 641.861l.22-1.45q.22-1.46.76-3.09t1.52-3.33q.99-1.71 1.82-2.97.83-1.26 2.87-2.9 2.05-1.63 3.42-2.61 1.37-.97 2.6-1.62 1.23-.65 2.4-1.03t3.53-.27q2.36.11 3.41.6 1.05.5 1.96 1.21.91.72 1.78 1.9.87 1.17 1.55 2.61.67 1.44 1.1 2.63l1.05 2.95q.62 1.77 1.09 3.02.47 1.25.8 2.24.32.99.37 1.36.04.36 0 .73t-.17.71q-.13.35-.34.65-.21.31-.48.56-.28.25-.61.42-.32.18-.68.27-.36.09-.73.09t-.74-.08q-.36-.09-.69-.26-.33-.17-.61-.41-.28-.25-.49-.55-.21-.3-.35-.65-.13-.35 1.45.85 1.58 1.19-.6 1.29-2.19.09-3.37.12-1.18.03-2.46.11-1.27.07-2.9.14-1.62.06-3.05.11-1.42.04-4.22.16-2.79.12-3.25.05-.45-.06-.86-.26-.41-.21-.73-.53-.33-.33-.53-.74t-.26-.86q-.06-.46.02-.9.09-.45.32-.84.22-.4.56-.71.35-.3.77-.48.42-.18.87-.22.46-.03.91.08.44.11.82.36.39.24.68.6.28.36.44.79.16.43.17.88.01.46-.13.89-.13.44-.4.81-.27.37-.64.64-.37.26-.81.4-.44.13-.9.12-.45-.02-.88-.17-.43-.16-.79-.45-.36-.29-.6-.67-.25-.39-.36-.84-.11-.44-.07-.9.04-.44.22-.86t.49-.76q.31-.34.71-.57.4-.22.85-.31l.45-.08 2.74-.06q2.74-.06 4.04-.13 1.3-.08 2.92-.3 1.61-.22 3.01-.38 1.4-.16 2.68-.24 1.28-.08 2.73-.07 1.46 0 3.63 1.04t2.22 1.41q.04.36 0 .73t-.17.71q-.13.35-.34.65-.21.31-.48.56-.28.25-.61.42-.32.18-.68.27-.36.09-.73.09t-.74-.08q-.36-.09-.69-.26-.33-.17-.61-.41-.28-.25-.49-.55-.21-.3-.34-.65-.14-.35-.18-.52-.05-.18-.32-1.47-.28-1.29-.69-2.77-.42-1.49-1-3.35-.59-1.87-1.48-3.61-.89-1.75-1.74-2.53-.85-.77-1.94-1.06-1.08-.29-2.88.2-1.8.5-3.03 1.31-1.22.8-2.7 2.2-1.49 1.39-2.24 2.45-.76 1.06-1.5 2.42-.74 1.36-1.18 2.59-.45 1.23-.68 2.68-.23 1.43-.31 1.7-.08.27-.21.51-.14.24-.33.45-.2.2-.43.35-.24.15-.5.24-.27.09-.54.12-.27.02-.55-.02-.27-.04-.53-.15-.26-.11-.48-.28-.23-.16-.41-.38-.18-.21-.3-.46-.12-.26-.18-.53-.05-.27-.04-.54v-.28ZM794.484 611.937l-1.06-.68q-1.06-.67-2.38-.88-1.32-.21-1.41 1.18-.08 1.38.83 2.09.9.71 2.06.24 1.16-.47.97-2.67-.2-2.19-.06-2.57.15-.39.38-.72.23-.34.54-.61.31-.28.67-.47.36-.19.76-.28.38-.1.79-.1.41 0 .81.09.4.1.76.29.36.19.67.46.31.27.54.61.23.34.38.72.14.38.19.79.05.4 0 .8-.05.41-2.5 1.5-2.44 1.09-2.87.76-.44-.34-.75-.79-.3-.46-.45-.99-.14-.53-.11-1.07.03-.55.24-1.06.2-.51.56-.92.36-.42.83-.7.47-.28 1.01-.4.53-.11 1.07-.05.55.06 1.05.29.5.24.89.62.4.38.66.86.25.49.34 1.03.08.53-.01 1.08-.09.54-.35 1.02-.26.49-.66.86-.4.38-.9.61-.5.22-1.05.28-.54.06-1.07-.06-.54-.12-1-.41-.47-.28-.83-.7-.35-.42-.55-.94-.2-.51-.23-1.06-.03-.53.12-1.06t.46-.99q.31-.45.75-.78t.96-.5q.51-.18 1.06-.17.55 0-1.37 1.27-1.93 1.27-1.79.89.15-.39.38-.72.23-.34.54-.61.3-.28.67-.47.36-.19.76-.28.38-.1.79-.1.41 0 .81.09.4.1.76.29.36.19.67.46.31.27.54.61.23.34.38.72.14.38.19.79.05.4 0 .8-.04.41.73 1.77.78 1.36-.07 3.12-.84 1.76-1.66 2.54-.82.77-1.96 1.44-1.13.67-2.84 1.16-1.71.48-3.47.21-1.75-.28-2.88-.85-1.13-.58-2.24-1.73-1.11-1.16-1.62-3.11-.5-1.95-.24-3.77.26-1.81 1.53-3.61 1.27-1.8 3.16-2.26 1.88-.45 2.94-.27t2.48.71q1.41.52 2.48 1.22 1.08.7 1.32.9.25.2.44.46t.31.55q.12.3.17.61.05.32.02.62-.02.32-.13.62-.1.31-.27.58-.18.26-.41.48-.23.22-.51.38-.27.16-.58.24-.31.09-.63.1-.31.01-.62-.05-.31-.07-.6-.21l-.29-.14Z"/>
</svg>